<svg xmlns="http://www.w3.org/2000/svg" width="23.619" height="16" viewBox="0 0 23.619 16">
  <g id="组_137" data-name="组 137" transform="translate(-1 -11)">
    <g id="组_135" data-name="组 135" transform="translate(1 11)">
      <path id="路径_103" data-name="路径 103" d="M12.809,22.2a.38.38,0,0,1-.257-.1L1.124,11.662a.381.381,0,0,1,.514-.562L12.809,21.3,23.98,11.1a.381.381,0,0,1,.514.562L13.066,22.1A.38.38,0,0,1,12.809,22.2Z" transform="translate(-1 -11)" fill="#fff"/>
    </g>
    <g id="组_136" data-name="组 136" transform="translate(1 11)">
      <path id="路径_104" data-name="路径 104" d="M24.238,27H1.381A.381.381,0,0,1,1,26.619V11.381A.381.381,0,0,1,1.381,11H24.238a.381.381,0,0,1,.381.381V26.619A.381.381,0,0,1,24.238,27ZM1.762,26.238H23.857V11.762H1.762Z" transform="translate(-1 -11)" fill="#fff"/>
    </g>
  </g>
</svg>
