<svg xmlns="http://www.w3.org/2000/svg" width="308.635" height="43" viewBox="0 0 308.635 43">
  <g id="组_5" data-name="组 5" transform="translate(-23.681)">
    <g id="组_2" data-name="组 2" transform="translate(130.538 6.203)">
      <path id="路径_1" data-name="路径 1" d="M330.184,34.855H139.171a.66.66,0,1,0,0,1.321H330.184a.66.66,0,1,0,0-1.321Z" transform="translate(-138.509 -5.582)" fill="#004f99"/>
      <g id="组_1" data-name="组 1" transform="translate(0.307 6.755)">
        <path id="路径_2" data-name="路径 2" d="M152.624,27.812a.785.785,0,1,1-1.57,0v-5.7c0-1.3,0-3.375-2.022-3.375-2.562,0-2.562,2.807-2.562,3.393v5.686a.7.7,0,0,1-.767.789.71.71,0,0,1-.8-.789v-5.7c0-1.321,0-3.375-1.987-3.375-.226,0-2.543,0-2.543,3.283v5.8a.713.713,0,0,1-.785.789.7.7,0,0,1-.785-.789V18a.7.7,0,0,1,.749-.789.708.708,0,0,1,.785.789v.918a3.181,3.181,0,0,1,2.876-1.707,3,3,0,0,1,2.841,1.852,3.631,3.631,0,0,1,3.189-1.852,3.132,3.132,0,0,1,3.085,2.037,7.861,7.861,0,0,1,.3,2.678Z" transform="translate(-138.802 -13.158)" fill="#6695c2"/>
        <path id="路径_3" data-name="路径 3" d="M162.381,26.107a5.531,5.531,0,0,0,.1,1.155c.017.091.121.567.121.623,0,.606-.609.716-.819.716-.522,0-.854-.348-.871-1.909a4.239,4.239,0,0,1-3.608,1.909,3.11,3.11,0,0,1-3.329-3.227c0-2.916,2.614-3.321,4.1-3.541,2.456-.384,2.736-.421,2.736-1.338,0-1.229-1.15-1.8-2.562-1.8a5.567,5.567,0,0,0-2.213.458,1.342,1.342,0,0,1-.592.2.721.721,0,0,1-.628-.77c0-.442.313-.607.645-.752a6.366,6.366,0,0,1,2.737-.624,4.43,4.43,0,0,1,3.538,1.466,4.158,4.158,0,0,1,.646,2.7Zm-1.534-3.6c-.454.294-.68.331-2.632.644-1.325.2-2.72.421-2.72,2.163a1.747,1.747,0,0,0,1.935,1.871,3.929,3.929,0,0,0,3.417-2.459Z" transform="translate(-138.096 -13.158)" fill="#6695c2"/>
        <path id="路径_4" data-name="路径 4" d="M170.332,17.868c.435-.422.471-.477.679-.477a.8.8,0,0,1,.785.734,1.121,1.121,0,0,1-.367.678l-3.519,3.413,4.269,5.025a1.4,1.4,0,0,1,.383.734.882.882,0,0,1-.853.807c-.261,0-.3-.037-.732-.568L166.2,22.362v5.63a.793.793,0,0,1-1.585,0V14.127a.793.793,0,0,1,1.585,0v7.85Z" transform="translate(-137.601 -13.338)" fill="#6695c2"/>
        <path id="路径_5" data-name="路径 5" d="M175.866,14.774a1.121,1.121,0,0,1-1.081,1.154,1.148,1.148,0,1,1,1.081-1.154ZM173.983,18.2a.707.707,0,0,1,.8-.808.731.731,0,0,1,.8.808v9.758a.8.8,0,1,1-1.6,0Z" transform="translate(-137.179 -13.324)" fill="#6695c2"/>
        <path id="路径_6" data-name="路径 6" d="M186.416,27.812a.7.7,0,0,1-.766.789.712.712,0,0,1-.8-.789V22.218c0-1.54,0-3.484-2.266-3.484a2.7,2.7,0,0,0-2.335,1.3,4.257,4.257,0,0,0-.435,2.181v5.595a.793.793,0,0,1-1.587,0V18a.776.776,0,1,1,1.551,0v.918a3.431,3.431,0,0,1,3.12-1.707,3.28,3.28,0,0,1,3.051,1.707,6.686,6.686,0,0,1,.47,3.245Z" transform="translate(-136.968 -13.158)" fill="#6695c2"/>
        <path id="路径_7" data-name="路径 7" d="M196.759,17.211a.737.737,0,0,1,.818.752.639.639,0,0,1-.61.7,2.035,2.035,0,0,0-1.08.366,3.5,3.5,0,0,1,.47,1.909c0,2.622-2.265,3.448-3.921,3.448a7.3,7.3,0,0,1-.958-.075c-.873.332-1.308.809-1.308,1.211,0,.717.75.752,2.963.881,1.168.054,4.114.256,4.114,3.318,0,3.469-4.148,3.469-4.863,3.469-3.1,0-4.55-1.377-4.55-3.321a3.227,3.227,0,0,1,1.622-2.843,1.528,1.528,0,0,1-.888-1.376,2.314,2.314,0,0,1,1.358-1.926,3.414,3.414,0,0,1-1.533-2.917c0-2.255,1.847-3.595,3.991-3.595a4.538,4.538,0,0,1,2.458.7A3.093,3.093,0,0,1,196.759,17.211Zm-4.917,10.511c-2.2,0-2.456,1.412-2.456,2.034,0,2,2.508,2.035,3.1,2.035,2.248,0,3.208-.916,3.208-2.017C195.7,28.162,194.423,27.722,191.842,27.722Zm-1.934-6.842a2.222,2.222,0,0,0,2.44,2.146,2.257,2.257,0,0,0,2.493-2.221,2.2,2.2,0,0,0-2.424-2.183A2.27,2.27,0,0,0,189.908,20.88Z" transform="translate(-136.521 -13.158)" fill="#6695c2"/>
        <path id="路径_8" data-name="路径 8" d="M204.5,14.778a1.082,1.082,0,0,1,1.237-1.229c.68,0,1.274.237,1.274,1.229V27.543a1.09,1.09,0,0,1-1.238,1.229c-.68,0-1.273-.22-1.273-1.229Z" transform="translate(-135.746 -13.328)" fill="#004f99"/>
        <path id="路径_9" data-name="路径 9" d="M215.614,27.549a1.074,1.074,0,0,1-1.219,1.21c-.8,0-1.255-.331-1.255-1.21V16.212h-3.347a1.044,1.044,0,0,1-1.169-1.173c0-.862.42-1.211,1.169-1.211h9.167a1.053,1.053,0,0,1,1.169,1.194c0,1.118-.734,1.19-1.169,1.19h-3.347Z" transform="translate(-135.554 -13.315)" fill="#004f99"/>
        <path id="路径_10" data-name="路径 10" d="M228.147,25.327c0,1.247.122,1.907,1.6,1.907.122,0,.732-.036.768-.036a.663.663,0,0,1,.678.734c0,.807-.678.807-1.742.807-2.894,0-2.894-1.833-2.894-3.356V19.164h-1.482a.67.67,0,0,1-.733-.752.68.68,0,0,1,.733-.77h1.482V15.055a.793.793,0,0,1,1.587,0v2.586h2.51a.677.677,0,0,1,.715.752c0,.587-.331.77-.715.77h-2.51Z" transform="translate(-134.823 -13.295)" fill="#6695c2"/>
        <path id="路径_11" data-name="路径 11" d="M240.907,27.992a.7.7,0,0,1-.766.789.713.713,0,0,1-.8-.789V22.4c0-1.54,0-3.484-2.266-3.484a2.7,2.7,0,0,0-2.335,1.3A4.248,4.248,0,0,0,234.3,22.4v5.595a.793.793,0,0,1-1.587,0V14.127a.717.717,0,0,1,.785-.789.709.709,0,0,1,.8.789v4.9a3.545,3.545,0,0,1,3.086-1.633,3.278,3.278,0,0,1,3.05,1.707,6.673,6.673,0,0,1,.47,3.245Z" transform="translate(-134.434 -13.338)" fill="#6695c2"/>
        <path id="路径_12" data-name="路径 12" d="M244.2,23.428c.069.955.226,3.706,3.7,3.706a6.085,6.085,0,0,0,2.282-.4.767.767,0,0,1,.315-.074.744.744,0,0,1,.173,1.431,7.85,7.85,0,0,1-2.822.514c-4.323,0-5.213-3.52-5.213-5.613,0-3.153,1.743-5.777,4.655-5.777,3.364,0,4.48,3.265,4.48,5.007,0,1.211-.925,1.211-1.743,1.211Zm5.647-1.3c.209,0,.384,0,.384-.275,0-.642-.593-3.174-2.946-3.174-1.621,0-2.876,1.248-3.051,3.449Z" transform="translate(-133.973 -13.158)" fill="#6695c2"/>
        <path id="路径_13" data-name="路径 13" d="M260.621,28.01a.692.692,0,0,1-.767.771.707.707,0,0,1-.785-.771V14.127a.716.716,0,0,1,.785-.789.709.709,0,0,1,.8.789v5.116a3.961,3.961,0,0,1,3.4-1.852c2.6,0,4.568,2.183,4.568,5.7,0,3.468-1.917,5.687-4.568,5.687a3.98,3.98,0,0,1-3.433-1.87Zm3.189-.734c1.6,0,3.224-1.155,3.224-4.182,0-3.007-1.621-4.181-3.224-4.181-1.481,0-3.171,1.008-3.171,4.181C260.639,26.214,262.277,27.276,263.81,27.276Z" transform="translate(-133.208 -13.338)" fill="#6695c2"/>
        <path id="路径_14" data-name="路径 14" d="M271.426,23.428c.069.955.227,3.706,3.694,3.706a6.092,6.092,0,0,0,2.284-.4.771.771,0,0,1,.315-.074.745.745,0,0,1,.174,1.431,7.854,7.854,0,0,1-2.825.514c-4.322,0-5.211-3.52-5.211-5.613,0-3.153,1.743-5.777,4.654-5.777,3.365,0,4.478,3.265,4.478,5.007,0,1.211-.922,1.211-1.742,1.211Zm5.646-1.3c.211,0,.386,0,.386-.275,0-.642-.594-3.174-2.947-3.174-1.621,0-2.876,1.248-3.051,3.449Z" transform="translate(-132.706 -13.158)" fill="#6695c2"/>
        <path id="路径_15" data-name="路径 15" d="M281.226,26.784a5.779,5.779,0,0,0,1.847.312c2.266,0,2.439-1.374,2.439-1.778,0-1.155-.871-1.431-2.631-2.018-1.063-.348-2.684-.88-2.684-2.953,0-1.926,1.533-3.136,3.607-3.136a4.928,4.928,0,0,1,2.057.4.763.763,0,0,1,.558.714.743.743,0,0,1-.661.789c-.071,0-.629-.184-.646-.184a4,4,0,0,0-1.255-.2c-1.168,0-2.092.514-2.092,1.595s.576,1.284,2.58,1.963c1.1.367,2.737.918,2.737,3.063,0,2.164-1.8,3.246-4.061,3.246a6.536,6.536,0,0,1-2.857-.624.709.709,0,0,1-.385-.642.775.775,0,0,1,.715-.808C280.546,26.528,281.122,26.749,281.226,26.784Z" transform="translate(-132.245 -13.158)" fill="#6695c2"/>
        <path id="路径_16" data-name="路径 16" d="M291.6,25.327c0,1.247.122,1.907,1.6,1.907.123,0,.734-.036.769-.036a.663.663,0,0,1,.678.734c0,.807-.678.807-1.742.807-2.893,0-2.893-1.833-2.893-3.356V19.164H288.53a.67.67,0,0,1-.733-.752.68.68,0,0,1,.733-.77h1.482V15.055a.793.793,0,0,1,1.585,0v2.586h2.511a.676.676,0,0,1,.713.752c0,.587-.33.77-.713.77H291.6Z" transform="translate(-131.872 -13.295)" fill="#6695c2"/>
        <path id="路径_17" data-name="路径 17" d="M307.6,17.868c.436-.422.471-.477.679-.477a.8.8,0,0,1,.785.734,1.124,1.124,0,0,1-.365.678l-3.52,3.413,4.27,5.025a1.406,1.406,0,0,1,.383.734.883.883,0,0,1-.854.807c-.262,0-.3-.037-.733-.568l-4.774-5.851v5.63a.793.793,0,0,1-1.587,0V14.127a.793.793,0,0,1,1.587,0v7.85Z" transform="translate(-131.217 -13.338)" fill="#6695c2"/>
        <path id="路径_18" data-name="路径 18" d="M311.748,23.428c.069.955.226,3.706,3.694,3.706a6.092,6.092,0,0,0,2.284-.4.766.766,0,0,1,.314-.074.745.745,0,0,1,.175,1.431,7.863,7.863,0,0,1-2.823.514c-4.323,0-5.213-3.52-5.213-5.613,0-3.153,1.745-5.777,4.654-5.777,3.365,0,4.48,3.265,4.48,5.007,0,1.211-.924,1.211-1.742,1.211Zm5.647-1.3c.208,0,.383,0,.383-.275,0-.642-.592-3.174-2.946-3.174-1.62,0-2.877,1.248-3.051,3.449Z" transform="translate(-130.831 -13.158)" fill="#6695c2"/>
        <path id="路径_19" data-name="路径 19" d="M319.94,18.5a1.659,1.659,0,0,1-.156-.606c0-.441.487-.679.872-.679.435,0,.556.293.678.624l2.772,7.484,2.771-7.484c.122-.331.244-.624.7-.624a.792.792,0,0,1,.854.7,1.564,1.564,0,0,1-.156.568l-5.316,14.013c-.157.423-.262.7-.715.7a.722.722,0,0,1-.8-.68,1.309,1.309,0,0,1,.121-.532l1.742-4.6Z" transform="translate(-130.384 -13.158)" fill="#6695c2"/>
      </g>
      <path id="路径_20" data-name="路径 20" d="M139.17,6.883H339.626a.66.66,0,1,1,0,1.321H139.17a.66.66,0,1,1,0-1.321" transform="translate(-138.509 -6.883)" fill="#004f99"/>
      <path id="路径_21" data-name="路径 21" d="M196.666,30.722" transform="translate(-135.804 -5.774)" fill="none" stroke="#e3007b" stroke-miterlimit="10" stroke-width="0.283"/>
      <path id="路径_22" data-name="路径 22" d="M139.2,30.722" transform="translate(-138.477 -5.774)" fill="none" stroke="#e3007b" stroke-miterlimit="10" stroke-width="0.283"/>
    </g>
    <g id="组_4" data-name="组 4" transform="translate(23.681)">
      <rect id="矩形_2" data-name="矩形 2" width="71.581" height="38.092" transform="translate(2.086 2.448)" fill="#fff"/>
      <g id="组_3" data-name="组 3">
        <path id="路径_23" data-name="路径 23" d="M19.681,0V43H95.295V0ZM49.825,33.41h-2.8c-4.95-5.8-16.779-18.284-16.8-18.3l.384,18.3H27.247l.342-24.886h3.358l16.3,17.352S46.9,8.56,46.885,8.524s3.3,0,3.3,0Zm11.654-3.3c-.243,2.84-.669,4.783-2.017,6.222s-3.71,2.191-6.374,2.629l-.734-1.879a13.741,13.741,0,0,0,1.273-.589c.337-.216,1.712-.593,2.2-3.229a27.354,27.354,0,0,0,.384-4.415c.05-1.57,0-20.321,0-20.321h5.373C61.571,10.24,61.6,28.668,61.479,30.11Zm27.133,1.872a18.476,18.476,0,0,1-7.877,2.037,17.449,17.449,0,0,1-5.835-.67,11.12,11.12,0,0,1-4.152-2.371,11.112,11.112,0,0,1-2.941-3.756,12.528,12.528,0,0,1-1.235-4.8,16.233,16.233,0,0,1,.933-6.671,10.951,10.951,0,0,1,2.944-4.3,14.273,14.273,0,0,1,4.6-2.689,18.364,18.364,0,0,1,13.776.759l-.689,3.748-.437.016a9.463,9.463,0,0,0-1.79-1.7,6.66,6.66,0,0,0-1.243-.767c-.173-.078-.346-.146-.528-.209a7.385,7.385,0,0,0-2.7-.517c-4.9,0-9.444,4.733-9.444,10.77S75.967,31.8,80.868,31.8c.01,0,.026,0,.04,0a7.919,7.919,0,0,0,.924.019,10.128,10.128,0,0,0,3.933-.91,9.282,9.282,0,0,0,1.663-.926,7.481,7.481,0,0,0,1.348-1.192l.5.275C89.1,29.581,88.866,31.308,88.612,31.982Z" transform="translate(-19.681)" fill="#004f99"/>
      </g>
    </g>
  </g>
</svg>
