<svg xmlns="http://www.w3.org/2000/svg" width="85.445" height="47.072" viewBox="0 0 85.445 47.072">
  <g id="组_932" data-name="组 932" transform="translate(0 -6.25)">
    <path id="路径_912" data-name="路径 912" d="M145.7,124.292a4.5,4.5,0,1,1,4.5-4.5A4.564,4.564,0,0,1,145.7,124.292Zm0-7.432a2.936,2.936,0,1,0,2.936,2.936A3.018,3.018,0,0,0,145.7,116.86Z" transform="translate(-80.731 -75.109)" fill="#231f20"/>
    <g id="组_874" data-name="组 874" transform="translate(0 12.663)">
      <g id="组_872" data-name="组 872">
        <g id="组_868" data-name="组 868" transform="translate(11.195 16.975)">
          <rect id="矩形_732" data-name="矩形 732" width="9.084" height="7.891" transform="translate(0.826 0.826)" fill="#fff"/>
          <path id="路径_914" data-name="路径 914" d="M107.244,34.051H96.6V24.6h10.644Zm-9.084-1.56h7.524V26.16H98.16Z" transform="translate(-96.6 -24.6)" fill="#020202"/>
        </g>
        <g id="组_869" data-name="组 869">
          <rect id="矩形_733" data-name="矩形 733" width="31.473" height="18.994" transform="translate(0.826 0.826)" fill="#fff"/>
          <path id="路径_915" data-name="路径 915" d="M117.433,26.746H84.4V6.1h33.033ZM85.96,25.186h29.913V7.752H85.96Z" transform="translate(-84.4 -6.1)" fill="#020202"/>
        </g>
        <g id="组_870" data-name="组 870" transform="translate(0.551 15.232)">
          <line id="直线_107" data-name="直线 107" x1="32.116" transform="translate(0 0.826)" fill="#fff"/>
          <rect id="矩形_734" data-name="矩形 734" width="32.024" height="1.56" fill="#020202"/>
        </g>
        <g id="组_871" data-name="组 871" transform="translate(0.551 3.212)">
          <line id="直线_108" data-name="直线 108" x2="32.116" transform="translate(0 0.826)" fill="#fff"/>
          <rect id="矩形_735" data-name="矩形 735" width="32.024" height="1.56" fill="#020202"/>
        </g>
        <rect id="矩形_736" data-name="矩形 736" width="14.773" height="1.56" transform="translate(9.176 25.325)" fill="#020202"/>
      </g>
      <g id="组_873" data-name="组 873" transform="translate(5.689 7.524)">
        <rect id="矩形_737" data-name="矩形 737" width="10.919" height="1.56" fill="#020202"/>
        <rect id="矩形_738" data-name="矩形 738" width="6.698" height="1.56" transform="translate(0 3.303)" fill="#020202"/>
      </g>
      <path id="路径_916" data-name="路径 916" d="M113.983,20.565H106V13.5h7.983Zm-6.423-1.56h4.863V15.06H107.56Z" transform="translate(-86.18 -6.71)" fill="#020202"/>
    </g>
    <g id="组_930" data-name="组 930" transform="translate(54.308 6.25)">
      <g id="组_921" data-name="组 921">
        <rect id="矩形_768" data-name="矩形 768" width="20.279" height="28.262" transform="translate(0.734 0.734)" fill="#fff"/>
        <path id="路径_940" data-name="路径 940" d="M180.139,47.53H158.3V17.8h21.839ZM159.86,45.97h18.719V19.36H159.86Z" transform="translate(-158.3 -17.8)" fill="#231f20"/>
      </g>
      <g id="组_922" data-name="组 922" transform="translate(0.734 4.588)">
        <line id="直线_130" data-name="直线 130" x2="20.462" transform="translate(0 0.826)" fill="#fff"/>
        <rect id="矩形_769" data-name="矩形 769" width="20.462" height="1.56" fill="#231f20"/>
      </g>
      <g id="组_923" data-name="组 923" transform="translate(12.296 20.554)">
        <path id="路径_941" data-name="路径 941" d="M177.555,43.577a2.477,2.477,0,1,1-2.477-2.477A2.467,2.467,0,0,1,177.555,43.577Z" transform="translate(-171.774 -40.274)" fill="#fff"/>
        <path id="路径_942" data-name="路径 942" d="M175,46.807a3.3,3.3,0,1,1,3.3-3.3A3.29,3.29,0,0,1,175,46.807Zm0-5.047a1.743,1.743,0,1,0,1.743,1.743A1.8,1.8,0,0,0,175,41.76Z" transform="translate(-171.7 -40.2)" fill="#231f20"/>
      </g>
      <g id="组_924" data-name="组 924" transform="translate(5.597 2.477)">
        <line id="直线_131" data-name="直线 131" x2="10.552" transform="translate(0 0.826)" fill="#fff"/>
        <rect id="矩形_770" data-name="矩形 770" width="10.552" height="1.56" fill="#231f20"/>
      </g>
      <g id="组_928" data-name="组 928" transform="translate(3.487 11.103)">
        <g id="组_925" data-name="组 925">
          <line id="直线_132" data-name="直线 132" x2="15.048" transform="translate(0 0.826)" fill="#fff"/>
          <rect id="矩形_771" data-name="矩形 771" width="14.957" height="1.56" fill="#231f20"/>
        </g>
        <g id="组_926" data-name="组 926" transform="translate(1.56 2.936)">
          <line id="直线_133" data-name="直线 133" x2="11.929" transform="translate(0 0.826)" fill="#fff"/>
          <rect id="矩形_772" data-name="矩形 772" width="11.929" height="1.56" fill="#231f20"/>
        </g>
        <g id="组_927" data-name="组 927" transform="translate(4.221 5.873)">
          <line id="直线_134" data-name="直线 134" x2="6.607" transform="translate(0 0.734)" fill="#fff"/>
          <rect id="矩形_773" data-name="矩形 773" width="6.698" height="1.56" fill="#231f20"/>
        </g>
      </g>
      <g id="组_929" data-name="组 929" transform="translate(3.395 22.664)">
        <path id="路径_943" data-name="路径 943" d="M162.7,45.11c.184-.275.275-.551.642-.642,1.56,2.294,3.4-2.019,4.5.642A10.119,10.119,0,0,0,169.674,43" transform="translate(-162.058 -42.541)" fill="#fff"/>
        <path id="路径_944" data-name="路径 944" d="M167.506,46.262l-.459-.918c-.184-.367-.275-.367-.275-.367a1.807,1.807,0,0,0-.734.367c-.642.367-1.743,1.009-2.753.275l-.092.092L162,44.7c.092-.092.092-.092.092-.184a5.44,5.44,0,0,1,.734-.734l.642-.275.367.551c.367.459.459.459,1.376-.092a2.266,2.266,0,0,1,2.019-.459,1.479,1.479,0,0,1,.642.367,8.933,8.933,0,0,0,1.009-1.376l1.285.826a10.116,10.116,0,0,1-1.927,2.294Z" transform="translate(-162 -42.5)" fill="#231f20"/>
      </g>
    </g>
    <rect id="矩形_777" data-name="矩形 777" width="4.129" height="1.56" transform="translate(16.517 42.77)" fill="#231f20"/>
    <rect id="矩形_779" data-name="矩形 779" width="9.91" height="1.56" transform="translate(75.535 43.908)" fill="#231f20"/>
    <g id="组_919" data-name="组 919" transform="translate(23.307 15.884)">
      <g id="组_918" data-name="组 918" transform="translate(0)">
        <path id="路径_937" data-name="路径 937" d="M93.955,76.907a4.824,4.824,0,0,1,5.964,0,14.707,14.707,0,0,0,6.882,2.845,4.78,4.78,0,0,1,4.221,4.221,14.707,14.707,0,0,0,2.845,6.882,4.824,4.824,0,0,1,0,5.964,14.706,14.706,0,0,0-2.845,6.882,4.869,4.869,0,0,1-4.221,4.221,14.707,14.707,0,0,0-6.882,2.845,4.824,4.824,0,0,1-5.964,0,14.707,14.707,0,0,0-6.882-2.845,4.78,4.78,0,0,1-4.221-4.221,14.707,14.707,0,0,0-2.845-6.882,4.824,4.824,0,0,1,0-5.964,14.707,14.707,0,0,0,2.845-6.882,4.78,4.78,0,0,1,4.221-4.221A14.707,14.707,0,0,0,93.955,76.907Z" transform="translate(-78.126 -75.072)" fill="#fff"/>
        <path id="路径_938" data-name="路径 938" d="M96.815,112.438a5.716,5.716,0,0,1-3.487-1.193,13.731,13.731,0,0,0-6.423-2.661,5.653,5.653,0,0,1-4.955-4.955,13.35,13.35,0,0,0-2.661-6.423,5.527,5.527,0,0,1,0-6.974,13.731,13.731,0,0,0,2.661-6.423A5.567,5.567,0,0,1,86.9,78.854a13.35,13.35,0,0,0,6.423-2.661A5.2,5.2,0,0,1,96.815,75a5.716,5.716,0,0,1,3.487,1.193,13.731,13.731,0,0,0,6.423,2.661,5.653,5.653,0,0,1,4.955,4.955,13.35,13.35,0,0,0,2.661,6.423,5.527,5.527,0,0,1,0,6.974,13.731,13.731,0,0,0-2.661,6.423,5.653,5.653,0,0,1-4.955,4.955,13.35,13.35,0,0,0-6.423,2.661A5.2,5.2,0,0,1,96.815,112.438Zm0-35.878a3.843,3.843,0,0,0-2.477.826A14.137,14.137,0,0,1,87,80.414,3.908,3.908,0,0,0,83.51,83.9a15.3,15.3,0,0,1-3.028,7.341,4.129,4.129,0,0,0,0,4.955,15.3,15.3,0,0,1,3.028,7.341A4,4,0,0,0,87,107.024a15.681,15.681,0,0,1,7.341,3.028,4.129,4.129,0,0,0,4.955,0,15.3,15.3,0,0,1,7.341-3.028,4,4,0,0,0,3.487-3.487,15.681,15.681,0,0,1,3.028-7.341,4.129,4.129,0,0,0,0-4.955A15.3,15.3,0,0,1,110.12,83.9a4,4,0,0,0-3.487-3.487,15.3,15.3,0,0,1-7.341-3.028A3.843,3.843,0,0,0,96.815,76.56Z" transform="translate(-78.05 -75)"/>
      </g>
      <path id="路径_939" data-name="路径 939" d="M97.272,107.844a13.672,13.672,0,1,1,13.672-13.672A13.706,13.706,0,0,1,97.272,107.844Zm0-25.693a12.112,12.112,0,1,0,12.112,12.112A12.1,12.1,0,0,0,97.272,82.152Z" transform="translate(-78.507 -75.453)"/>
      <text id="DX" transform="translate(10.595 22.451)" font-size="12" font-family="Roboto-Medium, Roboto" font-weight="500"><tspan x="0" y="0">DX</tspan></text>
    </g>
  </g>
</svg>
