<svg xmlns="http://www.w3.org/2000/svg" width="78.359" height="53.725" viewBox="0 0 78.359 53.725">
  <g id="组_933" data-name="组 933" transform="translate(0 -5.276)">
    <g id="组_663" data-name="组 663" transform="translate(0 12.8)">
      <g id="组_660" data-name="组 660">
        <path id="路径_729" data-name="路径 729" d="M46.81,56.261H20.2V20.2H39.561l7.249,7.157Z" transform="translate(-19.374 -19.374)" fill="#fff"/>
        <path id="路径_730" data-name="路径 730" d="M46.736,57.013H20.126a.822.822,0,0,1-.826-.826V20.126a.822.822,0,0,1,.826-.826H39.487a1.3,1.3,0,0,1,.551.184l7.249,7.157a.793.793,0,0,1,.275.551V56.1A.981.981,0,0,1,46.736,57.013Zm-25.784-1.56H46V27.65l-6.79-6.7H20.952Z" transform="translate(-19.3 -19.3)" fill="#231f20"/>
      </g>
      <g id="组_661" data-name="组 661" transform="translate(19.453 0.037)">
        <path id="路径_731" data-name="路径 731" d="M48.557,27.357H41.4V20.2Z" transform="translate(-40.574 -19.411)" fill="#fff"/>
        <path id="路径_732" data-name="路径 732" d="M48.483,28.112H41.326a.822.822,0,0,1-.826-.826V20.129a.817.817,0,0,1,.459-.734.7.7,0,0,1,.826.184l7.065,7.065a.929.929,0,0,1,.367.642A.7.7,0,0,1,48.483,28.112Zm-6.423-1.56h4.5l-4.5-4.5Z" transform="translate(-40.5 -19.34)" fill="#231f20"/>
      </g>
      <g id="组_662" data-name="组 662" transform="translate(5.414 11.653)">
        <path id="路径_733" data-name="路径 733" d="M41.9,33.652H26.026a.826.826,0,0,1,0-1.652H41.9a.822.822,0,0,1,.826.826A.968.968,0,0,1,41.9,33.652Z" transform="translate(-25.2 -32)" fill="#231f20"/>
        <path id="路径_734" data-name="路径 734" d="M41.9,38.352H26.026a.826.826,0,1,1,0-1.652H41.9a.822.822,0,0,1,.826.826A.968.968,0,0,1,41.9,38.352Z" transform="translate(-25.2 -32.387)" fill="#231f20"/>
        <path id="路径_735" data-name="路径 735" d="M41.9,43.052H26.026a.826.826,0,0,1,0-1.652H41.9a.822.822,0,0,1,.826.826A.887.887,0,0,1,41.9,43.052Z" transform="translate(-25.2 -32.775)" fill="#231f20"/>
        <path id="路径_736" data-name="路径 736" d="M41.9,47.752H26.026a.826.826,0,1,1,0-1.652H41.9a.822.822,0,0,1,.826.826A.968.968,0,0,1,41.9,47.752Z" transform="translate(-25.2 -33.162)" fill="#231f20"/>
        <path id="路径_737" data-name="路径 737" d="M35.661,52.452H26.026a.826.826,0,1,1,0-1.652h9.635a.822.822,0,0,1,.826.826A.968.968,0,0,1,35.661,52.452Z" transform="translate(-25.2 -33.549)" fill="#231f20"/>
      </g>
    </g>
    <g id="组_704" data-name="组 704" transform="translate(40.83 13.58)">
      <g id="组_695" data-name="组 695">
        <rect id="矩形_535" data-name="矩形 535" width="35.97" height="29.546" transform="translate(0.826 0.826)" fill="#fff"/>
        <path id="路径_759" data-name="路径 759" d="M55.529,129.406H18V98.3H55.529Zm-35.97-1.56h34.41V99.86H19.56Z" transform="translate(-18 -98.3)" fill="#231f20"/>
      </g>
      <g id="组_703" data-name="组 703" transform="translate(8.075 6.056)">
        <g id="组_696" data-name="组 696">
          <rect id="矩形_536" data-name="矩形 536" width="7.524" height="1.56" fill="#231f20"/>
          <rect id="矩形_537" data-name="矩形 537" width="2.477" height="1.56" transform="translate(10.644)" fill="#231f20"/>
          <rect id="矩形_538" data-name="矩形 538" width="1.927" height="1.56" transform="translate(15.048)" fill="#231f20"/>
          <rect id="矩形_539" data-name="矩形 539" width="3.12" height="1.56" transform="translate(18.26)" fill="#231f20"/>
        </g>
        <g id="组_697" data-name="组 697" transform="translate(0 3.12)">
          <rect id="矩形_540" data-name="矩形 540" width="1.56" height="1.56" fill="#231f20"/>
          <rect id="矩形_541" data-name="矩形 541" width="3.762" height="1.56" transform="translate(2.845)" fill="#231f20"/>
          <rect id="矩形_542" data-name="矩形 542" width="1.56" height="1.56" transform="translate(9.084)" fill="#231f20"/>
          <rect id="矩形_543" data-name="矩形 543" width="8.809" height="1.56" transform="translate(11.929)" fill="#231f20"/>
        </g>
        <g id="组_698" data-name="组 698" transform="translate(0 6.148)">
          <rect id="矩形_544" data-name="矩形 544" width="1.927" height="1.56" fill="#231f20"/>
          <rect id="矩形_545" data-name="矩形 545" width="1.56" height="1.56" transform="translate(2.845)" fill="#231f20"/>
          <rect id="矩形_546" data-name="矩形 546" width="2.477" height="1.56" transform="translate(4.68)" fill="#231f20"/>
          <rect id="矩形_547" data-name="矩形 547" width="1.56" height="1.56" transform="translate(7.524)" fill="#231f20"/>
          <rect id="矩形_548" data-name="矩形 548" width="0.918" height="1.56" transform="translate(9.451)" fill="#231f20"/>
          <rect id="矩形_549" data-name="矩形 549" width="0.918" height="1.56" transform="translate(10.093)" fill="#231f20"/>
          <rect id="矩形_550" data-name="矩形 550" width="1.56" height="1.56" transform="translate(13.213)" fill="#231f20"/>
          <rect id="矩形_551" data-name="矩形 551" width="4.129" height="1.56" transform="translate(17.342)" fill="#231f20"/>
        </g>
        <g id="组_699" data-name="组 699" transform="translate(0 9.268)">
          <rect id="矩形_552" data-name="矩形 552" width="7.524" height="1.56" fill="#231f20"/>
          <rect id="矩形_553" data-name="矩形 553" width="2.477" height="1.56" transform="translate(10.644)" fill="#231f20"/>
          <rect id="矩形_554" data-name="矩形 554" width="1.927" height="1.56" transform="translate(15.048)" fill="#231f20"/>
          <rect id="矩形_555" data-name="矩形 555" width="3.12" height="1.56" transform="translate(18.26)" fill="#231f20"/>
        </g>
        <g id="组_700" data-name="组 700" transform="translate(0 12.387)">
          <rect id="矩形_556" data-name="矩形 556" width="1.56" height="1.56" fill="#231f20"/>
          <rect id="矩形_557" data-name="矩形 557" width="3.762" height="1.56" transform="translate(2.845)" fill="#231f20"/>
          <rect id="矩形_558" data-name="矩形 558" width="1.56" height="1.56" transform="translate(9.084)" fill="#231f20"/>
          <rect id="矩形_559" data-name="矩形 559" width="8.809" height="1.56" transform="translate(11.929)" fill="#231f20"/>
        </g>
        <g id="组_701" data-name="组 701" transform="translate(0 15.415)">
          <rect id="矩形_560" data-name="矩形 560" width="1.927" height="1.56" fill="#231f20"/>
          <rect id="矩形_561" data-name="矩形 561" width="1.56" height="1.56" transform="translate(2.845)" fill="#231f20"/>
          <rect id="矩形_562" data-name="矩形 562" width="2.477" height="1.56" transform="translate(4.68)" fill="#231f20"/>
          <rect id="矩形_563" data-name="矩形 563" width="1.56" height="1.56" transform="translate(7.524)" fill="#231f20"/>
          <rect id="矩形_564" data-name="矩形 564" width="0.918" height="1.56" transform="translate(9.451)" fill="#231f20"/>
          <rect id="矩形_565" data-name="矩形 565" width="0.918" height="1.56" transform="translate(10.093)" fill="#231f20"/>
          <rect id="矩形_566" data-name="矩形 566" width="1.56" height="1.56" transform="translate(13.213)" fill="#231f20"/>
          <rect id="矩形_567" data-name="矩形 567" width="4.129" height="1.56" transform="translate(17.342)" fill="#231f20"/>
        </g>
        <g id="组_702" data-name="组 702" transform="translate(0 18.535)">
          <rect id="矩形_568" data-name="矩形 568" width="7.524" height="1.56" fill="#231f20"/>
          <rect id="矩形_569" data-name="矩形 569" width="2.477" height="1.56" transform="translate(10.644)" fill="#231f20"/>
          <rect id="矩形_570" data-name="矩形 570" width="1.927" height="1.56" transform="translate(15.048)" fill="#231f20"/>
          <rect id="矩形_571" data-name="矩形 571" width="3.12" height="1.56" transform="translate(18.26)" fill="#231f20"/>
        </g>
      </g>
    </g>
    <path id="路径_766" data-name="路径 766" d="M181.373,86.445,175.5,80.573l5.873-5.873,5.873,5.873Zm-3.67-5.873,3.579,3.579,3.579-3.579-3.579-3.579Z" transform="translate(-145.22 -27.444)" fill="#231f20"/>
    <rect id="矩形_578" data-name="矩形 578" width="9.268" height="1.56" transform="translate(58.543 50.513)" fill="#231f20"/>
    <rect id="矩形_582" data-name="矩形 582" width="9.268" height="1.56" transform="translate(13.917 5.276)" fill="#231f20"/>
    <rect id="矩形_589" data-name="矩形 589" width="3.579" height="1.56" transform="translate(30.28 11.241)" fill="#231f20"/>
  </g>
</svg>
