<svg id="组_931" data-name="组 931" xmlns="http://www.w3.org/2000/svg" width="136.446" height="33.309" viewBox="0 0 136.446 33.309">
  <path id="路径_848" data-name="路径 848" d="M120.354,14.408a3.854,3.854,0,1,1,3.854-3.854A3.938,3.938,0,0,1,120.354,14.408Zm0-6.056a2.2,2.2,0,1,0,2.2,2.2A2.233,2.233,0,0,0,120.354,8.352Z" transform="translate(-34.467 -3.856)" fill="#231f20"/>
  <path id="路径_853" data-name="路径 853" d="M79.523,16.446l-2.294-4.129L73.1,10.023l4.129-2.294L79.523,3.6l2.294,4.129,4.129,2.294-4.129,2.294ZM76.4,10.115l2.019,1.1,1.1,2.019,1.1-2.019,2.019-1.1-2.019-1.1L79.523,7l-1.1,2.019Z" transform="translate(-30.891 -3.6)" fill="#231f20"/>
  <g id="组_826" data-name="组 826" transform="translate(10.828 9.635)">
    <g id="组_824" data-name="组 824">
      <g id="组_822" data-name="组 822" transform="translate(9.726 14.773)">
        <rect id="矩形_684" data-name="矩形 684" width="7.891" height="6.882" transform="translate(0.734 0.826)" fill="#fff"/>
        <path id="路径_868" data-name="路径 868" d="M58.951,38.642H49.5V30.2h9.451Zm-7.891-1.56h6.331V31.76H51.06Z" transform="translate(-49.5 -30.2)" fill="#020202"/>
      </g>
      <g id="组_823" data-name="组 823">
        <rect id="矩形_685" data-name="矩形 685" width="27.436" height="16.517" transform="translate(0.734 0.826)" fill="#fff"/>
        <path id="路径_869" data-name="路径 869" d="M67.9,32.268h-29V14.1h29ZM40.46,30.708H66.336V15.66H40.46Z" transform="translate(-38.9 -14.1)" fill="#020202"/>
      </g>
      <rect id="矩形_686" data-name="矩形 686" width="12.846" height="1.56" transform="translate(8.075 22.114)" fill="#020202"/>
    </g>
    <g id="组_825" data-name="组 825" transform="translate(4.955 6.515)">
      <rect id="矩形_687" data-name="矩形 687" width="9.543" height="1.56" fill="#020202"/>
      <rect id="矩形_688" data-name="矩形 688" width="5.873" height="1.56" transform="translate(0 2.936)" fill="#020202"/>
    </g>
    <path id="路径_870" data-name="路径 870" d="M64.857,26.923H57.7V20.5h7.157Zm-5.6-1.56H63.3v-3.3H59.26Z" transform="translate(-40.449 -14.627)" fill="#020202"/>
  </g>
  <g id="组_831" data-name="组 831" transform="translate(94.879 9.635)">
    <g id="组_829" data-name="组 829">
      <g id="组_827" data-name="组 827" transform="translate(9.818 14.773)">
        <rect id="矩形_689" data-name="矩形 689" width="7.891" height="6.882" transform="translate(0.734 0.826)" fill="#fff"/>
        <path id="路径_871" data-name="路径 871" d="M150.651,38.642H141.2V30.2h9.451Zm-7.891-1.56h6.331V31.76H142.76Z" transform="translate(-141.2 -30.2)" fill="#020202"/>
      </g>
      <g id="组_828" data-name="组 828">
        <rect id="矩形_690" data-name="矩形 690" width="27.436" height="16.517" transform="translate(0.826 0.826)" fill="#fff"/>
        <path id="路径_872" data-name="路径 872" d="M159.5,32.268h-29V14.1h29Zm-27.436-1.56h25.876V15.66H132.06Z" transform="translate(-130.5 -14.1)" fill="#020202"/>
      </g>
      <rect id="矩形_691" data-name="矩形 691" width="12.846" height="1.56" transform="translate(8.075 22.114)" fill="#020202"/>
    </g>
    <g id="组_830" data-name="组 830" transform="translate(5.047 6.515)">
      <rect id="矩形_692" data-name="矩形 692" width="9.543" height="1.56" fill="#020202"/>
      <rect id="矩形_693" data-name="矩形 693" width="5.873" height="1.56" transform="translate(0 2.936)" fill="#020202"/>
    </g>
    <path id="路径_873" data-name="路径 873" d="M156.557,26.923H149.4V20.5h7.157Zm-5.689-1.56h4.037v-3.3h-4.037Z" transform="translate(-132.058 -14.627)" fill="#020202"/>
  </g>
  <g id="组_845" data-name="组 845" transform="translate(54.413 6.423)">
    <g id="组_844" data-name="组 844">
      <g id="组_842" data-name="组 842">
        <path id="路径_880" data-name="路径 880" d="M110.423,23.062A11.562,11.562,0,1,1,98.862,11.5,11.514,11.514,0,0,1,110.423,23.062Z" transform="translate(-86.474 -10.674)" fill="#fff"/>
        <path id="路径_881" data-name="路径 881" d="M98.787,35.375a12.388,12.388,0,1,1,12.3-12.387A12.394,12.394,0,0,1,98.787,35.375Zm0-23.123a10.736,10.736,0,1,0,10.736,10.736A10.75,10.75,0,0,0,98.787,12.252Z" transform="translate(-86.4 -10.6)" fill="#231f20"/>
      </g>
      <g id="组_843" data-name="组 843" transform="translate(6.148)">
        <path id="路径_882" data-name="路径 882" d="M105.095,23.062c0,6.423-2.477,11.562-5.6,11.562-3.028,0-5.6-5.139-5.6-11.562S96.377,11.5,99.5,11.5,105.095,16.73,105.095,23.062Z" transform="translate(-93.166 -10.674)" fill="#fff"/>
        <path id="路径_883" data-name="路径 883" d="M99.431,35.375c-3.579,0-6.331-5.414-6.331-12.387,0-6.882,2.753-12.387,6.331-12.387s6.331,5.414,6.331,12.387S103.01,35.375,99.431,35.375Zm0-23.123c-2.294,0-4.771,4.313-4.771,10.736s2.477,10.736,4.771,10.736,4.771-4.313,4.771-10.736S101.725,12.252,99.431,12.252Z" transform="translate(-93.1 -10.6)" fill="#231f20"/>
      </g>
    </g>
    <path id="路径_884" data-name="路径 884" d="M99.017,17.892a59.925,59.925,0,0,1-9.176-.734.792.792,0,1,1,.275-1.56,58.5,58.5,0,0,0,17.893,0,.792.792,0,0,1,.275,1.56A62.1,62.1,0,0,1,99.017,17.892Z" transform="translate(-86.629 -11.01)" fill="#231f20"/>
    <path id="路径_885" data-name="路径 885" d="M108.1,32.592h-.092a58.5,58.5,0,0,0-17.893,0,.792.792,0,1,1-.275-1.56,56.547,56.547,0,0,1,18.444,0,.756.756,0,0,1,.642.918A.881.881,0,0,1,108.1,32.592Z" transform="translate(-86.629 -12.221)" fill="#231f20"/>
    <path id="路径_886" data-name="路径 886" d="M110.349,24.852H87.226a.826.826,0,1,1,0-1.652h23.123a.826.826,0,1,1,0,1.652Z" transform="translate(-86.4 -11.638)" fill="#231f20"/>
  </g>
  <rect id="矩形_704" data-name="矩形 704" width="7.432" height="1.56" transform="translate(43.402 18.077)" fill="#020202"/>
  <rect id="矩形_709" data-name="矩形 709" width="7.432" height="1.56" transform="translate(84.235 18.077)" fill="#020202"/>
  <rect id="矩形_713" data-name="矩形 713" width="4.955" height="1.56" transform="translate(0 21.655)" fill="#231f20"/>
  <rect id="矩形_715" data-name="矩形 715" width="7.157" height="1.56" transform="translate(129.288 18.352)" fill="#231f20"/>
  <rect id="矩形_721" data-name="矩形 721" width="3.854" height="1.56" transform="translate(44.595 30.464)" fill="#231f20"/>
  <rect id="矩形_722" data-name="矩形 722" width="4.955" height="1.56" transform="translate(84.235 30.464)" fill="#231f20"/>
</svg>
