<svg xmlns="http://www.w3.org/2000/svg" width="34.859" height="30.428" viewBox="0 0 34.859 30.428">
  <g id="组_195" data-name="组 195" transform="translate(-180.336 -352.238)">
    <g id="组_194" data-name="组 194">
      <path id="路径_155" data-name="路径 155" d="M207.544,368.561a13.1,13.1,0,1,1-13.1-13.1A13.1,13.1,0,0,1,207.544,368.561Z" fill="#f8f8f8"/>
      <path id="路径_156" data-name="路径 156" d="M194.441,382.666a14.1,14.1,0,1,1,14.1-14.1A14.121,14.121,0,0,1,194.441,382.666Zm0-26.2a12.1,12.1,0,1,0,12.1,12.1A12.117,12.117,0,0,0,194.441,356.461Z" fill="#231f20"/>
    </g>
    <g id="路径_157" data-name="路径 157" fill="#0792b4">
      <path d="M 194.4394989013672 375.8274841308594 L 193.7322998046875 375.1201171875 L 185.9109954833984 367.2968444824219 L 185.2040710449219 366.5897216796875 L 185.9110870361328 365.8827209472656 L 187.3250885009766 364.4687194824219 L 188.0323028564453 363.7615051269531 L 188.7394104003906 364.4688110351563 L 194.4394989013672 370.1705627441406 L 210.2458801269531 354.3594055175781 L 210.9529876708984 353.652099609375 L 211.6602020263672 354.3592834472656 L 213.0743103027344 355.7733764648438 L 213.7813262939453 356.4804077148438 L 213.0744018554688 357.1875 L 195.1466979980469 375.1200866699219 L 194.4394989013672 375.8274841308594 Z" stroke="none"/>
      <path d="M 194.4394989013672 374.4130859375 L 212.3672027587891 356.4804992675781 L 210.9530944824219 355.06640625 L 194.4394989013672 371.5849914550781 L 188.0321960449219 365.1758117675781 L 186.6181945800781 366.5898132324219 L 194.4394989013672 374.4130859375 M 194.4394989013672 377.2418823242188 L 193.0251007080078 375.8271179199219 L 185.2038116455078 368.0038452148438 L 183.7899475097656 366.5896301269531 L 185.2039794921875 365.1755981445313 L 186.6179809570313 363.7615966796875 L 188.0324096679688 362.3471984863281 L 189.4466094970703 363.7618103027344 L 194.4394836425781 368.7561340332031 L 209.5386657714844 353.6524047851563 L 210.952880859375 352.2377624511719 L 212.3672943115234 353.6521911621094 L 213.7814025878906 355.0662841796875 L 215.1954498291016 356.4802856445313 L 213.7816162109375 357.89453125 L 195.8539123535156 375.8271179199219 L 194.4394989013672 377.2418823242188 Z" stroke="none" fill="#f8f8f8"/>
    </g>
  </g>
</svg>
