<svg xmlns="http://www.w3.org/2000/svg" xmlns:xlink="http://www.w3.org/1999/xlink" width="76" height="60.275" viewBox="0 0 76 60.275">
  <defs>
    <clipPath id="clip-path">
      <rect id="矩形_840" data-name="矩形 840" width="76" height="60.276" fill="none"/>
    </clipPath>
  </defs>
  <g id="组_1035" data-name="组 1035" transform="translate(-245)">
    <g id="组_1034" data-name="组 1034" transform="translate(245)" clip-path="url(#clip-path)">
      <path id="路径_1010" data-name="路径 1010" d="M315.561,30.45c0-9.265-10.212-16.8-22.763-16.8a30.132,30.132,0,0,0-6.854.782c-3.585-4.442-10.078-7.185-17.124-7.185-10.992,0-19.934,6.6-19.934,14.716,0,5.146,3.677,9.938,9.632,12.591-.048.951-.347,3.284-2.072,3.9a.68.68,0,0,0,.411,1.295,17.35,17.35,0,0,0,6.624-3.61,26.877,26.877,0,0,0,8.114.379c3.3,6.273,11.552,10.738,21.2,10.738a30.584,30.584,0,0,0,6.094-.613,19.817,19.817,0,0,0,7.565,4.122.768.768,0,0,0,.208.029.777.777,0,0,0,.262-1.508c-1.959-.7-2.306-3.369-2.365-4.455C311.36,41.8,315.561,36.327,315.561,30.45Zm-52.149,4.284a.689.689,0,0,0-.636.193,13.963,13.963,0,0,1-3.489,2.411,8.456,8.456,0,0,0,.6-3.087.653.653,0,0,0,.014-.161.684.684,0,0,0-.417-.6c-5.7-2.4-9.241-6.812-9.241-11.527,0-7.365,8.333-13.358,18.575-13.358,6.389,0,12.243,2.374,15.646,6.225-8.437,2.462-14.431,8.529-14.431,15.622a12.717,12.717,0,0,0,.943,4.754A25.658,25.658,0,0,1,263.411,34.734Zm40.044,8.883a.776.776,0,0,0-.467.685.766.766,0,0,0,.007.135,9.676,9.676,0,0,0,.687,3.573,15.942,15.942,0,0,1-3.972-2.739.742.742,0,0,0-.088-.083.788.788,0,0,0-.651-.152,28.885,28.885,0,0,1-6.174.666c-11.695,0-21.209-6.843-21.209-15.252S281.1,15.2,292.8,15.2s21.211,6.841,21.211,15.251C314.008,35.834,309.964,40.881,303.456,43.617Z" transform="translate(-243.794 2.248)"/>
    </g>
  </g>
</svg>
