<svg xmlns="http://www.w3.org/2000/svg" xmlns:xlink="http://www.w3.org/1999/xlink" width="76" height="60.276" viewBox="0 0 76 60.276">
  <defs>
    <clipPath id="clip-path">
      <rect id="SVGID" width="76" height="60.276" fill="none"/>
    </clipPath>
  </defs>
  <g id="组_1023" data-name="组 1023" transform="translate(-114)">
    <g id="组_1022" data-name="组 1022" transform="translate(114)" clip-path="url(#clip-path)">
      <g id="组_1021" data-name="组 1021" transform="translate(16.426 2.719)">
        <path id="路径_983" data-name="路径 983" d="M148.11,56.913a.647.647,0,0,1-.3-.075l-2.081-1.086C143.711,54.693,133.432,49,128.8,40.641a16.608,16.608,0,0,1-2.264-8.12V12.96a.653.653,0,0,1,.618-.654l4.234-.235c5.386-.3,10.04-2.352,12.769-5.631l3.449-4.13a.656.656,0,0,1,.5-.236h0a.656.656,0,0,1,.5.236l3.446,4.13c2.731,3.278,7.386,5.332,12.771,5.631l2.052.113h0l2.183.122a.653.653,0,0,1,.618.654V32.521c0,12.793-17.226,22.2-19.19,23.23l-2.081,1.088A.647.647,0,0,1,148.11,56.913ZM127.846,13.579V32.521a15.318,15.318,0,0,0,2.1,7.483c4.451,8.028,14.432,13.559,16.388,14.587l1.776.926,1.776-.928c1.892-.991,18.488-10.045,18.488-22.069V13.579l-3.615-.2c-5.747-.32-10.742-2.542-13.7-6.1L148.11,3.752l-2.946,3.529c-2.961,3.556-7.956,5.779-13.7,6.1Z" transform="translate(-126.536 -2.075)"/>
        <path id="路径_984" data-name="路径 984" d="M147.155,50.876a.647.647,0,0,1-.305-.076l-.214-.111c-1.123-.59-11.1-5.97-15.266-13.491a12.665,12.665,0,0,1-1.76-6.169V15.28a.654.654,0,0,1,.62-.654l.427-.024c6.5-.36,12.2-2.939,15.642-7.075l.352-.422a.677.677,0,0,1,1.006,0l.354.425c3.442,4.133,9.142,6.712,15.639,7.072l.428.024a.654.654,0,0,1,.62.654V31.028c0,5.248-4.115,10.018-7.566,13.093a50.809,50.809,0,0,1-9.466,6.569l-.207.11A.647.647,0,0,1,147.155,50.876ZM130.921,15.9V31.028a11.383,11.383,0,0,0,1.593,5.531c3.892,7.022,13.193,12.153,14.64,12.921a49.74,49.74,0,0,0,9.107-6.337c3.251-2.9,7.127-7.352,7.127-12.115V15.9c-6.689-.415-12.582-3.086-16.234-7.354C143.5,12.814,137.609,15.484,130.921,15.9Z" transform="translate(-125.582 -0.583)"/>
      </g>
    </g>
  </g>
</svg>
