<svg xmlns="http://www.w3.org/2000/svg" xmlns:xlink="http://www.w3.org/1999/xlink" width="76" height="60.276" viewBox="0 0 76 60.276">
  <defs>
    <clipPath id="clip-path">
      <rect id="矩形_838" data-name="矩形 838" width="76" height="60.276" fill="none"/>
    </clipPath>
  </defs>
  <g id="组_1030" data-name="组 1030" clip-path="url(#clip-path)">
    <path id="路径_997" data-name="路径 997" d="M36.277,50.2H6.206a.655.655,0,0,1-.655-.655V6.624a.655.655,0,0,1,.655-.655H14.3a.655.655,0,1,1,0,1.31H6.861V48.887H36.277a.655.655,0,0,1,0,1.31Z" transform="translate(1.723 1.852)"/>
    <path id="路径_998" data-name="路径 998" d="M61.707,50.2H57.524a.655.655,0,0,1,0-1.31h3.527V7.279H27.091a.655.655,0,0,1,0-1.31H61.707a.655.655,0,0,1,.655.655V49.542A.655.655,0,0,1,61.707,50.2Z" transform="translate(8.204 1.852)"/>
    <path id="路径_999" data-name="路径 999" d="M16.721,14a5.921,5.921,0,0,0,4.232,1.853,5.806,5.806,0,0,0,4.24-1.8A6.359,6.359,0,0,0,26.91,9.627a6.177,6.177,0,0,0-5.828-6.265h-.043A6.017,6.017,0,0,0,16.748,5.3h0a6.461,6.461,0,0,0-1.816,4.434A6.155,6.155,0,0,0,16.721,14Zm.854-7.908h0A4.869,4.869,0,0,1,21.034,4.5h.037a5.021,5.021,0,0,1,4.7,5.122,5.222,5.222,0,0,1-1.4,3.635,4.682,4.682,0,0,1-3.43,1.447h0a4.781,4.781,0,0,1-3.4-1.507,5.021,5.021,0,0,1-1.465-3.474A5.307,5.307,0,0,1,17.575,6.089Z" transform="translate(4.634 1.043)"/>
    <path id="路径_1000" data-name="路径 1000" d="M32.511,20.813a6.286,6.286,0,0,0-5.5-6.254,41.091,41.091,0,0,0-4.83-.3,43.711,43.711,0,0,0-5.015.3,6.29,6.29,0,0,0-5.511,6.256v6.425a.571.571,0,1,0,1.141,0V20.813A5.149,5.149,0,0,1,17.3,15.691a39.433,39.433,0,0,1,4.874-.288,39.925,39.925,0,0,1,4.695.29,5.144,5.144,0,0,1,4.5,5.121v6.425a.571.571,0,1,0,1.141,0Z" transform="translate(3.617 4.426)"/>
    <path id="路径_1001" data-name="路径 1001" d="M27.975,19.986H15a1.179,1.179,0,0,0-1.178,1.178v7.515A1.179,1.179,0,0,0,15,29.857H27.975a1.18,1.18,0,0,0,1.179-1.178V23.334a.583.583,0,0,0-.021-.152.6.6,0,0,0,.021-.153V21.164A1.18,1.18,0,0,0,27.975,19.986Zm.038,3.348v5.345a.038.038,0,0,1-.038.037H15a.037.037,0,0,1-.037-.037V21.164A.037.037,0,0,1,15,21.127H27.975a.038.038,0,0,1,.038.037v1.865a.6.6,0,0,0,.02.153A.582.582,0,0,0,28.013,23.334Z" transform="translate(4.289 6.203)"/>
    <path id="路径_1002" data-name="路径 1002" d="M36.6,28.234a5.921,5.921,0,0,0,4.232,1.853,5.808,5.808,0,0,0,4.24-1.8,6.357,6.357,0,0,0,1.717-4.424A6.178,6.178,0,0,0,40.957,17.6h-.043a6.015,6.015,0,0,0-4.289,1.939h0a6.454,6.454,0,0,0-1.817,4.433A6.159,6.159,0,0,0,36.6,28.234Zm.854-7.908h0a4.868,4.868,0,0,1,3.458-1.584h.038a5.02,5.02,0,0,1,4.7,5.122,5.227,5.227,0,0,1-1.4,3.635,4.687,4.687,0,0,1-3.43,1.447h0a4.781,4.781,0,0,1-3.4-1.507,5.033,5.033,0,0,1-1.466-3.474A5.313,5.313,0,0,1,37.451,20.326Z" transform="translate(10.802 5.462)"/>
    <path id="路径_1003" data-name="路径 1003" d="M32.1,42.047a.572.572,0,0,0,.57-.571V35.051a5.148,5.148,0,0,1,4.508-5.122,39.432,39.432,0,0,1,4.874-.288,39.908,39.908,0,0,1,4.695.29,5.141,5.141,0,0,1,4.5,5.12v6.426a.571.571,0,1,0,1.141,0V35.05a6.284,6.284,0,0,0-5.5-6.253,41.093,41.093,0,0,0-4.83-.3,43.712,43.712,0,0,0-5.015.3,6.289,6.289,0,0,0-5.511,6.256v6.425a.572.572,0,0,0,.571.571" transform="translate(9.785 8.844)"/>
    <path id="路径_1004" data-name="路径 1004" d="M47.853,34.223H34.875A1.18,1.18,0,0,0,33.7,35.4v7.514A1.18,1.18,0,0,0,34.875,44.1H47.853a1.18,1.18,0,0,0,1.178-1.179V37.571a.6.6,0,0,1,0-.3V35.4A1.18,1.18,0,0,0,47.853,34.223Zm.037,3.348v5.345a.037.037,0,0,1-.037.037H34.875a.037.037,0,0,1-.037-.037V35.4a.037.037,0,0,1,.037-.037H47.853a.037.037,0,0,1,.037.037v1.865a.6.6,0,0,1,0,.3Z" transform="translate(10.458 10.621)"/>
  </g>
</svg>
