<svg xmlns="http://www.w3.org/2000/svg" xmlns:xlink="http://www.w3.org/1999/xlink" width="76" height="60.275" viewBox="0 0 76 60.275">
  <defs>
    <clipPath id="clip-path">
      <rect id="矩形_839" data-name="矩形 839" width="76" height="60.276" fill="none"/>
    </clipPath>
  </defs>
  <g id="组_1033" data-name="组 1033" transform="translate(-131)">
    <g id="组_1032" data-name="组 1032" transform="translate(131)" clip-path="url(#clip-path)">
      <path id="路径_1005" data-name="路径 1005" d="M189.806,40.1H142.057a.6.6,0,0,1-.6-.595V11.016a.6.6,0,0,1,.6-.595h47.749a.6.6,0,0,1,.6.595V39.5A.6.6,0,0,1,189.806,40.1Zm-47.154-1.19h46.559V11.611H142.652Z" transform="translate(-127.753 3.234)"/>
      <path id="路径_1006" data-name="路径 1006" d="M203.979,45.223a.654.654,0,0,0-.649-.557h-5.188V9.678a2.766,2.766,0,0,0-2.764-2.764H141.22a2.768,2.768,0,0,0-2.765,2.764V44.666h-3.962a.656.656,0,0,0-.655.624c-.144,3.081,2.517,5.108,2.631,5.192a.646.646,0,0,0,.39.131c1.638.007,27.529.107,45.93.107,9.568,0,17.11-.028,18.164-.11a2.96,2.96,0,0,0,2.18-1.115C204.369,47.944,203.995,45.333,203.979,45.223ZM139.765,9.678a1.456,1.456,0,0,1,1.454-1.453h54.159a1.455,1.455,0,0,1,1.453,1.453V44.666H139.765Zm62.342,39a1.688,1.688,0,0,1-1.255.624c-2.931.227-59.627.014-63.756,0a5.6,5.6,0,0,1-1.926-3.327h67.56A4.411,4.411,0,0,1,202.108,48.681Z" transform="translate(-130.121 2.146)"/>
      <path id="路径_1007" data-name="路径 1007" d="M174.648,24.261H150.7a.655.655,0,0,1,0-1.31h23.952a.655.655,0,1,1,0,1.31Z" transform="translate(-125.091 7.123)"/>
      <path id="路径_1008" data-name="路径 1008" d="M181.006,13.958h-33.5a.655.655,0,0,0-.655.655v20.06a.655.655,0,0,0,.655.655h33.5a.655.655,0,0,0,.655-.655V14.613A.655.655,0,0,0,181.006,13.958Zm-.655,1.31V19.9H148.164V15.268Zm-32.186,18.75V21.207H180.35V34.018Z" transform="translate(-126.08 4.332)"/>
      <path id="路径_1009" data-name="路径 1009" d="M174.648,26.751H150.7a.655.655,0,0,1,0-1.31h23.952a.655.655,0,1,1,0,1.31Z" transform="translate(-125.091 7.895)"/>
    </g>
  </g>
</svg>
