<svg id="组_1020" data-name="组 1020" xmlns="http://www.w3.org/2000/svg" xmlns:xlink="http://www.w3.org/1999/xlink" width="76" height="60.276" viewBox="0 0 76 60.276">
  <defs>
    <clipPath id="clip-path">
      <rect id="矩形_835" data-name="矩形 835" width="76" height="60.276" fill="none"/>
    </clipPath>
  </defs>
  <g id="组_1019" data-name="组 1019" clip-path="url(#clip-path)">
    <g id="组_1018" data-name="组 1018" transform="translate(8.619 8.536)">
      <path id="路径_981" data-name="路径 981" d="M58.4,39.968H39.161a.655.655,0,1,1,0-1.31H58.4A8.433,8.433,0,1,0,56.526,22a.662.662,0,0,1-.763-.426,8.434,8.434,0,0,0-11.37-4.96.654.654,0,0,1-.9-.451,10.789,10.789,0,0,0-20.869-.562.616.616,0,0,1-.647.473l-.267-.008a8.4,8.4,0,0,0-8.038,5.877.653.653,0,0,1-.388.413A8.43,8.43,0,0,0,15.7,38.632a.69.69,0,0,1,.138.026H33.841a.655.655,0,0,1,0,1.31H15.648a.647.647,0,0,1-.237-.045A9.741,9.741,0,0,1,12.52,21.255a9.7,9.7,0,0,1,8.993-6.494A12.159,12.159,0,0,1,32.983,6.514a12.035,12.035,0,0,1,11.59,8.625,9.636,9.636,0,0,1,3.221-.546,9.749,9.749,0,0,1,9,6.022,9.743,9.743,0,1,1,1.6,19.354Z" transform="translate(-6.578 -6.514)"/>
    </g>
    <path id="路径_982" data-name="路径 982" d="M43.444,30.191,32.575,19.321a.656.656,0,0,0-.926,0L20.779,30.191a.655.655,0,0,0,.926.926l9.752-9.75V48.281a.655.655,0,1,0,1.31,0V21.367l9.75,9.75a.655.655,0,0,0,.926-.926Z" transform="translate(6.389 5.937)"/>
  </g>
</svg>
