<svg id="组_1017" data-name="组 1017" xmlns="http://www.w3.org/2000/svg" xmlns:xlink="http://www.w3.org/1999/xlink" width="76" height="60.276" viewBox="0 0 76 60.276">
  <defs>
    <clipPath id="clip-path">
      <rect id="矩形_834" data-name="矩形 834" width="76" height="60.276" fill="none"/>
    </clipPath>
  </defs>
  <g id="组_1016" data-name="组 1016" clip-path="url(#clip-path)">
    <g id="组_1015" data-name="组 1015" transform="translate(25.664 6.784)">
      <path id="路径_979" data-name="路径 979" d="M61,51.886a.655.655,0,0,1-.655-.655V22.388l-14.482.046h0a.655.655,0,0,1-.655-.655V6.487H20.9v7.958a.655.655,0,1,1-1.31,0V5.832a.655.655,0,0,1,.655-.655H45.862a.655.655,0,0,1,.655.655V21.121L61,21.075h0a.653.653,0,0,1,.655.655v29.5A.654.654,0,0,1,61,51.886Z" transform="translate(-19.586 -5.177)"/>
    </g>
    <path id="路径_980" data-name="路径 980" d="M41.288,43.92a17.175,17.175,0,0,0,4.775-10.935c.021-.352.03-.674.03-.984s-.009-.633-.03-.983A17.2,17.2,0,0,0,29.873,14.825c-.122-.005-.687-.029-.984-.029s-.822.022-.957.028H27.9a17.214,17.214,0,0,0-16.18,16.193c-.021.356-.03.677-.03.983s.009.625.03.983A17.178,17.178,0,0,0,16.49,43.92a17.065,17.065,0,0,0,11.416,5.256c.138.008,1.829.008,1.967,0a17.05,17.05,0,0,0,9.973-3.909A17.406,17.406,0,0,0,41.288,43.92ZM18.938,19.483a15.969,15.969,0,0,1,4.319-2.458.4.4,0,0,1,.456.636A15.457,15.457,0,0,0,21.54,21.3a.405.405,0,0,1-.244.223.45.45,0,0,1-.128.02.4.4,0,0,1-.2-.054,15.91,15.91,0,0,1-2.028-1.377.4.4,0,0,1,0-.633Zm-1.554,1.411h0a.406.406,0,0,1,.549-.03,17.271,17.271,0,0,0,2.7,1.832.4.4,0,0,1,.19.481A28.183,28.183,0,0,0,19.5,31.006a.4.4,0,0,1-.4.393H13.328a.408.408,0,0,1-.4-.43A15.993,15.993,0,0,1,17.384,20.894Zm.292,22.335a.4.4,0,0,1-.292-.123,15.989,15.989,0,0,1-4.46-10.073.406.406,0,0,1,.4-.431H19.1a.4.4,0,0,1,.4.393,28.174,28.174,0,0,0,1.325,7.828.406.406,0,0,1-.189.482,17.239,17.239,0,0,0-2.7,1.832A.4.4,0,0,1,17.676,43.229Zm6.052,3.6h0A.408.408,0,0,1,23.4,47a.392.392,0,0,1-.142-.025,15.952,15.952,0,0,1-4.32-2.458.406.406,0,0,1-.153-.317.41.41,0,0,1,.152-.317,16.36,16.36,0,0,1,2.031-1.377.406.406,0,0,1,.573.19,15.394,15.394,0,0,0,2.173,3.643A.405.405,0,0,1,23.728,46.834Zm4.559.615a.411.411,0,0,1-.514.39c-1.616-.473-3.183-1.954-4.417-4.168a16.954,16.954,0,0,1-.747-1.538.407.407,0,0,1,.219-.536,15.828,15.828,0,0,1,5.029-1.16.44.44,0,0,1,.3.11.4.4,0,0,1,.126.295Zm0-8.625a.4.4,0,0,1-.381.4,17.151,17.151,0,0,0-5.476,1.229.414.414,0,0,1-.322-.008.409.409,0,0,1-.216-.244,26.71,26.71,0,0,1-1.179-7.185.408.408,0,0,1,.115-.295.4.4,0,0,1,.291-.123h6.765a.4.4,0,0,1,.4.4Zm0-7.829a.4.4,0,0,1-.4.4H21.118a.405.405,0,0,1-.291-.122.412.412,0,0,1-.115-.3A26.64,26.64,0,0,1,21.893,23.8a.4.4,0,0,1,.215-.245.394.394,0,0,1,.322-.008,17.092,17.092,0,0,0,5.476,1.228.406.406,0,0,1,.381.4Zm0-7.835a.4.4,0,0,1-.4.4,15.908,15.908,0,0,1-5.057-1.157.412.412,0,0,1-.22-.223.406.406,0,0,1,0-.316,17.085,17.085,0,0,1,.747-1.537c1.234-2.216,2.8-3.7,4.413-4.167a.406.406,0,0,1,.518.389Zm12.108-2.266h0a16.007,16.007,0,0,1,4.46,10.074.406.406,0,0,1-.4.431H38.683a.4.4,0,0,1-.4-.393,28.232,28.232,0,0,0-1.325-7.829.4.4,0,0,1,.19-.481,17.391,17.391,0,0,0,2.7-1.832A.409.409,0,0,1,40.395,20.894ZM34.05,17.166h0a.409.409,0,0,1,.473-.142,15.981,15.981,0,0,1,4.318,2.458.4.4,0,0,1,0,.633,15.851,15.851,0,0,1-2.031,1.377.39.39,0,0,1-.2.054.464.464,0,0,1-.126-.018.409.409,0,0,1-.246-.224,15.509,15.509,0,0,0-2.171-3.644A.405.405,0,0,1,34.05,17.166Zm-4.56-.613a.408.408,0,0,1,.518-.39c1.613.472,3.18,1.952,4.415,4.168l.017.03c.238.431.472.911.729,1.507a.407.407,0,0,1-.218.539,15.9,15.9,0,0,1-5.029,1.157h0a.414.414,0,0,1-.3-.11.4.4,0,0,1-.127-.294Zm0,8.625a.407.407,0,0,1,.381-.4,17.092,17.092,0,0,0,5.477-1.228.4.4,0,0,1,.325.009.411.411,0,0,1,.214.244,26.709,26.709,0,0,1,1.179,7.183.405.405,0,0,1-.4.418H29.9a.406.406,0,0,1-.406-.4Zm0,7.829a.405.405,0,0,1,.406-.4h6.765a.405.405,0,0,1,.4.419A26.735,26.735,0,0,1,35.887,40.2a.4.4,0,0,1-.214.242.39.39,0,0,1-.173.038.383.383,0,0,1-.155-.03,17.154,17.154,0,0,0-5.473-1.228.405.405,0,0,1-.383-.4Zm.519,14.83a.4.4,0,0,1-.519-.389V40.842a.406.406,0,0,1,.128-.3.36.36,0,0,1,.3-.109A15.829,15.829,0,0,1,34.95,41.6a.4.4,0,0,1,.218.536,16.605,16.605,0,0,1-.746,1.538C33.188,45.885,31.621,47.366,30.009,47.838Zm8.832-3.319a15.964,15.964,0,0,1-4.319,2.458.4.4,0,0,1-.455-.637A15.545,15.545,0,0,0,36.24,42.7a.4.4,0,0,1,.244-.223.39.39,0,0,1,.328.033,16.3,16.3,0,0,1,2.03,1.377.4.4,0,0,1,0,.634Zm-1.7-3.213a.4.4,0,0,1-.19-.482A28.222,28.222,0,0,0,38.278,33a.4.4,0,0,1,.4-.393H44.45a.4.4,0,0,1,.4.43,16,16,0,0,1-4.46,10.074h0a.406.406,0,0,1-.292.122.4.4,0,0,1-.258-.092A17.289,17.289,0,0,0,37.144,41.306Z" transform="translate(3.626 4.592)"/>
  </g>
</svg>
