<svg xmlns="http://www.w3.org/2000/svg" xmlns:xlink="http://www.w3.org/1999/xlink" width="76" height="60.275" viewBox="0 0 76 60.275">
  <defs>
    <clipPath id="clip-path">
      <rect id="矩形_837" data-name="矩形 837" width="76" height="60.276" fill="none"/>
    </clipPath>
  </defs>
  <g id="组_1029" data-name="组 1029" transform="translate(284.717 -118)">
    <g id="组_1028" data-name="组 1028" transform="translate(-284.717 118)" clip-path="url(#clip-path)">
      <g id="组_1027" data-name="组 1027" transform="translate(12.761 7.829)">
        <path id="路径_995" data-name="路径 995" d="M-233.575,140.747a20.9,20.9,0,0,0-5.4-10.346,21.794,21.794,0,0,0-1.756-1.637,20.734,20.734,0,0,0-12.129-4.754c-.155-.007-.836-.035-1.2-.035s-1,.028-1.164.034a20.76,20.76,0,0,0-12.16,4.755,21.3,21.3,0,0,0-1.756,1.637,20.906,20.906,0,0,0-5.807,13.3c-.025.43-.037.822-.037,1.2s.012.767.037,1.2a20.909,20.909,0,0,0,5.807,13.3,20.838,20.838,0,0,0,1.756,1.635,20.738,20.738,0,0,0,12.129,4.755c.166.008,2.225.008,2.393,0a20.805,20.805,0,0,0,7.414-1.833,14.5,14.5,0,0,0,11.617,5.84,14.546,14.546,0,0,0,14.53-14.529A14.541,14.541,0,0,0-233.575,140.747Zm-32.626-11.13a19.581,19.581,0,0,1,5.272-3,.537.537,0,0,1,.618.19.531.531,0,0,1-.021.645,18.744,18.744,0,0,0-2.642,4.432.531.531,0,0,1-.321.29.525.525,0,0,1-.165.028.553.553,0,0,1-.261-.068,19.826,19.826,0,0,1-2.48-1.684.53.53,0,0,1-.2-.414A.529.529,0,0,1-266.2,129.617Zm-1.9,1.724a.536.536,0,0,1,.721-.039,21.1,21.1,0,0,0,3.285,2.228.529.529,0,0,1,.249.63,34.3,34.3,0,0,0-1.612,9.529.53.53,0,0,1-.531.514h-7.026a.534.534,0,0,1-.385-.166.53.53,0,0,1-.144-.4A19.532,19.532,0,0,1-268.1,131.342Zm.383,27.275a.535.535,0,0,1-.383-.162,19.523,19.523,0,0,1-5.443-12.3.533.533,0,0,1,.142-.4.533.533,0,0,1,.388-.169h7.026a.53.53,0,0,1,.531.514,34.286,34.286,0,0,0,1.612,9.529.531.531,0,0,1-.248.63,21.022,21.022,0,0,0-3.286,2.228A.524.524,0,0,1-267.716,158.617Zm7.4,4.374a.529.529,0,0,1-.431.223.539.539,0,0,1-.19-.035,19.538,19.538,0,0,1-5.269-3,.537.537,0,0,1-.2-.415.524.524,0,0,1,.2-.415,19.3,19.3,0,0,1,2.475-1.68.513.513,0,0,1,.432-.043.525.525,0,0,1,.318.291,18.752,18.752,0,0,0,2.642,4.429A.531.531,0,0,1-260.311,162.991Zm5.561.729a.529.529,0,0,1-.212.425.53.53,0,0,1-.317.106.508.508,0,0,1-.149-.022c-1.972-.575-3.889-2.385-5.4-5.093-.3-.539-.588-1.135-.911-1.878a.53.53,0,0,1-.005-.41.541.541,0,0,1,.292-.292,19.384,19.384,0,0,1,6.138-1.414.505.505,0,0,1,.4.142.526.526,0,0,1,.168.387Zm0-10.509a.528.528,0,0,1-.5.529,20.822,20.822,0,0,0-6.66,1.5.523.523,0,0,1-.2.039.535.535,0,0,1-.223-.05.526.526,0,0,1-.282-.32,32.513,32.513,0,0,1-1.439-8.762.52.52,0,0,1,.149-.387.532.532,0,0,1,.381-.162h8.242a.53.53,0,0,1,.529.531Zm0-9.538a.531.531,0,0,1-.529.531h-8.242a.528.528,0,0,1-.383-.162.526.526,0,0,1-.148-.385,32.563,32.563,0,0,1,1.438-8.762.533.533,0,0,1,.28-.32.543.543,0,0,1,.425-.012,20.765,20.765,0,0,0,6.66,1.5.527.527,0,0,1,.5.529Zm0-9.545a.531.531,0,0,1-.168.388.532.532,0,0,1-.362.143l-.055-.005a19.343,19.343,0,0,1-6.118-1.411.528.528,0,0,1-.291-.291.536.536,0,0,1,.005-.41,20.785,20.785,0,0,1,.911-1.879c1.51-2.707,3.428-4.517,5.4-5.093a.51.51,0,0,1,.468.086.527.527,0,0,1,.211.423Zm14.021-2.825a.531.531,0,0,1,.719.039,19.557,19.557,0,0,1,5.03,9.452,14.426,14.426,0,0,0-7.659,2.948c0-.018-.012-.034-.013-.052a34.255,34.255,0,0,0-1.613-9.529.529.529,0,0,1,.249-.63A21,21,0,0,0-240.73,131.3Zm-7.068-4.5h0a.532.532,0,0,1,.616-.189,19.526,19.526,0,0,1,5.274,3,.527.527,0,0,1,.2.415.531.531,0,0,1-.2.414,19.891,19.891,0,0,1-2.479,1.681.547.547,0,0,1-.263.071.517.517,0,0,1-.168-.028.534.534,0,0,1-.318-.29,18.76,18.76,0,0,0-2.642-4.43A.533.533,0,0,1-247.8,126.807Zm-5.561-.729a.53.53,0,0,1,.214-.425.509.509,0,0,1,.465-.085c1.973.577,3.89,2.386,5.4,5.093l.025.046c.291.528.573,1.111.884,1.833a.53.53,0,0,1,.005.41.532.532,0,0,1-.288.291,19.437,19.437,0,0,1-6.14,1.414h-.009a.542.542,0,0,1-.389-.143.532.532,0,0,1-.166-.385Zm0,10.508a.529.529,0,0,1,.5-.529,20.783,20.783,0,0,0,6.658-1.494.546.546,0,0,1,.426.01.535.535,0,0,1,.279.32,32.512,32.512,0,0,1,1.439,8.762.536.536,0,0,1-.149.387.526.526,0,0,1-.381.161h-8.242a.532.532,0,0,1-.531-.531Zm0,9.538a.531.531,0,0,1,.531-.531h8.191a14.444,14.444,0,0,0-3.679,8.925,20.909,20.909,0,0,0-4.542-.778.529.529,0,0,1-.5-.529Zm.679,18.1a.506.506,0,0,1-.148.022.53.53,0,0,1-.317-.106.53.53,0,0,1-.214-.425v-8.051a.529.529,0,0,1,.166-.385.483.483,0,0,1,.4-.143,19.253,19.253,0,0,1,4.474.839,14.439,14.439,0,0,0,.676,3.759C-249.092,162.106-250.86,163.7-252.68,164.227Zm5.5-1.048a.534.534,0,0,1-.186.034.531.531,0,0,1-.431-.221.529.529,0,0,1,.021-.647c.262-.318.512-.667.757-1.027a14.619,14.619,0,0,0,.781,1.464C-246.549,162.918-246.859,163.059-247.179,163.179Zm13.354,5.3a13.233,13.233,0,0,1-13.219-13.219,13.233,13.233,0,0,1,13.219-13.219,13.234,13.234,0,0,1,13.22,13.219A13.234,13.234,0,0,1-233.825,168.483Z" transform="translate(274.978 -123.975)"/>
        <path id="路径_996" data-name="路径 996" d="M-234.048,144.868l-10.162,7.878-4.23-3.976a.657.657,0,0,0-.926.029.656.656,0,0,0,.029.926l4.639,4.358a.655.655,0,0,0,.448.178.65.65,0,0,0,.4-.138l10.6-8.22a.655.655,0,0,0,.115-.92A.656.656,0,0,0-234.048,144.868Z" transform="translate(282.871 -117.533)"/>
      </g>
    </g>
  </g>
</svg>
