<svg xmlns="http://www.w3.org/2000/svg" xmlns:xlink="http://www.w3.org/1999/xlink" width="76" height="60.276" viewBox="0 0 76 60.276">
  <defs>
    <clipPath id="clip-path">
      <rect id="矩形_836" data-name="矩形 836" width="76" height="60.276" fill="none"/>
    </clipPath>
  </defs>
  <g id="组_1026" data-name="组 1026" transform="translate(-252)">
    <g id="组_1025" data-name="组 1025" transform="translate(252)" clip-path="url(#clip-path)">
      <path id="路径_985" data-name="路径 985" d="M306.392,10.251c-.005-.03-.009-.056-.017-.085a.652.652,0,0,0-.165-.3l-6.773-6.535a.652.652,0,0,0-.295-.153.612.612,0,0,0-.085-.017c-.026,0-.05-.014-.075-.014h-32.19a.655.655,0,0,0-.655.655V55.644a.655.655,0,0,0,.655.655h38.963a.655.655,0,0,0,.655-.655v-45.3A.7.7,0,0,0,306.392,10.251Zm-2.259-.565h-4.5V5.349l2.45,2.364Zm-36.686,45.3V4.46h30.88v5.881a.655.655,0,0,0,.655.655H305.1V54.989Z" transform="translate(-247.613 0.978)"/>
      <g id="组_1024" data-name="组 1024" transform="translate(24.336 9.163)">
        <path id="路径_986" data-name="路径 986" d="M272.861,6.993a2.218,2.218,0,0,1,2.471,2.328c0,1.865-1.375,2.3-2.664,2.3h-.951v3h-1.145V6.993Zm-.288,3.579c.654,0,1.625,0,1.625-1.25,0-1.289-.942-1.289-1.625-1.289h-.856v2.539Z" transform="translate(-270.572 -6.993)"/>
        <path id="路径_987" data-name="路径 987" d="M275.5,6.993h3.049a3.484,3.484,0,0,1,3.828,3.818c0,1.511-.578,3.808-3.885,3.808H275.5Zm1.135,6.588H278.3c1.452,0,2.932-.4,2.932-2.781,0-2.452-1.6-2.769-2.932-2.769h-1.664Z" transform="translate(-269.041 -6.993)"/>
        <path id="路径_988" data-name="路径 988" d="M286.489,10.235v1.029h-3.28v3.356h-1.144V6.993H286.8V8.032h-3.588v2.2Z" transform="translate(-267.005 -6.993)"/>
      </g>
      <path id="路径_989" data-name="路径 989" d="M296.12,15.775h-10.43a.655.655,0,0,1,0-1.31h10.43a.655.655,0,0,1,0,1.31Z" transform="translate(-241.748 4.489)"/>
      <path id="路径_990" data-name="路径 990" d="M296.12,19.327h-10.43a.655.655,0,0,1,0-1.31h10.43a.655.655,0,0,1,0,1.31Z" transform="translate(-241.748 5.591)"/>
      <path id="路径_991" data-name="路径 991" d="M298.666,36.05h-21.18a.655.655,0,1,1,0-1.31h21.18a.655.655,0,0,1,0,1.31Z" transform="translate(-244.294 10.781)"/>
      <path id="路径_992" data-name="路径 992" d="M298.666,39.6h-21.18a.655.655,0,1,1,0-1.31h21.18a.655.655,0,0,1,0,1.31Z" transform="translate(-244.294 11.884)"/>
      <path id="路径_993" data-name="路径 993" d="M301.163,23.133H269.437a.655.655,0,1,1,0-1.31h31.726a.655.655,0,0,1,0,1.31Z" transform="translate(-246.792 6.773)"/>
      <path id="路径_994" data-name="路径 994" d="M301.163,26.431H269.437a.655.655,0,1,1,0-1.31h31.726a.655.655,0,0,1,0,1.31Z" transform="translate(-246.792 7.796)"/>
    </g>
  </g>
</svg>
