<svg id="组_1014" data-name="组 1014" xmlns="http://www.w3.org/2000/svg" xmlns:xlink="http://www.w3.org/1999/xlink" width="76" height="60.276" viewBox="0 0 76 60.276">
  <defs>
    <clipPath id="clip-path">
      <rect id="矩形_833" data-name="矩形 833" width="76" height="60.276" fill="none"/>
    </clipPath>
  </defs>
  <g id="组_1013" data-name="组 1013" clip-path="url(#clip-path)">
    <g id="组_1012" data-name="组 1012" transform="translate(3.395 12.075)">
      <path id="路径_976" data-name="路径 976" d="M67.136,24.391H51.209V11.454a2.241,2.241,0,0,0-2.238-2.239H8.3a2.241,2.241,0,0,0-2.238,2.239v26.11H3.249a.654.654,0,0,0-.654.624,5.222,5.222,0,0,0,2.039,4.037.649.649,0,0,0,.39.131s19.846.077,34.066.079v.308a3.476,3.476,0,0,0,3.474,3.472H67.136a3.476,3.476,0,0,0,3.474-3.472V27.865A3.477,3.477,0,0,0,67.136,24.391ZM7.373,11.454a.93.93,0,0,1,.928-.929h40.67a.93.93,0,0,1,.928.929V24.391H47.035V14.677a.591.591,0,0,0-.591-.591H10.827a.591.591,0,0,0-.591.591V33.721a.591.591,0,0,0,.591.591H39.091v3.252H7.373ZM39.091,27.865V33.13H11.418V15.267H45.852v9.124H42.564A3.477,3.477,0,0,0,39.091,27.865ZM5.267,41.047a4.162,4.162,0,0,1-1.32-2.173H39.091v2.25C25.784,41.123,7.548,41.056,5.267,41.047Zm64.033,1.7A2.165,2.165,0,0,1,67.136,44.9H42.564A2.165,2.165,0,0,1,40.4,42.743V27.865A2.166,2.166,0,0,1,42.564,25.7H67.136A2.166,2.166,0,0,1,69.3,27.865Z" transform="translate(-2.591 -9.215)"/>
      <path id="路径_977" data-name="路径 977" d="M51.224,23.478H34.464a1.339,1.339,0,0,0-1.338,1.337V37.5a1.339,1.339,0,0,0,1.338,1.337H51.224A1.339,1.339,0,0,0,52.562,37.5V24.815A1.339,1.339,0,0,0,51.224,23.478ZM51.252,37.5a.027.027,0,0,1-.028.026L34.436,37.5l.028-12.714,16.788.026Z" transform="translate(6.886 -4.789)"/>
      <path id="路径_978" data-name="路径 978" d="M51.167,30.128a1.849,1.849,0,1,0,1.85,1.849A1.851,1.851,0,0,0,51.167,30.128Zm0,2.387a.539.539,0,1,1,.54-.539A.539.539,0,0,1,51.167,32.515Z" transform="translate(11.911 -2.725)"/>
    </g>
  </g>
</svg>
