<svg xmlns="http://www.w3.org/2000/svg" width="55.944" height="55.669" viewBox="0 0 55.944 55.669">
  <g id="组_1058" data-name="组 1058" transform="translate(-8.363 -1.366)">
    <g id="组_1055" data-name="组 1055" transform="translate(8.363 1.366)">
      <path id="路径_1021" data-name="路径 1021" d="M39.029,57.034a3.566,3.566,0,0,1-2.454-1.413c-.074-.075-.156-.161-.24-.245-.087.086-.169.171-.237.241a3.348,3.348,0,0,1-2.684,1.4,3.423,3.423,0,0,1-2.361-1.943c-.049-.078-.107-.171-.167-.264-.1.064-.193.128-.273.181a3.4,3.4,0,0,1-2.924.816,3.418,3.418,0,0,1-1.9-2.394c-.033-.088-.07-.192-.11-.295-.107.041-.213.084-.3.119a3.4,3.4,0,0,1-3.035.186A3.411,3.411,0,0,1,20.989,50.7c-.013-.091-.028-.2-.046-.313-.114.018-.223.037-.314.054a3.409,3.409,0,0,1-3.012-.448,3.4,3.4,0,0,1-.758-2.946c.006-.1.013-.209.019-.322-.114-.006-.223-.01-.317-.014A3.412,3.412,0,0,1,13.7,45.644a3.4,3.4,0,0,1-.132-3.039c.026-.089.056-.2.087-.31-.109-.029-.216-.056-.3-.078a3.417,3.417,0,0,1-2.579-1.636,3.39,3.39,0,0,1,.5-2.994c.046-.086.1-.186.152-.291-.1-.051-.2-.1-.28-.139-.815-.4-1.929-.946-2.182-2.141A3.4,3.4,0,0,1,10.087,32.2l.208-.253c-.083-.068-.166-.133-.235-.186a3.441,3.441,0,0,1-1.7-2.557,3.428,3.428,0,0,1,1.692-2.552c.069-.055.154-.121.24-.19-.074-.092-.148-.18-.209-.253a3.4,3.4,0,0,1-1.117-2.819c.253-1.2,1.367-1.743,2.182-2.142.08-.04.18-.088.28-.139-.052-.1-.1-.2-.149-.287a3.392,3.392,0,0,1-.5-3,3.411,3.411,0,0,1,2.578-1.634l.305-.078c-.028-.1-.057-.207-.082-.292a3.42,3.42,0,0,1,.128-3.058,3.407,3.407,0,0,1,2.855-1.062c.094,0,.2-.006.318-.013-.006-.114-.013-.225-.019-.317a3.408,3.408,0,0,1,.758-2.951,3.4,3.4,0,0,1,3.012-.448l.315.052c.018-.111.032-.22.045-.31a3.418,3.418,0,0,1,1.356-2.735,3.415,3.415,0,0,1,3.035.186c.088.036.193.078.3.119.041-.1.078-.209.11-.294a3.417,3.417,0,0,1,1.9-2.393,3.4,3.4,0,0,1,2.923.815l.273.181c.06-.093.117-.185.165-.26a3.429,3.429,0,0,1,2.363-1.948,3.4,3.4,0,0,1,2.681,1.4c.07.072.153.158.24.244.086-.086.169-.171.236-.243a3.388,3.388,0,0,1,2.685-1.4,3.422,3.422,0,0,1,2.358,1.942c.05.079.107.172.17.267.1-.064.194-.128.272-.181A3.4,3.4,0,0,1,44.98,2.59a3.418,3.418,0,0,1,1.9,2.394c.032.086.069.189.11.295.107-.041.211-.083.3-.117a3.4,3.4,0,0,1,3.038-.189A3.413,3.413,0,0,1,51.68,7.705c.014.093.029.2.046.314.114-.018.225-.037.317-.054a3.412,3.412,0,0,1,3.011.448,3.406,3.406,0,0,1,.758,2.949c-.005.092-.014.2-.019.318.11.006.218.01.309.013a3.419,3.419,0,0,1,2.864,1.062,3.407,3.407,0,0,1,.134,3.035c-.027.093-.057.2-.088.315l.306.078a3.411,3.411,0,0,1,2.577,1.636,3.4,3.4,0,0,1-.5,2.994c-.047.087-.1.188-.153.291l.281.138c.813.4,1.928.947,2.181,2.142A3.4,3.4,0,0,1,62.582,26.2c-.06.073-.134.161-.208.252.087.07.171.135.241.19A3.435,3.435,0,0,1,64.307,29.2a3.432,3.432,0,0,1-1.69,2.552c-.071.055-.156.123-.243.192.074.091.148.179.209.252a3.4,3.4,0,0,1,1.117,2.82c-.253,1.2-1.367,1.742-2.181,2.141-.082.041-.18.088-.281.139.051.1.1.2.146.277a3.41,3.41,0,0,1,.508,3.008,3.411,3.411,0,0,1-2.574,1.636c-.091.022-.2.049-.308.078.029.112.06.222.086.312a3.4,3.4,0,0,1-.132,3.037,3.41,3.41,0,0,1-2.856,1.062c-.094,0-.206.008-.318.014.006.11.014.217.019.308a3.42,3.42,0,0,1-.758,2.96,3.4,3.4,0,0,1-3.011.448c-.092-.015-.2-.036-.315-.054-.017.114-.033.223-.046.314a3.409,3.409,0,0,1-1.355,2.731,3.4,3.4,0,0,1-3.034-.185c-.089-.036-.2-.078-.3-.119-.041.1-.078.208-.11.294a3.416,3.416,0,0,1-1.9,2.393A3.4,3.4,0,0,1,42.056,55c-.078-.052-.174-.117-.272-.181-.06.092-.117.183-.165.259a3.428,3.428,0,0,1-2.363,1.948A2.177,2.177,0,0,1,39.029,57.034Zm-2.561-3.11a.67.67,0,0,1,.42.149,8.341,8.341,0,0,1,.633.605c.492.508.99,1.02,1.508,1.02.659-.064,1.064-.707,1.457-1.33.138-.218.329-.52.485-.715a.666.666,0,0,1,.387-.239l.156-.033a.949.949,0,0,1,.534.04c.23.117.541.324.753.465.606.407,1.231.83,1.767.655s.8-.887,1.056-1.577c.087-.24.216-.582.329-.811a.663.663,0,0,1,.327-.312l.226-.1a.678.678,0,0,1,.448-.036,8.548,8.548,0,0,1,.831.3c.682.272,1.383.553,1.871.269s.6-1.035.7-1.763a8.7,8.7,0,0,1,.153-.858.664.664,0,0,1,.257-.374l.132-.1A.92.92,0,0,1,51.4,49a8.551,8.551,0,0,1,.873.119c.72.125,1.464.254,1.888-.125s.37-1.136.32-1.868c-.018-.263-.04-.623-.028-.875a.667.667,0,0,1,.176-.42l.162-.18a.664.664,0,0,1,.4-.216,8.2,8.2,0,0,1,.862-.064c.744-.028,1.5-.055,1.836-.515s.126-1.185-.073-1.888a8.515,8.515,0,0,1-.207-.855.666.666,0,0,1,.08-.442l.126-.216a.659.659,0,0,1,.345-.294,8.632,8.632,0,0,1,.836-.241c.712-.18,1.449-.365,1.68-.884s-.123-1.182-.462-1.828a8.525,8.525,0,0,1-.384-.8.667.667,0,0,1-.013-.448l.078-.241a.664.664,0,0,1,.273-.355,8.355,8.355,0,0,1,.766-.411c.661-.326,1.344-.66,1.463-1.221s-.366-1.127-.835-1.687a8.882,8.882,0,0,1-.545-.7.653.653,0,0,1-.1-.446l.026-.239a.676.676,0,0,1,.194-.406c.181-.177.466-.4.661-.557.58-.456,1.181-.928,1.181-1.5s-.6-1.046-1.182-1.5c-.194-.152-.479-.378-.66-.555a.677.677,0,0,1-.2-.418l-.023-.234a.671.671,0,0,1,.106-.446c.14-.215.378-.5.54-.7.47-.561.954-1.138.836-1.688s-.8-.9-1.463-1.219c-.223-.11-.548-.272-.762-.409a.668.668,0,0,1-.28-.366l-.047-.147a.924.924,0,0,1-.015-.532A8.5,8.5,0,0,1,60.2,20.2c.347-.659.7-1.327.471-1.84s-.969-.706-1.682-.885c-.244-.061-.6-.153-.84-.243a.671.671,0,0,1-.341-.29l-.125-.217a.662.662,0,0,1-.082-.443,7.986,7.986,0,0,1,.209-.857c.2-.7.4-1.431.07-1.887s-1.092-.488-1.825-.515a8.566,8.566,0,0,1-.876-.064.664.664,0,0,1-.4-.216l-.158-.177a.666.666,0,0,1-.179-.423,8.345,8.345,0,0,1,.029-.877c.05-.729.1-1.486-.32-1.867s-1.171-.249-1.89-.124c-.249.043-.612.1-.869.119a.684.684,0,0,1-.43-.128l-.2-.146a.664.664,0,0,1-.258-.375,8.5,8.5,0,0,1-.152-.852c-.1-.733-.211-1.485-.7-1.771s-1.193,0-1.871.271a8.576,8.576,0,0,1-.83.3.664.664,0,0,1-.452-.038l-.22-.1a.66.66,0,0,1-.331-.314,8.2,8.2,0,0,1-.327-.8c-.253-.692-.515-1.406-1.057-1.582s-1.163.248-1.77.654a8.7,8.7,0,0,1-.752.467.687.687,0,0,1-.448.059L41.424,5a.866.866,0,0,1-.449-.25,8.518,8.518,0,0,1-.486-.716c-.4-.626-.8-1.269-1.37-1.329s-1.08.483-1.586,1a8.926,8.926,0,0,1-.645.618.67.67,0,0,1-.421.151h-.26a1.219,1.219,0,0,1-.426-.152,8.335,8.335,0,0,1-.641-.614c-.508-.522-1.042-1.078-1.588-1-.568.06-.974.7-1.366,1.327-.134.212-.329.518-.488.718a.669.669,0,0,1-.386.236l-.249.054a.668.668,0,0,1-.441-.06,8.46,8.46,0,0,1-.728-.449c-.629-.421-1.25-.843-1.793-.67s-.8.89-1.057,1.581a8.589,8.589,0,0,1-.328.806.658.658,0,0,1-.326.313l-.227.1a.686.686,0,0,1-.448.036,8.648,8.648,0,0,1-.83-.3c-.679-.273-1.381-.553-1.872-.269s-.6,1.032-.7,1.756a8.031,8.031,0,0,1-.156.868.67.67,0,0,1-.25.368l-.132.1a.9.9,0,0,1-.5.18,8.524,8.524,0,0,1-.872-.117c-.723-.125-1.467-.255-1.89.124s-.37,1.136-.32,1.868a8.668,8.668,0,0,1,.027.876.675.675,0,0,1-.171.415l-.167.185a.664.664,0,0,1-.4.216,8.707,8.707,0,0,1-.872.064c-.733.027-1.491.054-1.823.513s-.128,1.186.072,1.89c.074.264.169.609.208.855a.668.668,0,0,1-.084.447l-.124.212a.671.671,0,0,1-.343.292c-.24.089-.594.18-.835.241-.714.179-1.45.364-1.683.884s.123,1.182.463,1.828a8.767,8.767,0,0,1,.383.8.663.663,0,0,1,.013.447l-.074.234a.671.671,0,0,1-.276.364,8.362,8.362,0,0,1-.766.41c-.663.326-1.346.661-1.464,1.221s.368,1.127.835,1.687a8.613,8.613,0,0,1,.545.7.67.67,0,0,1,.106.435l-.014.129a1.078,1.078,0,0,1-.208.526c-.181.176-.465.4-.659.555-.581.457-1.182.928-1.182,1.5s.6,1.047,1.182,1.5c.2.16.48.38.659.557a.662.662,0,0,1,.194.407l.014.128a1.093,1.093,0,0,1-.093.559c-.14.212-.37.49-.532.686-.479.572-.961,1.15-.847,1.7s.8.9,1.464,1.221c.222.109.549.272.764.409a.672.672,0,0,1,.273.356l.042.124a1.021,1.021,0,0,1,.026.563,8.5,8.5,0,0,1-.384.8c-.341.646-.695,1.314-.463,1.828s.968.7,1.68.884a8.582,8.582,0,0,1,.841.244.659.659,0,0,1,.345.3l.12.209a.665.665,0,0,1,.082.444,8.279,8.279,0,0,1-.207.852c-.2.707-.406,1.435-.073,1.892s1.092.486,1.826.513a8.449,8.449,0,0,1,.875.065.668.668,0,0,1,.395.213l.084.094a1.068,1.068,0,0,1,.254.507c.011.252-.01.613-.026.864-.051.746-.1,1.5.319,1.879s1.168.249,1.888.124c.248-.042.613-.1.868-.117a.65.65,0,0,1,.43.126l.124.091a.93.93,0,0,1,.336.43c.064.246.117.608.153.855.1.73.209,1.482.7,1.768s1.191,0,1.871-.271a8.646,8.646,0,0,1,.83-.3.693.693,0,0,1,.448.036l.229.1a.669.669,0,0,1,.324.309,8.242,8.242,0,0,1,.324.8c.257.7.52,1.417,1.061,1.593s1.163-.248,1.768-.654c.213-.143.523-.349.753-.467a.68.68,0,0,1,.449-.059l.236.051a.665.665,0,0,1,.388.236c.158.2.352.5.485.715.395.627.8,1.272,1.37,1.33s1.083-.483,1.588-1c.177-.183.442-.452.642-.617a.676.676,0,0,1,.421-.149h.266Z" transform="translate(-8.363 -1.366)" fill="#211815"/>
    </g>
    <g id="组_1056" data-name="组 1056" transform="translate(12.478 5.299)">
      <path id="路径_1022" data-name="路径 1022" d="M35.717,52.709A24.131,24.131,0,1,1,59.849,28.577,24.16,24.16,0,0,1,35.717,52.709Zm0-46.927a22.8,22.8,0,1,0,22.8,22.8A22.822,22.822,0,0,0,35.717,5.782Z" transform="translate(-11.586 -4.446)" fill="#211815"/>
    </g>
    <g id="组_1057" data-name="组 1057" transform="translate(15.186 8.005)">
      <path id="路径_1023" data-name="路径 1023" d="M35.133,49.414H35.04A21.414,21.414,0,1,1,56.554,28.083h0A21.423,21.423,0,0,1,35.133,49.414ZM35.216,7.9a20.088,20.088,0,1,0-.174,40.176h.091A20.086,20.086,0,0,0,55.218,28.131a.742.742,0,0,1,0-.075c0-.028,0-.055.005-.082a20.112,20.112,0,0,0-20-20.071Z" transform="translate(-13.707 -6.566)" fill="#211815"/>
    </g>
    <path id="路径_1024" data-name="路径 1024" d="M49.969,24.732l-3.95-11.187a.67.67,0,0,0-.9-.388,17.8,17.8,0,0,1-1.9.742c-.213,0-1.357-.193-2.367-.361a34.822,34.822,0,0,0-6.231-.765,9.034,9.034,0,0,0-3.341,2c-.835.017-2.846.051-3.423.026a7.046,7.046,0,0,1-2.109-1.079.668.668,0,0,0-.756,1.1A7.587,7.587,0,0,0,27.8,16.128c.161.006.415.009.72.009.354,0,.774,0,1.191-.009a12.2,12.2,0,0,0-1.493,1.545,5.254,5.254,0,0,0-.3,2.481c0,.489,0,1.053-.024,1.693l-.017.511c-.06,1.728-.08,2.308.7,2.849a1.763,1.763,0,0,0,1.456.132,3.745,3.745,0,0,0,2.342-1.776,9.529,9.529,0,0,0,.7-2.274,5.443,5.443,0,0,1,.223-.864c.257-.481.543-.787.674-.714a.63.63,0,0,0,.29.064.669.669,0,0,0,.166.229L44.968,29.21a1.1,1.1,0,0,1,.123,1.5,1.007,1.007,0,0,1-1.429.125l-.045-.038c-.055-.057-.1-.12-.165-.174l-5.315-4.565A.659.659,0,0,0,37.356,26a.7.7,0,0,0-.093.071c-.02.019-.047.031-.068.052h0c-.015.015-.036.023-.05.04a.669.669,0,0,0,.077.941l5.435,4.622a1.072,1.072,0,0,1,.051,1.385,1,1,0,0,1-.687.361,1.014,1.014,0,0,1-.741-.237l-.951-.808a2.316,2.316,0,0,0-.351-.366l-4.027-3.357-.246-.209a.666.666,0,0,0-.492-.154.733.733,0,0,0-.1.029.609.609,0,0,0-.14.041.651.651,0,0,0-.189.148c-.005.005-.011.008-.017.013h0l-.008.006a.668.668,0,0,0,.086.94l.193.161L39.3,33.308a1.024,1.024,0,0,1-1.5,1.374L35.27,32.591l-1.953-1.625a.674.674,0,1,0-.9,1l1.955,1.611.927.771a1.036,1.036,0,0,1,.135,1.456,1,1,0,0,1-1.425.124l-1.369-1.17a2.087,2.087,0,0,0-.452-2.676l-.125-.1a2.069,2.069,0,0,0-.614-.343l.028-.032a2.043,2.043,0,0,0-.239-2.919l-.125-.1a2.089,2.089,0,0,0-1.261-.471c0-.046.005-.091,0-.137a2.03,2.03,0,0,0-.737-1.411l-.124-.1a2.133,2.133,0,0,0-2.665-.024,2.057,2.057,0,0,0-.578-.792l-.126-.106a2.083,2.083,0,0,0-2.93.283l-.384.469a5.235,5.235,0,0,1-.711-1.044,3.293,3.293,0,0,0-.229-.372,2.838,2.838,0,0,0-1.143-.677.667.667,0,1,0-.466,1.25c.209.078.512.221.554.244.029.043.065.114.115.2a6.1,6.1,0,0,0,1.064,1.458A2.1,2.1,0,0,0,22,29.939l.125.1a2.046,2.046,0,0,0,1.226.46,1.8,1.8,0,0,0,0,.235,2.03,2.03,0,0,0,.737,1.411l.124.1a2.093,2.093,0,0,0,1.263.467c0,.047-.006.093,0,.142a2.023,2.023,0,0,0,.734,1.407l.126.1a2.1,2.1,0,0,0,1.346.48h.02a2.069,2.069,0,0,0,.744,1.528l.126.1a2.056,2.056,0,0,0,1.319.476c.066,0,.135,0,.2-.01A2.057,2.057,0,0,0,31.5,36.2l.319-.388,1.327,1.133a2.319,2.319,0,0,0,1.513.561c.07,0,.139,0,.207-.009a2.318,2.318,0,0,0,2.07-1.805l.027.022a2.367,2.367,0,0,0,3.329-.318,2.327,2.327,0,0,0,.458-.9,2.315,2.315,0,0,0,1.182.323c.07,0,.14,0,.209-.009a2.315,2.315,0,0,0,1.6-.84,2.378,2.378,0,0,0,.536-1.562l.038,0c.069,0,.139,0,.209-.009a2.32,2.32,0,0,0,1.6-.84A2.421,2.421,0,0,0,46,28.368a11.653,11.653,0,0,0,1.845-1.581c.246-.32.552-.72.6-.769.2-.069,1.147-.444,1.147-.444A.668.668,0,0,0,49.969,24.732ZM22.854,28.91a.755.755,0,0,1-.1-1.058l.972-1.184a.728.728,0,0,1,.5-.266.737.737,0,0,1,.543.163l.126.1a.753.753,0,0,1,.1,1.057l-.973,1.184h0a.735.735,0,0,1-.5.266.71.71,0,0,1-.544-.166Zm2.084,2.208a.71.71,0,0,1-.083-1.016l2.2-2.524a.8.8,0,0,1,1.09-.088l.124.1a.711.711,0,0,1,.083,1.018l-2.2,2.523a.8.8,0,0,1-1.09.088Zm2.247,2.225-.126-.1a.712.712,0,0,1-.084-1.016l2.2-2.523a.786.786,0,0,1,.6-.264.771.771,0,0,1,.493.172l.125.1a.7.7,0,0,1,.258.49.713.713,0,0,1-.174.526l-1.321,1.519-.014.014L29.1,32.3l-.831.954A.8.8,0,0,1,27.185,33.343Zm3.28,2.01a.732.732,0,0,1-.5.267.71.71,0,0,1-.541-.165l-.126-.1a.753.753,0,0,1-.1-1.057l.937-1.141.042-.05a.743.743,0,0,1,1.037-.1l.126.1a.753.753,0,0,1,.1,1.057l-.079.1a.69.69,0,0,0-.172.134.675.675,0,0,0-.129.232l-.592.723Zm17.553-10.6c-.4.132-.695.518-1.233,1.223a13.325,13.325,0,0,1-1.8,1.479L35.3,19a.651.651,0,0,0-.438-.158.652.652,0,0,0-.3-.323c-.415-.207-1.5-.5-2.448,1.278a4.973,4.973,0,0,0-.352,1.216,8.432,8.432,0,0,1-.586,1.955,2.436,2.436,0,0,1-1.846,1.143c-.153-.106-.179-.174-.126-1.7l.017-.513c.022-.655.023-1.232.024-1.733a7.481,7.481,0,0,1,.107-1.786,21.8,21.8,0,0,1,2.45-2.3.661.661,0,0,0,.5-.407A7.807,7.807,0,0,1,34.777,14.1a41.547,41.547,0,0,1,5.854.755,14.7,14.7,0,0,0,2.729.373A9.572,9.572,0,0,0,45,14.659l3.5,9.912C48.293,24.651,48.1,24.727,48.018,24.754Z" transform="translate(3.034 3.152)" fill="#211815"/>
    <path id="路径_1025" data-name="路径 1025" d="M32.239,37.723l-1.4-.828-1.4.829.356-1.587-1.222-1.074,1.619-.152.644-1.493.644,1.492,1.619.151-1.22,1.075Z" transform="translate(5.595 8.872)" fill="#211815"/>
    <path id="路径_1026" data-name="路径 1026" d="M35.466,36.9l-.958-.567-.957.568.244-1.085-.836-.735,1.107-.1.442-1.021.441,1.021,1.107.1-.835.736Z" transform="translate(6.808 9.02)" fill="#211815"/>
    <path id="路径_1027" data-name="路径 1027" d="M27.595,36.9l-.957-.567-.957.568.244-1.085-.837-.735,1.107-.1.442-1.021.441,1.021,1.108.1-.835.736Z" transform="translate(4.629 9.02)" fill="#211815"/>
  </g>
</svg>
