<svg xmlns="http://www.w3.org/2000/svg" width="66.235" height="41.322" viewBox="0 0 66.235 41.322">
  <g id="组_1063" data-name="组 1063" transform="translate(-2.208 -6.285)">
    <g id="组_1059" data-name="组 1059" transform="translate(11.638 10.619)">
      <path id="路径_1028" data-name="路径 1028" d="M55.443,37.785H10.4a.562.562,0,0,1-.561-.561V10.353a.563.563,0,0,1,.561-.562H55.443a.563.563,0,0,1,.562.562v26.87A.562.562,0,0,1,55.443,37.785ZM10.961,36.663H54.882V10.915H10.961Z" transform="translate(-9.837 -9.791)"/>
    </g>
    <path id="路径_1029" data-name="路径 1029" d="M68.38,42.424a.618.618,0,0,0-.611-.527H62.876V8.892a2.611,2.611,0,0,0-2.608-2.607H9.177A2.61,2.61,0,0,0,6.57,8.892V41.9H2.831a.619.619,0,0,0-.618.59,6.343,6.343,0,0,0,2.482,4.9.617.617,0,0,0,.368.124c1.545.006,25.968.1,43.327.1,9.026,0,16.142-.025,17.136-.1a2.794,2.794,0,0,0,2.057-1.052C68.75,44.989,68.4,42.527,68.38,42.424Zm-59.2-34.9H60.268A1.373,1.373,0,0,1,61.64,8.892V41.862H7.806V8.892A1.372,1.372,0,0,1,9.177,7.521ZM66.616,45.683a1.583,1.583,0,0,1-1.185.59c-2.764.218-56.235.015-60.143,0A5.333,5.333,0,0,1,3.47,43.133H67.2A4.14,4.14,0,0,1,66.616,45.683Z" transform="translate(0 0)"/>
    <g id="组_1062" data-name="组 1062" transform="translate(24.815 14.676)">
      <g id="组_1060" data-name="组 1060">
        <path id="路径_1030" data-name="路径 1030" d="M30.438,32.953a9.94,9.94,0,1,1,9.939-9.939A9.951,9.951,0,0,1,30.438,32.953Zm0-18.766a8.827,8.827,0,1,0,8.827,8.827A8.837,8.837,0,0,0,30.438,14.187Z" transform="translate(-20.497 -13.073)"/>
      </g>
      <g id="组_1061" data-name="组 1061" transform="translate(5.079 4.571)">
        <path id="路径_1031" data-name="路径 1031" d="M24.606,17.65a10.744,10.744,0,0,0,3.973-.879l.645,1.268a12.812,12.812,0,0,1-3.25.79v2.059h3.116v1.324H25.974v2.56h3.116V26.1H24.606Zm9.715,7.356c0,.968-.69.968-1.124.968H31.816l-.277-1.435h1.079c.3,0,.323-.068.323-.334V18.673H31.083v8.7H29.725V17.349h4.6Z" transform="translate(-24.606 -16.771)"/>
      </g>
    </g>
  </g>
</svg>
