<svg xmlns="http://www.w3.org/2000/svg" xmlns:xlink="http://www.w3.org/1999/xlink" width="204" height="168" viewBox="0 0 204 168">
  <defs>
    <linearGradient id="linear-gradient" y1="0.5" x2="1" y2="0.5" gradientUnits="objectBoundingBox">
      <stop offset="0" stop-color="#16bff2"/>
      <stop offset="1" stop-color="#0072dd"/>
    </linearGradient>
    <clipPath id="clip-_210304_01">
      <rect width="204" height="168"/>
    </clipPath>
  </defs>
  <g id="_210304_01" data-name="210304_01" clip-path="url(#clip-_210304_01)">
    <rect width="204" height="168" fill="#fff"/>
    <g id="Group_1065" data-name="Group 1065" transform="translate(-1.827 -1.73)">
      <g id="Group_1064" data-name="Group 1064" transform="translate(25.283 33.238)">
        <g id="Group_556" data-name="Group 556" transform="translate(25.131 16.519)">
          <g id="Group_547" data-name="Group 547" transform="translate(9.108 0)">
            <path id="Path_685" data-name="Path 685" d="M653.521,177.729l2.29-.081q.039,1.114.148,2.211l-2.28.226Q653.564,178.918,653.521,177.729Zm.049-3.546c.049-.785.124-1.576.223-2.353l2.272.29q-.139,1.092-.208,2.2Zm.633,9.409,2.246-.45q.218,1.091.506,2.156l-2.212.6C654.539,185.14,654.357,184.365,654.2,183.592Zm.211-15.254c.175-.764.378-1.534.6-2.286l2.194.657q-.316,1.056-.565,2.141Zm1.421,20.932,2.143-.809q.392,1.037.849,2.039l-2.083.951C656.416,190.734,656.11,190,655.835,189.27Zm.368-26.561c.3-.723.624-1.451.971-2.158l2.058,1.006q-.487.993-.91,2.023Zm2.168,31.894,1.981-1.15q.558.96,1.173,1.876l-1.9,1.277C659.185,195.954,658.764,195.28,658.371,194.6Zm.518-37.158c.414-.67.855-1.333,1.31-1.972l1.865,1.331q-.642.9-1.226,1.844Zm2.853,42,1.769-1.456q.7.855,1.462,1.664l-1.669,1.568C662.769,200.655,662.243,200.058,661.742,199.449Zm.653-46.76c.515-.592,1.057-1.175,1.61-1.73l1.626,1.612q-.78.787-1.508,1.623Zm3.459,51,1.509-1.725q.832.73,1.713,1.406l-1.4,1.817Q666.743,204.468,665.854,203.689Zm.768-55.121c.607-.5,1.236-.99,1.87-1.448l1.342,1.857q-.9.649-1.751,1.356Zm3.977,58.638,1.21-1.946q.94.586,1.92,1.11l-1.08,2.02C671.957,208.019,671.268,207.62,670.6,207.206Zm.863-62.023c.681-.4,1.38-.777,2.078-1.124l1.023,2.049q-.991.494-1.946,1.053Zm4.393,64.723.875-2.116q1.021.421,2.076.779l-.735,2.171C677.333,210.489,676.587,210.209,675.856,209.906Zm.931-67.273c.725-.277,1.477-.537,2.236-.77l.675,2.188q-1.061.328-2.093.722Zm4.7,69.079.517-2.232q1.074.249,2.173.429l-.37,2.262C683.025,212.041,682.245,211.887,681.485,211.711Zm.977-70.725c.771-.155,1.555-.289,2.332-.394l.307,2.271q-1.1.149-2.184.369Zm4.865,71.584.146-2.286q1.1.07,2.216.07v2.291Q688.5,212.644,687.327,212.569Zm1-72.279q.678-.027,1.363-.026.5,0,1,.014l-.063,2.291c-.312-.01-.625-.014-.938-.014-.427,0-.853.008-1.276.024Zm1.706,70.061q1.116-.011,2.215-.093l.169,2.285q-1.17.087-2.361.1Zm3.908-67.532.284-2.272c.784.1,1.57.222,2.337.371l-.435,2.249C695.409,143.027,694.673,142.911,693.94,142.819Zm1.6,67.03q1.1-.189,2.167-.45l.54,2.226c-.765.186-1.544.348-2.316.482Zm3.811-65.9.653-2.2c.75.224,1.505.476,2.244.749l-.8,2.148Q700.419,144.269,699.354,143.953Zm1.541,64.5q1.047-.367,2.061-.8l.9,2.107c-.718.306-1.458.592-2.2.853Zm3.614-62.5,1-2.058c.709.345,1.413.718,2.092,1.106l-1.136,1.988Q705.507,146.444,704.509,145.956Zm1.436,60.252q.973-.532,1.906-1.126l1.228,1.933c-.661.421-1.346.825-2.034,1.2Zm3.325-57.429,1.324-1.87c.64.454,1.274.935,1.884,1.43l-1.444,1.778Q710.175,149.421,709.27,148.78Zm1.294,54.387q.874-.685,1.7-1.421l1.526,1.709c-.587.523-1.2,1.033-1.813,1.516Zm2.947-50.831,1.611-1.629c.562.556,1.11,1.133,1.626,1.715l-1.713,1.521Q714.3,153.116,713.51,152.336Zm1.12,47.076q.751-.816,1.447-1.678l1.782,1.441c-.494.611-1.014,1.214-1.544,1.79Zm2.488-42.879,1.853-1.349c.461.635.908,1.293,1.327,1.957l-1.936,1.224Q717.769,157.428,717.118,156.533Zm.918,38.519q.608-.926,1.157-1.892l1.992,1.13c-.386.683-.8,1.363-1.233,2.019Zm1.961-33.8,2.047-1.029c.352.7.684,1.421.991,2.145l-2.11.892Q720.493,162.24,720,161.255Zm.691,28.939q.448-1.01.833-2.055l2.149.79c-.271.74-.57,1.477-.888,2.193Zm1.378-23.811,2.188-.68c.232.748.443,1.514.626,2.28l-2.227.535Q722.394,167.437,722.066,166.383Zm.444,18.584q.276-1.065.483-2.159l2.251.425c-.146.768-.319,1.546-.517,2.309Zm.757-13.186,2.27-.313q.16,1.164.246,2.35l-2.285.165Q723.419,172.872,723.268,171.781Zm.183,7.739q.1-1.1.126-2.213l2.29.056c-.02.794-.064,1.579-.134,2.36Z" transform="translate(-653.521 -140.264)" fill="#231f20"/>
          </g>
          <g id="Group_549" data-name="Group 549" transform="translate(23.576 21.917)">
            <path id="Path_687" data-name="Path 687" d="M677.164,177.743l-.189-1.617a3.616,3.616,0,0,0,1.264-.388l.753,1.442A5.261,5.261,0,0,1,677.164,177.743Zm-3.647-.918a5.276,5.276,0,0,1-1.342-1.359l1.344-.917a3.661,3.661,0,0,0,.931.943Zm7.975-2.455-1.521-.577a3.681,3.681,0,0,0,.238-1.3h1.627A5.28,5.28,0,0,1,681.492,174.37Zm-8.575-2.354-1.613-.21a5.269,5.269,0,0,1,.585-1.82l1.433.77A3.64,3.64,0,0,0,672.917,172.017Zm6.9-1.176a3.673,3.673,0,0,0-.8-1.055l1.1-1.2a5.252,5.252,0,0,1,1.157,1.522Zm-4.527-1.79-.56-1.527a5.26,5.26,0,0,1,1.816-.321l.059.814v.814A3.758,3.758,0,0,0,675.29,169.051Z" transform="translate(-671.304 -167.203)" fill="#231f20"/>
          </g>
          <g id="Group_550" data-name="Group 550" transform="translate(10.504 43.418)">
            <path id="Path_688" data-name="Path 688" d="M655.943,227.284l32.238-32.238,32.463,32.463" transform="translate(-655.368 -193.896)" fill="#fff"/>
            <path id="Path_689" data-name="Path 689" d="M719.938,227.821,688.05,195.933,656.387,227.6l-1.15-1.15,32.813-32.813,33.038,33.038Z" transform="translate(-655.236 -193.632)" fill="#231f20"/>
          </g>
          <g id="Group_551" data-name="Group 551" transform="translate(0 80.64)">
            <rect id="Rectangle_426" data-name="Rectangle 426" width="78.684" height="1.627" fill="#231f20"/>
          </g>
          <g id="Group_552" data-name="Group 552" transform="translate(28.267 57.518)">
            <path id="Path_690" data-name="Path 690" d="M702.072,218.325l-5.062-5.062-5.041,5.041-5.011-5.01-4.829,4.829-5.059-5.059,1.15-1.15,3.909,3.909,4.829-4.829,5.011,5.01,5.041-5.041,5.062,5.062,4.029-4.029,1.15,1.15Z" transform="translate(-677.07 -210.962)" fill="#231f20"/>
          </g>
          <g id="Group_553" data-name="Group 553" transform="translate(42.504 20.885)">
            <rect id="Rectangle_427" data-name="Rectangle 427" width="1.627" height="23.684" fill="#231f20"/>
          </g>
          <g id="Group_554" data-name="Group 554" transform="translate(50.654 25.18)">
            <path id="Path_691" data-name="Path 691" d="M719.85,182.39H704.587V171.214H719.85l-3.633,5.588Zm-13.636-1.627h10.637l-2.574-3.96,2.574-3.961H706.214Z" transform="translate(-704.587 -171.214)" fill="#231f20"/>
          </g>
          <g id="Group_555" data-name="Group 555" transform="translate(42.504 20.071)">
            <rect id="Rectangle_428" data-name="Rectangle 428" width="12.951" height="9.548" transform="translate(0.814 0.813)" fill="#fff"/>
            <path id="Path_692" data-name="Path 692" d="M709.146,176.11H694.569V164.935h14.577Zm-12.95-1.627h11.323v-7.921H696.2Z" transform="translate(-694.569 -164.935)" fill="#231f20"/>
          </g>
        </g>
        <g id="Group_564" data-name="Group 564" transform="translate(109.337 67.391)">
          <g id="Group_559" data-name="Group 559" transform="translate(0)">
            <g id="Group_557" data-name="Group 557" transform="translate(0.814 0.814)">
              <path id="Path_693" data-name="Path 693" d="M768.06,214.408a10.616,10.616,0,1,0-15.176,9.587v9.488H762V224A10.618,10.618,0,0,0,768.06,214.408Z" transform="translate(-746.828 -203.794)" fill="#fff"/>
            </g>
            <g id="Group_558" data-name="Group 558">
              <path id="Path_694" data-name="Path 694" d="M762.632,234.11H751.883v-9.8a11.427,11.427,0,1,1,10.749,0Zm-9.122-1.627h7.495V223.3l.463-.221a9.8,9.8,0,1,0-8.422,0l.464.221Z" transform="translate(-745.828 -202.794)" fill="#020202"/>
            </g>
          </g>
          <g id="Group_560" data-name="Group 560" transform="translate(4.666 22.927)">
            <rect id="Rectangle_429" data-name="Rectangle 429" width="13.525" height="1.627" fill="#020202"/>
          </g>
          <g id="Group_561" data-name="Group 561" transform="translate(4.666 26.072)">
            <rect id="Rectangle_430" data-name="Rectangle 430" width="13.525" height="1.627" fill="#020202"/>
          </g>
          <g id="Group_562" data-name="Group 562" transform="translate(2.65 10.215)">
            <path id="Path_695" data-name="Path 695" d="M757.761,224.026a8.686,8.686,0,0,1-8.676-8.676h1.627a7.057,7.057,0,0,0,7.049,7.049Z" transform="translate(-749.085 -215.35)" fill="#020202"/>
          </g>
          <g id="Group_563" data-name="Group 563" transform="translate(10.015 31.419)">
            <rect id="Rectangle_431" data-name="Rectangle 431" width="2.83" height="1.627" fill="#020202"/>
          </g>
        </g>
        <g id="Group_575" data-name="Group 575" transform="translate(107.129 0)">
          <g id="Group_571" data-name="Group 571">
            <g id="Group_567" data-name="Group 567">
              <g id="Group_565" data-name="Group 565" transform="translate(0.814 0.814)">
                <path id="Path_696" data-name="Path 696" d="M769.767,133.781a12.827,12.827,0,1,1-12.832-12.822A12.827,12.827,0,0,1,769.767,133.781Z" transform="translate(-744.114 -120.959)" fill="#fff"/>
              </g>
              <g id="Group_566" data-name="Group 566">
                <path id="Path_697" data-name="Path 697" d="M756.763,147.242h-.008a13.635,13.635,0,1,1,.008,0Zm-.008-25.656a12.014,12.014,0,0,0,0,24.029v.814l.006-.814a12.014,12.014,0,0,0-.006-24.029Z" transform="translate(-743.114 -119.959)" fill="#231f20"/>
              </g>
            </g>
            <g id="Group_570" data-name="Group 570" transform="translate(6.206)">
              <g id="Group_568" data-name="Group 568" transform="translate(0.814 0.814)">
                <path id="Path_698" data-name="Path 698" d="M765.167,133.783c.008,7.086-3,12.829-6.705,12.832s-6.716-5.741-6.72-12.824,3-12.828,6.707-12.832S765.167,126.7,765.167,133.783Z" transform="translate(-751.742 -120.959)" fill="#fff"/>
              </g>
              <g id="Group_569" data-name="Group 569">
                <path id="Path_699" data-name="Path 699" d="M758.276,147.242h0c-4.22,0-7.529-5.99-7.533-13.638s3.3-13.641,7.52-13.645,7.532,5.99,7.533,13.638a20.775,20.775,0,0,1-2.051,9.449C762.329,145.751,760.388,147.24,758.276,147.242Zm-.011-25.656c-3.2,0-5.9,5.506-5.9,12.018s2.708,12.01,5.906,12.011c1.476,0,2.906-1.181,4.026-3.323a19.137,19.137,0,0,0,1.866-8.695C764.167,127.087,761.464,121.586,758.265,121.586Z" transform="translate(-750.742 -119.959)" fill="#231f20"/>
              </g>
            </g>
          </g>
          <g id="Group_572" data-name="Group 572" transform="translate(2.74 4.979)">
            <path id="Path_700" data-name="Path 700" d="M757.35,128.524a63.289,63.289,0,0,1-10.187-.818.814.814,0,1,1,.264-1.606,61.584,61.584,0,0,0,9.922.8h.028a61.68,61.68,0,0,0,9.952-.805.813.813,0,1,1,.265,1.6,63.179,63.179,0,0,1-10.217.828Z" transform="translate(-746.482 -126.079)" fill="#231f20"/>
          </g>
          <g id="Group_573" data-name="Group 573" transform="translate(2.748 19.975)">
            <path id="Path_701" data-name="Path 701" d="M747.3,146.955a.814.814,0,0,1-.131-1.617,63.324,63.324,0,0,1,10.216-.827h.015a63.267,63.267,0,0,1,10.2.818.814.814,0,1,1-.264,1.606,61.58,61.58,0,0,0-9.939-.8h-.014a61.851,61.851,0,0,0-9.953.8A.73.73,0,0,1,747.3,146.955Z" transform="translate(-746.491 -144.512)" fill="#231f20"/>
          </g>
          <g id="Group_574" data-name="Group 574" transform="translate(0.015 12.823)">
            <path id="Path_702" data-name="Path 702" d="M743.945,137.359a.814.814,0,1,1,0-1.627l25.653-.011h0a.814.814,0,1,1,0,1.627l-25.653.011Z" transform="translate(-743.132 -135.72)" fill="#231f20"/>
          </g>
        </g>
        <g id="Group_582" data-name="Group 582" transform="translate(2.35 13.704)">
          <g id="Group_578" data-name="Group 578" transform="translate(0)">
            <g id="Group_576" data-name="Group 576" transform="translate(0.814 0.814)">
              <path id="Path_703" data-name="Path 703" d="M631.122,145.7c0,4.362-7.9,14.377-7.9,14.377s-7.9-10.016-7.9-14.377a7.9,7.9,0,1,1,15.8,0Z" transform="translate(-615.324 -137.804)" fill="#fff"/>
            </g>
            <g id="Group_577" data-name="Group 577">
              <path id="Path_704" data-name="Path 704" d="M623.036,161.208l-.639-.81c-.329-.418-8.074-10.289-8.074-14.881a8.712,8.712,0,0,1,17.425,0c0,4.592-7.744,14.463-8.074,14.881Zm0-22.777a7.094,7.094,0,0,0-7.085,7.085c0,3.051,4.64,9.813,7.085,13.045,2.446-3.231,7.085-9.994,7.085-13.045A7.094,7.094,0,0,0,623.036,138.431Z" transform="translate(-614.324 -136.804)" fill="#231f20"/>
            </g>
          </g>
          <g id="Group_581" data-name="Group 581" transform="translate(3.58 4.227)">
            <g id="Group_579" data-name="Group 579" transform="translate(0.814 0.814)">
              <path id="Path_705" data-name="Path 705" d="M628.363,147.319A4.319,4.319,0,1,1,624.043,143,4.32,4.32,0,0,1,628.363,147.319Z" transform="translate(-619.725 -143)" fill="#fff"/>
            </g>
            <g id="Group_580" data-name="Group 580">
              <path id="Path_706" data-name="Path 706" d="M623.857,152.266a5.133,5.133,0,1,1,5.133-5.134A5.139,5.139,0,0,1,623.857,152.266Zm0-8.639a3.506,3.506,0,1,0,3.506,3.506A3.509,3.509,0,0,0,623.857,143.627Z" transform="translate(-618.725 -142)" fill="#231f20"/>
            </g>
          </g>
        </g>
        <g id="Group_589" data-name="Group 589" transform="translate(7.775 70.609)">
          <g id="Group_585" data-name="Group 585" transform="translate(0)">
            <g id="Group_583" data-name="Group 583" transform="translate(0.814 0.813)">
              <circle id="Ellipse_41" data-name="Ellipse 41" cx="9.559" cy="9.559" r="9.559" fill="#fff"/>
            </g>
            <g id="Group_584" data-name="Group 584">
              <path id="Path_707" data-name="Path 707" d="M631.365,227.495a10.373,10.373,0,1,1,10.373-10.373A10.385,10.385,0,0,1,631.365,227.495Zm0-19.119a8.746,8.746,0,1,0,8.746,8.746A8.755,8.755,0,0,0,631.365,208.376Z" transform="translate(-620.992 -206.749)" fill="#231f20"/>
            </g>
          </g>
          <g id="Group_588" data-name="Group 588" transform="translate(8.032 5.223)">
            <g id="Group_586" data-name="Group 586" transform="translate(0.814 1.618)">
              <path id="Path_708" data-name="Path 708" d="M631.865,222.221v-7.063l4.753,3.532Z" transform="translate(-631.865 -215.158)" fill="#fff"/>
            </g>
            <g id="Group_587" data-name="Group 587">
              <path id="Path_709" data-name="Path 709" d="M630.865,223.468v-10.3l6.932,5.15Zm1.627-7.063v3.827l2.576-1.914Z" transform="translate(-630.865 -213.169)" fill="#231f20"/>
            </g>
          </g>
        </g>
        <g id="Group_595" data-name="Group 595" transform="translate(113.808 41.092)">
          <g id="Group_590" data-name="Group 590" transform="translate(0 11.525)">
            <rect id="Rectangle_432" data-name="Rectangle 432" width="1.627" height="6.915" fill="#231f20"/>
          </g>
          <g id="Group_591" data-name="Group 591" transform="translate(3.803 6.454)">
            <rect id="Rectangle_433" data-name="Rectangle 433" width="1.627" height="11.987" fill="#231f20"/>
          </g>
          <g id="Group_592" data-name="Group 592" transform="translate(7.606 1.383)">
            <rect id="Rectangle_434" data-name="Rectangle 434" width="1.627" height="17.057" fill="#231f20"/>
          </g>
          <g id="Group_593" data-name="Group 593" transform="translate(11.411 1.844)">
            <rect id="Rectangle_435" data-name="Rectangle 435" width="1.627" height="16.597" fill="#231f20"/>
          </g>
          <g id="Group_594" data-name="Group 594" transform="translate(15.213 0)">
            <rect id="Rectangle_436" data-name="Rectangle 436" width="1.627" height="18.441" fill="#231f20"/>
          </g>
        </g>
        <g id="Group_596" data-name="Group 596" transform="translate(24.588 22.923)">
          <rect id="Rectangle_437" data-name="Rectangle 437" width="5.967" height="5.966" transform="translate(0)"/>
        </g>
        <g id="Group_597" data-name="Group 597" transform="translate(31.096 92.076)">
          <path id="Path_710" data-name="Path 710" d="M665.928,234.762H664.3v-1.627h1.627Zm-4.881,0H659.42v-1.627h1.627Zm-4.881,0h-1.627v-1.627h1.627Zm-4.881,0h-1.627v-1.627h1.627Z" transform="translate(-649.657 -233.135)" fill="#231f20"/>
        </g>
        <g id="Group_598" data-name="Group 598" transform="translate(8.316 61.256)">
          <path id="Path_711" data-name="Path 711" d="M637.928,196.88H636.3v-1.627h1.627Zm-4.881,0H631.42v-1.627h1.627Zm-4.881,0h-1.627v-1.627h1.627Zm-4.881,0h-1.627v-1.627h1.627Z" transform="translate(-621.657 -195.253)" fill="#231f20"/>
        </g>
        <g id="Group_599" data-name="Group 599" transform="translate(0 47.606)">
          <path id="Path_712" data-name="Path 712" d="M627.706,180.1h-1.627v-1.627h1.627Zm-4.881,0H621.2v-1.627h1.627Zm-4.881,0h-1.627v-1.627h1.627Zm-4.881,0h-1.627v-1.627h1.627Z" transform="translate(-611.435 -178.474)" fill="#231f20"/>
        </g>
        <g id="Group_600" data-name="Group 600" transform="translate(125.437 65.479)">
          <rect id="Rectangle_438" data-name="Rectangle 438" width="12.474" height="1.627" transform="translate(0)" fill="#231f20"/>
        </g>
        <g id="Group_601" data-name="Group 601" transform="translate(78.825 10.177)">
          <rect id="Rectangle_439" data-name="Rectangle 439" width="8.136" height="1.627" fill="#231f20"/>
        </g>
        <g id="Group_602" data-name="Group 602" transform="translate(24.046 42.177)">
          <rect id="Rectangle_440" data-name="Rectangle 440" width="8.136" height="1.627" transform="translate(0 0)" fill="#231f20"/>
        </g>
        <g id="Group_603" data-name="Group 603" transform="translate(110.072 35.667)">
          <rect id="Rectangle_441" data-name="Rectangle 441" width="6.509" height="1.627" transform="translate(0 0)" fill="#231f20"/>
        </g>
      </g>
      <circle id="Ellipse_76" data-name="Ellipse 76" cx="15.644" cy="15.644" r="15.644" transform="translate(19.477 1.73)" opacity="0.1" fill="url(#linear-gradient)"/>
      <circle id="Ellipse_78" data-name="Ellipse 78" cx="6.017" cy="6.017" r="6.017" transform="translate(157.176 5.341)" opacity="0.1" fill="url(#linear-gradient)"/>
      <path id="Path_1032" data-name="Path 1032" d="M5.859-1.869c-.546,0-1.512-.588-1.512-1.218,0-.735.84-1.6,2.121-2.247.042,1.092.063,2.037.063,2.562C6.531-2.058,6.237-1.869,5.859-1.869ZM8.82-9.345c0-.609,0-1.239.021-1.869a40.164,40.164,0,0,0,3.969-.651l-.063-2.6a28.48,28.48,0,0,1-3.822.777c.021-.525.042-1.029.063-1.491.042-.525.126-1.428.168-1.806H6.3a16.508,16.508,0,0,1,.147,1.827c0,.357,0,.966-.021,1.7-.42.021-.819.042-1.2.042a22.783,22.783,0,0,1-2.877-.168l.042,2.52c.9.084,1.953.105,2.9.105.336,0,.714-.021,1.113-.042v1.743c0,.483,0,.966.021,1.449C3.885-6.7,1.764-4.83,1.764-3,1.764-.8,4.641.945,6.678.945,8.022.945,8.967.273,8.967-2.31c0-.714-.063-2.31-.105-3.969a14.763,14.763,0,0,1,3.906-.567c1.806,0,3.066.819,3.066,2.226,0,1.512-1.344,2.373-3.024,2.667a15.9,15.9,0,0,1-2.562.147L11.214.861a16.943,16.943,0,0,0,2.73-.336c3.3-.819,4.578-2.667,4.578-5.124,0-2.856-2.52-4.557-5.712-4.557a16.927,16.927,0,0,0-3.99.546Zm5.124-3.36a31.591,31.591,0,0,1,5,3.024l1.26-2.142a45.94,45.94,0,0,0-5.1-2.919Zm14.2,7.98A26.671,26.671,0,0,0,31.4-6.132a22.808,22.808,0,0,0,3.591,1.407Zm-.1,3.843V-2.667h6.993V-.882Zm1.008-9.7h4.662A12.076,12.076,0,0,1,31.4-8.778,12.142,12.142,0,0,1,28.938-10.5Zm6.783-1.974-.42.1H30.828c.231-.294.462-.588.672-.882L29.169-13.8h8.778v2.331h2.562v-4.6H32.718v-1.7H30.156v1.7H22.491v4.6h2.457V-13.8h3.864a12.207,12.207,0,0,1-5.9,4.221A6.988,6.988,0,0,1,24.57-7.728a20.933,20.933,0,0,0,2.562-1.407,17.076,17.076,0,0,0,1.89,1.575,29.868,29.868,0,0,1-7.371,2.079,8.493,8.493,0,0,1,1.155,2.2c.945-.189,1.869-.4,2.793-.651V1.827h2.436V1.176h6.993v.609h2.583V-4.053c.693.126,1.407.252,2.142.357a12.242,12.242,0,0,1,1.575-2.415,32.042,32.042,0,0,1-7.434-1.575,13.433,13.433,0,0,0,3.612-3.864ZM50.232-6.573c-.357-.567-1.869-2.877-2.436-3.654v-.924h2.1v-2.31H47.8v-4.326H45.528v4.326h-2.52v2.31h2.331a21,21,0,0,1-2.814,7.035,11.982,11.982,0,0,1,1.092,2.2,17.715,17.715,0,0,0,1.911-4.137V1.806H47.8V-7.245c.462.9.9,1.848,1.155,2.457Zm3.8,2.6C52.248-3.045,50.4-2.1,49.161-1.533l1.071,2.1c1.344-.735,2.982-1.659,4.452-2.52ZM50.358-6.258A14.721,14.721,0,0,1,52.353-3.57l1.785-1.26a14.386,14.386,0,0,0-2.079-2.541Zm9.849-1.176A16.53,16.53,0,0,1,58.17-5.166a11.4,11.4,0,0,1-.861-1.848v-.819H62.2V-9.87H57.309v-.924h4.074v-1.869H57.309v-.84h4.515v-1.953H59.787c.336-.525.714-1.155,1.092-1.785L58.4-17.808c-.21.672-.63,1.638-.945,2.352h-2.6a11.076,11.076,0,0,0-1.2-2.31l-1.974.672a11.921,11.921,0,0,1,.819,1.638H50.358V-13.5h4.536v.84H50.925v1.869h3.969v.924H49.959v2.037h4.935V-.672c0,.252-.084.357-.336.357s-1.071,0-1.785-.042a7.769,7.769,0,0,1,.672,2.226,6.849,6.849,0,0,0,2.982-.42c.672-.378.882-.966.882-2.1V-2.835a9.961,9.961,0,0,0,3.717,3.7A9.3,9.3,0,0,1,62.6-1.155a8.613,8.613,0,0,1-3.276-2.373c.819-.672,1.89-1.68,2.772-2.583ZM68.733-3.78c-.777,0-1.617-1.029-1.617-3.129a6.521,6.521,0,0,1,5.271-6.027A33.381,33.381,0,0,1,71.274-7.9C70.434-5.082,69.594-3.78,68.733-3.78ZM74.445.861c5.25-.8,7.938-3.906,7.938-8.274,0-4.536-3.255-8.127-8.4-8.127-5.4,0-9.576,4.116-9.576,8.9,0,3.507,1.953,6.048,4.242,6.048,2.268,0,4.074-2.562,5.313-6.762A45.193,45.193,0,0,0,75.2-13c2.793.483,4.347,2.625,4.347,5.5,0,3.024-2.058,4.935-4.725,5.565-.546.126-1.134.231-1.932.336ZM93.387-8.274a10.154,10.154,0,0,1,2.856-.462,11.886,11.886,0,0,1-2.625,3.948,24.25,24.25,0,0,1-.231-3.444ZM89.418-2.352c-.672,0-.966-.357-.966-1.008,0-1.176,1.05-2.772,2.6-3.822A28.987,28.987,0,0,0,91.5-3.024,4.42,4.42,0,0,1,89.418-2.352ZM97.125-12.1a12.026,12.026,0,0,1-.189,1.239h-.357a13.985,13.985,0,0,0-3.108.378c.021-.63.084-1.26.147-1.869a60.425,60.425,0,0,0,7.392-.756l-.021-2.394a34.684,34.684,0,0,1-7.056.882c.063-.4.126-.777.21-1.113a8.08,8.08,0,0,1,.294-1.113l-2.73-.063a8.3,8.3,0,0,1-.063,1.239l-.126,1.113h-.8a34.147,34.147,0,0,1-3.843-.273l.084,2.415c.966.042,2.583.126,3.675.126h.672c-.084.84-.147,1.722-.21,2.6C88.2-8.316,86-5.5,86-2.856A2.7,2.7,0,0,0,88.809.189a7.319,7.319,0,0,0,3.213-.84c.084.294.189.588.273.84l2.394-.714c-.168-.5-.336-1.008-.483-1.554a16.17,16.17,0,0,0,4.389-6.3,3.092,3.092,0,0,1,2.142,2.919c0,2.037-1.638,4.053-5.649,4.494l1.386,2.184c5.1-.756,6.846-3.633,6.846-6.552a5.368,5.368,0,0,0-4.011-5.1c.126-.4.273-.84.378-1.071Zm12.642-4.83c-.021.588-.063,1.428-.168,2.184a50.433,50.433,0,0,0-.588,6.657,26.9,26.9,0,0,0,.252,3.465l2.583-.168a12.489,12.489,0,0,1-.105-2.2c.105-2.73,2.247-6.426,4.7-6.426,1.722,0,2.793,1.785,2.793,5,0,5.04-3.234,6.552-7.854,7.266l1.575,2.415c5.5-1.008,9.114-3.822,9.114-9.7,0-4.578-2.247-7.413-5.145-7.413-2.352,0-4.158,1.764-5.145,3.36a33.954,33.954,0,0,1,.84-4.305Zm27.426,8.967A30.554,30.554,0,0,1,141.2-8.19a30.039,30.039,0,0,1,3.57.252l.063-2.5a36.106,36.106,0,0,0-3.654-.189c-1.344,0-2.835.1-3.99.21Zm1.638-6.678c-1.134.273-2.31.5-3.486.693l.168-.8c.1-.462.294-1.386.441-1.953l-3.171-.252a10.8,10.8,0,0,1-.084,2.1q-.063.5-.189,1.2c-.63.042-1.239.063-1.848.063a20.473,20.473,0,0,1-2.625-.168l.063,2.6c.735.042,1.512.084,2.52.084.42,0,.882-.021,1.365-.042-.147.588-.294,1.176-.441,1.722a45.853,45.853,0,0,1-3.591,9.366l2.919.966a67.071,67.071,0,0,0,3.3-9.618c.231-.84.441-1.764.63-2.667,1.386-.168,2.793-.4,4.032-.672Zm-2.919,9.219a14.274,14.274,0,0,0-.357,2.772c0,2.1,1.785,3.318,5.292,3.318a33.278,33.278,0,0,0,4.242-.294l.1-2.667a24.11,24.11,0,0,1-4.326.42c-2.226,0-2.751-.672-2.751-1.575a7.2,7.2,0,0,1,.294-1.743Zm16.59-9.534-3.192-.042a12.052,12.052,0,0,1,.147,2.1c0,1.281.042,3.7.231,5.607.588,5.586,2.583,7.644,4.851,7.644,1.68,0,2.982-1.281,4.368-4.893l-2.1-2.52c-.4,1.638-1.218,4.074-2.205,4.074-1.3,0-1.932-2.037-2.226-5.04-.126-1.491-.147-3.066-.126-4.41A16.479,16.479,0,0,1,152.5-14.952Zm10.4.441-2.646.882c2.268,2.562,3.381,7.455,3.7,10.794l2.751-1.05C166.467-7.077,164.871-12.1,162.9-14.511Zm11.865-.882a21.625,21.625,0,0,0-4.011-1.911l-1.176,1.68a19.629,19.629,0,0,1,3.948,2.079Zm-.315,2.688c-2.1,1.029-4.284,2.037-5.733,2.646l.8,2.142c1.638-.819,3.654-1.827,5.5-2.814Zm6.867,8.043A6.776,6.776,0,0,1,179.361-2.6c-1.281-.315-2.6-.63-3.906-.9.273-.378.525-.756.8-1.155ZM177.744-8a6.844,6.844,0,0,0,3.36-3.276c.483,1.365,2.247,3.423,5.859,4.242.357-.546.924-1.491,1.344-2.037-5.019-1.092-5.922-3.507-5.922-4.494V-13.9h2.289a17.994,17.994,0,0,1-.8,1.764l2.121.819a26.347,26.347,0,0,0,1.953-4.074l-1.869-.63-.378.126H179.34c.189-.441.378-.882.525-1.323l-2.289-.546a11.337,11.337,0,0,1-3.045,4.83,13.106,13.106,0,0,1,1.89,1.428,13.09,13.09,0,0,0,1.848-2.394H179.8v.336c0,1.029-1.113,3.591-5.9,4.62a12,12,0,0,1,1.176,1.68l-.336.546h-5.775v2.058h4.41c-.651.966-1.3,1.869-1.869,2.583l2.415.735.231-.315c.672.147,1.344.315,1.995.462a32.334,32.334,0,0,1-6.993.861,7.9,7.9,0,0,1,.945,2.184c4.137-.315,7.308-.882,9.681-2.058,2.373.693,4.494,1.407,6.09,2.037L187.4-.231C186-.735,184.17-1.3,182.133-1.869a9.162,9.162,0,0,0,1.974-2.793h3.948V-6.72H177.576c.252-.378.483-.756.714-1.134Z" transform="translate(0.356 163.058)"/>
      <circle id="Ellipse_77" data-name="Ellipse 77" cx="11.633" cy="11.633" r="11.633" transform="translate(179.734 82.666)" opacity="0.1" fill="url(#linear-gradient)"/>
      <circle id="Ellipse_80" data-name="Ellipse 80" cx="6.017" cy="6.017" r="6.017" transform="translate(1.827 37.833)" opacity="0.1" fill="url(#linear-gradient)"/>
      <circle id="Ellipse_79" data-name="Ellipse 79" cx="9.397" cy="9.397" r="9.397" transform="translate(34.224 104.981)" opacity="0.1" fill="url(#linear-gradient)"/>
    </g>
  </g>
</svg>
