<svg xmlns="http://www.w3.org/2000/svg" viewBox="0 0 291 228" width="378" height="296">
	<style>
		tspan { white-space:pre }
		.shp0 { fill: #ffffff } 
		.shp1 { fill: none;stroke: #36d4c2;stroke-width: 0.5;stroke-dasharray: 6 } 
		.shp2 { opacity: 0.996;fill: #eafbf9 } 
		.shp3 { fill: #0995b5 } 
		.shp4 { fill: #000000 } 
		.shp5 { fill: #231f20 } 
		.shp6 { fill: none } 
		.shp7 { fill: #020202 } 
		.shp8 { fill: none;stroke: #004e98;stroke-linecap:round;stroke-width: 1.5 } 
		.shp9 { fill: #004e98;stroke: #004e98;stroke-linejoin:round } 
		.shp10 { fill: #eafbf9 } 
	</style>
	<path id="Layer" class="shp0" d="M10.2 26.6L283.3 26.6C287.6 26.6 291.2 30.1 291.2 34.5L291.2 219C291.2 223.3 287.7 226.9 283.3 226.9L10.2 226.9C5.9 226.9 2.3 223.4 2.3 219L2.3 34.4C2.4 30.1 5.9 26.6 10.2 26.6Z" />
	<path id="Layer" class="shp1" d="M10.2 26.7L283.3 26.7C287.6 26.7 291 30.2 291 34.4L291 218.9C291 223.2 287.5 226.6 283.3 226.6L10.2 226.6C5.9 226.6 2.5 223.1 2.5 218.9L2.5 34.4C2.5 30.2 6 26.7 10.2 26.7Z" />
	<path id="Ellipse_35" class="shp2" d="M206.3 98.5C193.91 98.5 183.9 88.89 183.9 77C183.9 65.11 193.91 55.5 206.3 55.5C218.69 55.5 228.7 65.11 228.7 77C228.7 88.89 218.69 98.5 206.3 98.5Z" />
	<path id="Ellipse_36" class="shp2" d="M243.3 102.7C238.05 102.7 233.8 98.68 233.8 93.7C233.8 88.72 238.05 84.7 243.3 84.7C248.55 84.7 252.8 88.72 252.8 93.7C252.8 98.68 248.55 102.7 243.3 102.7Z" />
	<path id="Ellipse_39" class="shp2" d="M56.8 110.6C42.75 110.6 31.4 99.47 31.4 85.7C31.4 71.93 42.75 60.8 56.8 60.8C70.85 60.8 82.2 71.93 82.2 85.7C82.2 99.47 70.85 110.6 56.8 110.6Z" />
	<path id="Rectangle_813" class="shp0" d="M54.5 0L231.6 0L231.6 46.7L54.5 46.7L54.5 0Z" />
	<path id="Path_998" fill-rule="evenodd" class="shp3" d="M68.1 31L68.1 20.8L70.9 20.8C74 20.8 75.9 22.5 75.9 25.9C75.9 29.3 74 31 71 31L68.1 31ZM70.7 29.4C72.6 29.4 73.8 28.4 73.8 25.9C73.8 23.4 72.6 22.5 70.7 22.5L70.1 22.5L70.1 29.4L70.7 29.4ZM79.3 25.7L76.6 20.8L78.9 20.8L79.9 22.9C80.2 23.4 80.4 23.9 80.7 24.5L80.8 24.5C81.1 23.9 81.3 23.4 81.5 22.9L82.5 20.8L84.6 20.8L81.9 25.8L84.8 31L82.5 31L81.4 28.7C81.1 28.2 80.9 27.6 80.6 27L80.5 27C80.3 27.6 80 28.2 79.8 28.7L78.7 31L76.5 31L79.3 25.7ZM89.1 23.3L90.8 23.3L90.9 24.7L91 24.7C91.6 23.7 92.4 23.1 93.2 23.1C93.5 23.1 93.8 23.2 94.1 23.3L93.7 25C93.4 24.9 93.2 24.9 92.9 24.9C92.3 24.9 91.5 25.3 91.1 26.4L91.1 31L89.1 31L89.1 23.3ZM94.6 27.2C94.6 24.7 96.4 23.1 98.2 23.1C100.3 23.1 101.4 24.7 101.4 26.8C101.4 27.1 101.4 27.4 101.3 27.7L96.5 27.7C96.5 28.8 97.5 29.7 98.6 29.6C99.2 29.6 99.8 29.4 100.3 29.1L101 30.3C100.2 30.9 99.3 31.2 98.3 31.2C96.2 31.2 94.5 29.7 94.6 27.2ZM99.6 26.4C99.6 25.4 99.1 24.7 98.1 24.7C97.3 24.7 96.6 25.3 96.4 26.4L99.6 26.4ZM104.5 31.2C103.3 31.1 102.3 30.1 102.4 28.9C102.4 27.2 103.7 26.3 106.8 26C106.8 25.3 106.5 24.7 105.5 24.7C104.8 24.7 104 25 103.4 25.4L102.7 24.1C103.6 23.5 104.8 23.1 105.9 23.1C107.9 23.1 108.9 24.3 108.9 26.5L108.9 31L107.2 31L107 30.2C106.4 30.8 105.6 31.2 104.7 31.2C104.6 31.2 104.5 31.2 104.5 31.2ZM106.8 28.9L106.8 27.3C104.9 27.5 104.3 28 104.3 28.7C104.3 29.3 104.7 29.6 105.3 29.6C105.9 29.6 106.5 29.3 106.8 28.9ZM110.5 27.2C110.5 24.6 112 23.1 113.7 23.1C114.5 23.1 115.2 23.4 115.7 23.9L115.6 22.7L115.6 20L117.6 20L117.6 31L116 31L115.7 30.2C115.2 30.8 114.4 31.2 113.6 31.2C111.7 31.2 110.5 29.8 110.5 27.2ZM115.6 28.7L115.6 25.3C115.2 24.9 114.7 24.7 114.2 24.7C113.3 24.7 112.6 25.6 112.6 27.1C112.6 28.7 113.2 29.5 114.2 29.5C114.7 29.5 115.3 29.2 115.6 28.7ZM119.5 34.1L119.9 32.5C120 32.6 120.2 32.6 120.4 32.6C121.1 32.6 121.7 32.1 121.8 31.4L121.9 30.9L118.9 23.3L120.9 23.3L122.1 26.9C122.3 27.6 122.5 28.4 122.7 29.1L122.8 29.1C123 28.4 123.2 27.6 123.4 26.9L124.5 23.3L126.4 23.3L123.7 31.2C123 33.1 122.2 34.1 120.5 34.1C120.1 34.1 119.7 34.1 119.5 34.1ZM130 30.2C131.9 29.4 133.5 28.1 134.7 26.6C135.5 25.3 136.1 23.9 136.3 22.4C136.4 21.8 136.5 21.3 136.5 20.7L138.7 21C138.5 21.5 138.4 22.2 138.3 22.6C138 24.3 137.3 25.9 136.4 27.4C135.2 29.2 133.6 30.7 131.6 31.6L130 30.2ZM129.6 20.8C130.3 21.7 131.5 23.8 132 24.8L130.2 25.8C129.6 24.3 128.8 22.9 127.9 21.6L129.6 20.8ZM143.1 20.3L145.1 20.3C145.1 20.6 145.1 25.6 145.1 26C145.1 26.3 145.1 26.9 145.1 27.2L143.1 27.2C143.1 27 143.2 26.4 143.2 26L143.2 21.4C143.2 21.1 143.1 20.7 143.1 20.4L143.1 20.3ZM149.4 20.2L151.4 20.2C151.3 20.6 151.3 21 151.3 21.6L151.3 24.3C151.3 27.3 150.7 28.6 149.7 29.7C148.8 30.6 147.7 31.3 146.4 31.7L145 30.2C146.3 30 147.5 29.4 148.4 28.5C149.3 27.5 149.5 26.4 149.5 24.3L149.5 21.7C149.5 21.2 149.5 20.8 149.4 20.3L149.4 20.2ZM163.8 29.5L164.7 29.5C165.1 29.5 165.7 29.4 166.1 29.4L166.1 31.2C165.8 31.2 157.9 31.2 157.5 31.2C157 31.2 156.6 31.2 156.1 31.2L156.1 29.4C156.6 29.5 157 29.5 157.5 29.5L162 29.5C162.2 28.3 162.5 26.4 162.5 25.6L158.8 25.6C158.3 25.6 157.8 25.7 157.4 25.7L157.4 23.9C157.8 24 158.4 24 158.8 24L162.3 24C162.6 24 163 23.9 163.3 23.8L164.6 24.4C164.6 24.6 164.5 24.8 164.5 25C164.4 25.8 164 28.2 163.8 29.5ZM169.2 24.6C169.7 24.7 170.7 24.7 171.4 24.7L178.8 24.7C179.4 24.7 180 24.6 180.4 24.6L180.4 26.8C180.1 26.8 179.4 26.7 178.8 26.7L171.4 26.7C170.6 26.7 169.7 26.8 169.2 26.8L169.2 24.6ZM185.7 20.1C186.6 20.6 188.1 21.6 188.8 22.1L187.8 23.6C187 23 185.6 22.1 184.7 21.6L185.7 20.1ZM187.7 28.4C190 27.2 191.8 25.4 193.1 23.2L194.2 25.1C192.8 27.1 190.9 28.8 188.7 30C187.3 30.8 185.7 31.4 184.1 31.7L183.1 29.9C184.8 29.6 186.4 29.1 187.7 28.4ZM183.6 23.2C184.5 23.7 186 24.7 186.7 25.2L185.7 26.7C184.7 26 183.7 25.3 182.6 24.7L183.6 23.2ZM206.1 31.2C206.1 31.4 206.1 31.9 206.1 32.1L204.4 32.1C204.4 31.9 204.4 31.7 204.4 31.5C204 31.5 198.2 31.5 198 31.5L198 29.8C198.4 29.9 198.8 29.9 199.2 29.9L204.4 29.9L204.4 28.1C203.9 28.1 198.8 28.1 198.5 28.1L198.5 26.5C198.9 26.5 203.8 26.5 204.3 26.5L204.3 24.8L199.8 24.8C199.3 24.8 198.4 24.9 198.1 24.9L198.1 23.2C198.4 23.3 199.3 23.3 199.8 23.3C200.2 23.3 205.9 23.3 206.1 23.3C206.1 23.5 206.1 30.9 206.1 31.2ZM212.3 20.5C213.6 21.4 214.8 22.4 215.8 23.5L214.4 24.9C213.4 23.8 212.2 22.8 211 21.9L212.3 20.5ZM210.6 29.7C212.4 29.5 214.2 28.8 215.9 28C218 26.7 219.8 24.8 220.9 22.6L222 24.5C220.7 26.6 219 28.4 216.9 29.6C215.3 30.5 213.6 31.2 211.8 31.5L210.6 29.7Z" />
	<path id="Path_980" fill-rule="evenodd" class="shp4" d="M25 122.7L28.8 122.7C29.8 122.7 30.8 122.9 31.7 123.4C32.5 123.9 33.2 124.6 33.7 125.5C34.2 126.4 34.4 127.5 34.4 128.6L34.4 129.2C34.4 130.3 34.2 131.3 33.7 132.2C33.3 133.1 32.6 133.8 31.7 134.3C30.8 134.8 29.8 135 28.8 135L25 135L25 122.7ZM27.6 124.7L27.6 132.9L28.8 132.9C29.7 133 30.5 132.6 31.1 131.9C31.7 131.1 32 130.1 31.9 129.1L31.9 128.5C32 127.5 31.7 126.5 31.1 125.7C30.5 125 29.7 124.7 28.8 124.7L27.6 124.7ZM38.6 134.9L36.2 134.9L36.2 125.8L38.6 125.8L38.6 134.9ZM36.1 123.4C36.1 123.1 36.2 122.7 36.5 122.5C36.8 122.3 37.1 122.1 37.5 122.1C37.9 122.1 38.2 122.2 38.5 122.5C38.7 122.7 38.9 123.1 38.9 123.4C38.9 123.7 38.8 124.1 38.5 124.3C38.2 124.5 37.9 124.7 37.5 124.7C37.1 124.7 36.8 124.6 36.5 124.3C36.2 124.1 36 123.8 36.1 123.4ZM41.3 126.9C41.9 126.1 42.9 125.6 44 125.6C44.9 125.6 45.8 125.9 46.3 126.6L46.4 125.7L48.6 125.7L48.6 134.5C48.6 135.2 48.4 135.9 48.1 136.6C47.7 137.2 47.2 137.7 46.6 137.9C45.9 138.2 45.1 138.4 44.3 138.4C43.6 138.4 43 138.3 42.3 138C41.7 137.8 41.2 137.4 40.9 137L42 135.5C42.5 136.2 43.4 136.5 44.2 136.5C44.8 136.5 45.3 136.3 45.7 136C46.1 135.6 46.3 135.1 46.2 134.5L46.2 134C45.6 134.6 44.8 135 44 135C43 135 42 134.5 41.3 133.7C40.6 132.7 40.2 131.5 40.3 130.3C40.2 129.1 40.6 127.9 41.3 126.9ZM43.2 132.3C43.5 132.8 44 133 44.6 133C45.2 133.1 45.9 132.7 46.2 132.2L46.2 128.4C45.9 127.8 45.3 127.5 44.6 127.6C44 127.6 43.5 127.9 43.2 128.3C42.8 129 42.7 129.7 42.7 130.4C42.7 131.1 42.8 131.8 43.2 132.3ZM53 134.9L50.6 134.9L50.6 125.8L53 125.8L53 134.9ZM50.4 123.4C50.4 123.1 50.5 122.7 50.8 122.5C51.1 122.3 51.4 122.1 51.8 122.1C52.2 122.1 52.5 122.2 52.8 122.5C53 122.7 53.2 123.1 53.2 123.4C53.2 123.7 53.1 124.1 52.8 124.3C52.5 124.5 52.2 124.7 51.8 124.7C51.4 124.7 51.1 124.6 50.8 124.3C50.6 124.1 50.4 123.8 50.4 123.4ZM57.9 123.6L57.9 125.8L59.5 125.8L59.5 127.6L57.9 127.6L57.9 132.1C57.9 132.4 57.9 132.6 58.1 132.8C58.3 133 58.6 133.1 58.8 133C59 133 59.3 133 59.5 132.9L59.5 134.7C59 134.8 58.5 134.9 58 134.9C56.3 134.9 55.4 134 55.4 132.3L55.4 127.4L54.1 127.4L54.1 125.6L55.4 125.6L55.4 123.4L57.9 123.6ZM63.4 134.9L61 134.9L61 125.8L63.4 125.8L63.4 134.9ZM60.8 123.4C60.8 123.1 60.9 122.7 61.2 122.5C61.5 122.3 61.8 122.1 62.2 122.1C62.6 122.1 62.9 122.2 63.2 122.5C63.4 122.7 63.6 123.1 63.6 123.4C63.6 123.7 63.5 124.1 63.2 124.3C62.9 124.5 62.6 124.7 62.2 124.7C61.8 124.7 61.5 124.6 61.2 124.3C61 124.1 60.8 123.8 60.8 123.4ZM68.2 132.9L72.6 132.9L72.6 134.9L65.1 134.9L65.1 133.4L69.4 127.7L65.2 127.7L65.2 125.7L72.5 125.7L72.5 127.1L68.2 132.9ZM79.4 134.9C79.3 134.6 79.2 134.4 79.2 134.1C78.6 134.8 77.8 135.1 76.9 135.1C76.1 135.1 75.3 134.9 74.7 134.3C74.1 133.8 73.8 133.1 73.8 132.3C73.8 131.4 74.2 130.6 74.9 130.1C75.8 129.5 76.9 129.3 78 129.3L79.1 129.3L79.1 128.8C79.1 128.4 79 128.1 78.8 127.8C78.5 127.5 78.2 127.4 77.8 127.4C77.5 127.4 77.1 127.5 76.8 127.7C76.6 127.9 76.4 128.2 76.5 128.5L74 128.5C74 128 74.2 127.5 74.5 127C74.9 126.5 75.3 126.2 75.9 125.9C76.5 125.6 77.2 125.5 77.9 125.5C78.9 125.4 79.8 125.7 80.6 126.3C81.3 126.9 81.6 127.8 81.6 128.7L81.6 132.6C81.6 133.3 81.7 133.9 82 134.6L82 134.7L79.4 134.7L79.4 134.9ZM77.4 133.2C77.7 133.2 78.1 133.1 78.4 133C78.7 132.9 78.9 132.6 79.1 132.4L79.1 130.8L78.2 130.8C77 130.8 76.3 131.2 76.3 132.1L76.3 132.2C76.3 132.5 76.4 132.8 76.6 132.9C76.8 133.1 77.1 133.2 77.4 133.2ZM86.3 125.8L87.9 125.8L87.9 127.6L86.3 127.6L86.3 132.1C86.3 132.4 86.3 132.6 86.5 132.8C86.7 133 87 133.1 87.2 133C87.4 133 87.7 133 87.9 132.9L87.9 134.7C87.4 134.8 86.9 134.9 86.4 134.9C84.7 134.9 83.8 134 83.8 132.3L83.8 127.4L82.5 127.4L82.5 125.6L83.8 125.6L83.8 123.4L86.3 123.4L86.3 125.8ZM91.8 134.9L89.4 134.9L89.4 125.8L91.8 125.8L91.8 134.9ZM89.6 122.5C89.9 122.3 90.2 122.1 90.6 122.1C91 122.1 91.3 122.2 91.6 122.5C91.8 122.7 92 123.1 92 123.4C92 123.7 91.9 124.1 91.6 124.3C91.3 124.5 91 124.7 90.6 124.7C90.2 124.7 89.9 124.6 89.6 124.3C89.3 124.1 89.2 123.8 89.2 123.4C89.2 123.1 89.3 122.7 89.6 122.5ZM93.9 127.9C94.2 127.2 94.7 126.6 95.4 126.3C96.1 125.9 96.9 125.7 97.7 125.7C98.8 125.7 99.9 126.1 100.7 126.8C101.5 127.6 102 128.7 102 129.9L102 130.5C102.1 131.7 101.6 132.9 100.8 133.9C100 134.8 98.8 135.2 97.7 135.2C96.5 135.3 95.4 134.8 94.6 133.9C93.8 133 93.4 131.7 93.4 130.5L93.4 130.3C93.4 129.5 93.6 128.6 93.9 127.9ZM96.3 132.4C96.6 132.9 97.1 133.1 97.7 133.1C98.2 133.1 98.8 132.9 99.1 132.4C99.5 131.7 99.7 131 99.6 130.2C99.6 129.5 99.5 128.8 99.1 128.2C98.8 127.7 98.3 127.5 97.7 127.5C97.2 127.5 96.6 127.7 96.3 128.2C96 128.9 95.8 129.7 95.8 130.4C95.8 131.1 95.9 131.8 96.3 132.4ZM105.8 125.8L105.9 126.9C106.5 126.1 107.5 125.6 108.5 125.7C109.3 125.6 110.1 125.9 110.7 126.5C111.2 127.2 111.5 128.1 111.4 129L111.4 134.9L109 134.9L109 129.1C109 128.7 108.9 128.3 108.7 128C108.4 127.7 108 127.6 107.6 127.7C107 127.7 106.4 128 106.1 128.6L106.1 135L103.7 135L103.7 125.9L105.8 125.9L105.8 125.8Z" />
	<path id="Path_981" class="shp4" d="M31.2 149.8C30.9 149.3 30.7 148.8 30.4 148.4L29.9 148.6C30.2 149.1 30.5 149.5 30.7 150L31.2 149.8ZM28.8 150C29.1 150 29.5 150 29.8 150L29.8 149.1C29.5 149.1 29.2 149.2 28.8 149.2L25.2 149.2C24.9 149.2 24.6 149.2 24.3 149.1L24.3 150C24.6 150 24.9 150 25.3 150L28.8 150ZM24 151.9C23.7 151.9 23.4 151.9 23.1 151.9L23.1 152.7C23.4 152.7 23.7 152.7 24 152.7L27.1 152.7C27.1 153.6 26.9 154.5 26.5 155.3C26 156 25.3 156.6 24.5 156.9L25.3 157.5C26.1 157.1 26.8 156.4 27.3 155.6C27.7 154.7 27.9 153.8 27.9 152.8L30.7 152.8C30.9 152.8 31.3 152.8 31.5 152.8L31.5 152C31.2 152 31 152 30.7 152L24 152L24 151.9ZM30.9 148.2C31.2 148.7 31.5 149.1 31.8 149.6L32.4 149.4C32.1 148.9 31.9 148.4 31.5 148L30.9 148.2ZM40 149.1L39.4 149.3C39.8 149.8 40.1 150.4 40.3 150.9L40.9 150.6C40.6 150.1 40.3 149.6 40 149.1ZM41.3 148.6L40.7 148.8C41.1 149.3 41.4 149.8 41.7 150.4L42.3 150.1C42 149.6 41.7 149.1 41.3 148.6ZM35.5 148.9L35 149.6C35.6 150 36.7 150.7 37.2 151.1L37.7 150.4C37.3 150 36.2 149.2 35.5 148.9ZM34 156.3L34.5 157.1C35.7 156.8 36.8 156.4 37.9 155.8C39.5 154.9 40.8 153.6 41.9 152.1L41.4 151.2C40.4 152.8 39.1 154.1 37.5 155C36.4 155.7 35.2 156.1 34 156.3ZM34 151.2L33.5 151.9C34.3 152.3 35 152.8 35.8 153.3L36.3 152.6C35.8 152.3 34.6 151.6 34 151.2ZM51 149.7C50.8 149.8 50.5 149.8 50.3 149.8L47.5 149.8C47.6 149.7 47.7 149.5 47.7 149.4C47.8 149.2 48 148.9 48.2 148.6L47.3 148.3C47.2 148.6 47.1 148.9 47 149.1C46.2 150.6 45.1 151.8 43.7 152.7L44.4 153.2C45.5 152.5 46.4 151.5 47.1 150.5L50.6 150.5C50.3 151.5 49.9 152.4 49.3 153.3C48.5 152.8 47.6 152.3 47 152L46.5 152.6C47.1 152.9 47.9 153.4 48.8 154C47.7 155.2 46.3 156.1 44.7 156.6L45.4 157.2C47 156.6 48.4 155.7 49.4 154.5C49.8 154.8 50.1 155 50.4 155.2L51 154.5C50.7 154.3 50.4 154.1 50 153.8C50.7 152.9 51.2 151.8 51.5 150.7C51.6 150.5 51.6 150.3 51.7 150.1L51 149.7ZM61.2 148.7C60.4 149.6 59.5 150.4 58.5 151C57.1 151.9 55.5 152.5 53.9 152.9L54.4 153.7C55.7 153.3 57 152.8 58.3 152.1L58.3 156C58.3 156.4 58.3 156.7 58.2 157.1L59.2 157.1C59.2 156.7 59.1 156.4 59.1 156L59.1 151.6C60.1 151 61 150.2 61.9 149.4L61.2 148.7ZM72.1 149.9C71.8 149.4 71.6 148.9 71.3 148.5L70.8 148.7C71.1 149.2 71.4 149.6 71.6 150.1L72.1 149.9ZM67.2 149.9C67.2 149.6 67.2 149.3 67.3 148.9L66.3 148.9C66.3 149.2 66.4 149.5 66.4 149.9L66.4 151.7C65.3 151.9 64.3 152.1 63.9 152.1L64 153C64.4 152.9 65.3 152.7 66.4 152.5L66.4 155.6C66.4 156.6 66.8 157.1 68.7 157.1C69.8 157.1 70.9 157 71.9 156.9L71.9 156C70.8 156.2 69.8 156.3 68.7 156.3C67.5 156.3 67.2 156.1 67.2 155.4L67.2 152.3C69 151.9 70.9 151.5 71.1 151.5C70.6 152.4 70 153.2 69.3 154L70 154.4C70.8 153.5 71.5 152.5 72.1 151.4C72.2 151.3 72.3 151.1 72.4 151L71.8 150.5C71.6 150.6 71.4 150.7 71.3 150.7C70.9 150.8 69 151.2 67.3 151.5L67.2 149.9ZM71.8 148.4C72.1 148.8 72.4 149.3 72.7 149.8L73.3 149.6C73 149.1 72.7 148.6 72.4 148.2L71.8 148.4ZM74.7 153.3C75 153.3 75.6 153.3 76.1 153.3L81.8 153.3C82.3 153.3 82.7 153.3 82.9 153.3L82.9 152.3C82.7 152.3 82.3 152.4 81.8 152.4L76.1 152.4C75.5 152.4 75 152.4 74.7 152.3L74.7 153.3ZM86.9 148.8L86.4 149.5C87 149.9 88.1 150.6 88.6 151L89.1 150.3C88.7 149.9 87.5 149.2 86.9 148.8L86.9 148.8ZM85.4 156.2L85.9 157C87.1 156.7 88.3 156.3 89.3 155.7C90.9 154.8 92.2 153.5 93.3 152L92.8 151.2C91.8 152.8 90.5 154.1 88.9 155C87.7 155.6 86.6 156 85.4 156.2L85.4 156.2ZM85.4 151.1L84.9 151.8C85.7 152.2 86.4 152.7 87.2 153.2L87.7 152.5C87.2 152.2 86 151.5 85.4 151.1ZM102.1 157.3C102.1 157.2 102.1 156.9 102.1 156.7L102.1 151.6C102.1 151.4 102.1 151.2 102.1 151.1C102 151.1 101.7 151.1 101.5 151.1L97.5 151.1C97.2 151.1 96.6 151.1 96.4 151.1L96.4 151.9C96.6 151.9 97.2 151.9 97.5 151.9L101.3 151.9L101.3 153.6L97.6 153.6C97.2 153.6 96.9 153.6 96.7 153.6L96.7 154.4C96.9 154.4 97.3 154.4 97.6 154.4L101.3 154.4L101.3 156.2L97.1 156.2C96.8 156.2 96.5 156.2 96.3 156.2L96.3 157C96.5 157 96.8 157 97.1 157L101.3 157C101.3 157.2 101.3 157.3 101.3 157.4L102.1 157.3ZM106.8 149.2L106.2 149.8C107.1 150.5 108 151.2 108.8 152L109.5 151.3C108.6 150.5 107.7 149.8 106.8 149.2L106.8 149.2ZM105.9 156.1L106.4 156.9C107.8 156.6 109.2 156.1 110.5 155.3C111.9 154.4 113.1 153.1 114 151.6L113.5 150.7C112.7 152.3 111.5 153.6 110 154.5C108.8 155.4 107.4 155.9 105.9 156.1L105.9 156.1Z" />
	<path id="Path_978" fill-rule="evenodd" class="shp4" d="M163.6 122.7L167.4 122.7C168.4 122.7 169.4 122.9 170.3 123.4C171.1 123.9 171.8 124.6 172.3 125.5C172.8 126.4 173 127.5 173 128.6L173 129.2C173 130.3 172.8 131.3 172.3 132.2C171.9 133.1 171.2 133.8 170.3 134.3C169.4 134.8 168.4 135 167.4 135L163.6 135L163.6 122.7ZM166.1 124.7L166.1 132.9L167.3 132.9C168.2 133 169 132.6 169.6 131.9C170.2 131.1 170.5 130.1 170.4 129.1L170.4 128.5C170.5 127.5 170.2 126.5 169.6 125.7C169 125 168.2 124.7 167.3 124.7L166.1 124.7ZM177.1 134.9L174.7 134.9L174.7 125.8L177.1 125.8L177.1 134.9ZM174.6 123.4C174.6 123.1 174.7 122.7 175 122.5C175.3 122.3 175.6 122.1 176 122.1C176.4 122.1 176.7 122.2 177 122.5C177.2 122.7 177.4 123.1 177.4 123.4C177.4 123.7 177.3 124.1 177 124.3C176.7 124.5 176.4 124.7 176 124.7C175.6 124.7 175.3 124.6 175 124.3C174.7 124.1 174.6 123.8 174.6 123.4ZM179.8 126.9C180.4 126.1 181.4 125.6 182.5 125.6C183.4 125.6 184.3 125.9 184.8 126.6L184.9 125.7L187.1 125.7L187.1 134.5C187.1 135.2 186.9 135.9 186.6 136.6C186.2 137.2 185.7 137.7 185.1 137.9C184.4 138.2 183.6 138.4 182.8 138.4C182.1 138.4 181.5 138.3 180.8 138C180.2 137.8 179.7 137.4 179.4 137L180.5 135.5C181 136.2 181.9 136.5 182.7 136.5C183.3 136.5 183.8 136.3 184.2 136C184.6 135.6 184.8 135.1 184.7 134.5L184.7 134C184.1 134.6 183.3 135 182.5 135C181.5 135 180.5 134.5 179.8 133.7C179.1 132.7 178.7 131.5 178.8 130.3C178.7 129.1 179.1 127.9 179.8 126.9ZM181.7 132.3C182 132.8 182.5 133 183.1 133C183.7 133.1 184.4 132.7 184.7 132.2L184.7 128.4C184.4 127.8 183.8 127.5 183.1 127.6C182.5 127.6 182 127.9 181.7 128.3C181.3 129 181.2 129.7 181.2 130.4C181.2 131.1 181.3 131.8 181.7 132.3ZM191.5 134.9L189.1 134.9L189.1 125.8L191.5 125.8L191.5 134.9ZM189 123.4C189 123.1 189.1 122.7 189.4 122.5C189.7 122.3 190 122.1 190.4 122.1C190.8 122.1 191.1 122.2 191.4 122.5C191.6 122.7 191.8 123.1 191.8 123.4C191.8 123.7 191.7 124.1 191.4 124.3C191.1 124.5 190.8 124.7 190.4 124.7C190 124.7 189.7 124.6 189.4 124.3C189.1 124.1 188.9 123.8 189 123.4ZM196.5 123.6L196.5 125.8L198.1 125.8L198.1 127.6L196.5 127.6L196.5 132.1C196.5 132.4 196.5 132.6 196.7 132.8C196.9 133 197.2 133.1 197.4 133C197.6 133 197.9 133 198.1 132.9L198.1 134.7C197.6 134.8 197.1 134.9 196.6 134.9C194.9 134.9 194 134 194 132.3L194 127.4L192.7 127.4L192.7 125.6L194 125.6L194 123.4L196.5 123.6ZM204.6 134.9C204.5 134.6 204.4 134.4 204.4 134.1C203.8 134.8 203 135.1 202.1 135.1C201.3 135.1 200.5 134.9 199.9 134.3C199.3 133.8 199 133.1 199 132.3C199 131.4 199.4 130.6 200.1 130.1C201 129.5 202.1 129.3 203.2 129.3L204.3 129.3L204.3 128.8C204.3 128.4 204.2 128.1 204 127.8C203.7 127.5 203.4 127.4 203 127.4C202.7 127.4 202.3 127.5 202 127.7C201.8 127.9 201.6 128.2 201.7 128.5L199.3 128.5C199.3 128 199.5 127.5 199.8 127C200.2 126.5 200.6 126.2 201.2 125.9C201.8 125.6 202.5 125.5 203.2 125.5C204.2 125.4 205.1 125.7 205.9 126.3C206.6 126.9 206.9 127.8 206.9 128.7L206.9 132.6C206.9 133.3 207 133.9 207.3 134.6L207.3 134.7L204.6 134.7L204.6 134.9ZM202.6 133.2C202.9 133.2 203.3 133.1 203.6 133C203.9 132.9 204.1 132.6 204.3 132.4L204.3 130.8L203.4 130.8C202.2 130.8 201.5 131.2 201.5 132.1L201.5 132.2C201.5 132.5 201.6 132.8 201.8 132.9C202 133.1 202.3 133.2 202.6 133.2ZM211.2 134.9L208.8 134.9L208.8 122L211.2 122L211.2 134.9ZM215.7 134.9L213.3 134.9L213.3 125.8L215.7 125.8L215.7 134.9ZM213.5 122.5C213.8 122.3 214.1 122.1 214.5 122.1C214.9 122.1 215.2 122.2 215.5 122.5C215.7 122.7 215.9 123.1 215.9 123.4C215.9 123.7 215.8 124.1 215.5 124.3C215.2 124.5 214.9 124.7 214.5 124.7C214.1 124.7 213.8 124.6 213.5 124.3C213.3 124.1 213.1 123.8 213.1 123.4C213.1 123.1 213.2 122.7 213.5 122.5ZM220.5 132.9L224.9 132.9L224.9 134.9L217.3 134.9L217.3 133.4L221.6 127.7L217.4 127.7L217.4 125.7L224.7 125.7L224.7 127.1L220.5 132.9ZM231.8 134.9C231.7 134.6 231.6 134.4 231.6 134.1C231 134.8 230.2 135.1 229.3 135.1C228.5 135.1 227.7 134.9 227.1 134.3C226.5 133.8 226.2 133.1 226.2 132.3C226.2 131.4 226.6 130.6 227.3 130.1C228.2 129.5 229.3 129.3 230.4 129.3L231.5 129.3L231.5 128.8C231.5 128.4 231.4 128.1 231.2 127.8C230.9 127.5 230.6 127.4 230.2 127.4C229.9 127.4 229.5 127.5 229.2 127.7C229 127.9 228.8 128.2 228.9 128.5L226.5 128.5C226.5 128 226.7 127.5 227 127C227.4 126.5 227.8 126.2 228.4 125.9C229 125.6 229.7 125.5 230.4 125.5C231.4 125.4 232.3 125.7 233.1 126.3C233.8 126.9 234.1 127.8 234.1 128.7L234.1 132.6C234.1 133.3 234.2 133.9 234.5 134.6L234.5 134.7L231.8 134.7L231.8 134.9ZM229.7 133.2C230 133.2 230.4 133.1 230.7 133C231 132.9 231.2 132.6 231.4 132.4L231.4 130.8L230.5 130.8C229.3 130.8 228.6 131.2 228.6 132.1L228.6 132.2C228.6 132.5 228.7 132.8 228.9 132.9C229.1 133.1 229.4 133.2 229.7 133.2ZM238.6 125.8L240.2 125.8L240.2 127.6L238.6 127.6L238.6 132.1C238.6 132.4 238.6 132.6 238.8 132.8C239 133 239.3 133.1 239.5 133C239.7 133 240 133 240.2 132.9L240.2 134.7C239.7 134.8 239.2 134.9 238.7 134.9C237 134.9 236.1 134 236.1 132.3L236.1 127.4L234.8 127.4L234.8 125.6L236.1 125.6L236.1 123.4L238.6 123.4L238.6 125.8ZM244.1 134.9L241.7 134.9L241.7 125.8L244.1 125.8L244.1 134.9ZM241.5 123.4C241.5 123.1 241.6 122.7 241.9 122.5C242.2 122.3 242.5 122.1 242.9 122.1C243.3 122.1 243.6 122.2 243.9 122.5C244.1 122.7 244.3 123.1 244.3 123.4C244.3 123.7 244.2 124.1 243.9 124.3C243.6 124.5 243.3 124.7 242.9 124.7C242.5 124.7 242.2 124.6 241.9 124.3C241.6 124.1 241.5 123.8 241.5 123.4ZM245.7 130.3C245.7 129.5 245.9 128.6 246.2 127.9C246.5 127.2 247 126.6 247.7 126.3C248.4 125.9 249.2 125.7 250 125.7C251.1 125.7 252.2 126.1 253 126.8C253.8 127.6 254.3 128.7 254.3 129.9L254.3 130.5C254.4 131.7 253.9 132.9 253.1 133.9C252.3 134.8 251.1 135.2 250 135.2C248.8 135.3 247.7 134.8 246.9 133.9C246.1 133 245.7 131.7 245.7 130.5L245.7 130.3ZM248.7 132.4C249 132.9 249.5 133.1 250.1 133.1C250.6 133.1 251.2 132.9 251.5 132.4C251.9 131.7 252.1 131 252 130.2C252 129.5 251.9 128.8 251.5 128.2C251.2 127.7 250.7 127.5 250.1 127.5C249.6 127.5 249 127.7 248.7 128.2C248.3 128.9 248.1 129.7 248.2 130.4C248.2 131.1 248.3 131.8 248.7 132.4ZM258.1 125.8L258.2 126.9C258.8 126.1 259.8 125.6 260.8 125.7C261.6 125.6 262.4 125.9 263 126.5C263.5 127.2 263.8 128.1 263.7 129L263.7 134.9L261.3 134.9L261.3 129.1C261.3 128.7 261.2 128.3 261 128C260.7 127.7 260.3 127.6 259.9 127.7C259.3 127.7 258.7 128 258.4 128.6L258.4 135L256 135L256 125.9L258.1 125.9L258.1 125.8Z" />
	<path id="Path_979" class="shp4" d="M171.2 149.8C170.9 149.3 170.7 148.8 170.4 148.4L169.9 148.6C170.2 149.1 170.5 149.5 170.7 150L171.2 149.8ZM168.8 150C169.1 150 169.5 150 169.8 150L169.8 149.1C169.5 149.1 169.2 149.2 168.8 149.2L165.2 149.2C164.9 149.2 164.6 149.2 164.3 149.1L164.3 150C164.6 150 164.9 150 165.3 150L168.8 150ZM164 151.9C163.7 151.9 163.4 151.9 163.1 151.9L163.1 152.7C163.4 152.7 163.7 152.7 164 152.7L167.1 152.7C167.1 153.6 166.9 154.5 166.5 155.3C166 156 165.3 156.6 164.5 156.9L165.3 157.5C166.1 157.1 166.8 156.4 167.3 155.6C167.7 154.7 167.9 153.8 167.9 152.8L170.7 152.8C170.9 152.8 171.3 152.8 171.5 152.8L171.5 152C171.2 152 171 152 170.7 152L164 152L164 151.9ZM170.9 148.2C171.2 148.7 171.5 149.1 171.8 149.6L172.4 149.4C172.1 148.9 171.9 148.4 171.5 148L170.9 148.2ZM179.9 149.1L179.3 149.3C179.7 149.8 180 150.4 180.2 150.9L180.8 150.6C180.6 150.1 180.3 149.6 179.9 149.1ZM181.3 148.6L180.7 148.8C181.1 149.3 181.4 149.8 181.7 150.4L182.3 150.1C182 149.6 181.7 149.1 181.3 148.6ZM175.5 148.9L175 149.6C175.6 150 176.7 150.7 177.2 151.1L177.7 150.4C177.3 150 176.1 149.2 175.5 148.9ZM174 156.3L174.5 157.1C175.7 156.8 176.8 156.4 177.9 155.8C179.5 154.9 180.8 153.6 181.9 152.1L181.4 151.2C180.4 152.8 179.1 154.1 177.5 155C176.4 155.7 175.2 156.1 174 156.3ZM174 151.2L173.5 151.9C174.3 152.3 175 152.8 175.8 153.3L176.3 152.6C175.8 152.3 174.6 151.6 174 151.2ZM191 149.7C190.8 149.8 190.5 149.8 190.3 149.8L187.5 149.8C187.6 149.7 187.7 149.5 187.7 149.4C187.8 149.2 188 148.9 188.2 148.6L187.3 148.3C187.2 148.6 187.1 148.9 187 149.1C186.2 150.6 185.1 151.8 183.7 152.7L184.4 153.2C185.5 152.5 186.4 151.5 187.1 150.5L190.6 150.5C190.3 151.5 189.9 152.4 189.3 153.3C188.5 152.8 187.6 152.3 187 152L186.5 152.6C187.1 152.9 187.9 153.4 188.8 154C187.7 155.2 186.3 156.1 184.7 156.6L185.4 157.2C187 156.6 188.4 155.7 189.4 154.5C189.8 154.8 190.1 155 190.4 155.2L191 154.5C190.7 154.3 190.4 154.1 190 153.8C190.7 152.9 191.2 151.8 191.5 150.7C191.6 150.5 191.6 150.3 191.7 150.1L191 149.7ZM201.5 151.4C201.3 151.5 201.1 151.5 200.9 151.5L195.5 151.5C195.2 151.5 194.8 151.5 194.5 151.4L194.5 152.3C194.9 152.3 195.3 152.3 195.5 152.3L201 152.3C200.8 153.2 200.4 153.9 199.8 154.6C198.8 155.6 197.5 156.2 196.2 156.5L196.8 157.2C198.2 156.9 199.5 156.1 200.5 155C201.2 154.2 201.7 153.1 202 152.1C202 152 202.1 151.9 202.1 151.8L201.5 151.4ZM195.4 149.9C195.7 149.9 196 149.9 196.3 149.9L200.4 149.9C200.8 149.9 201.1 149.9 201.4 149.9L201.4 149C201.1 149 200.8 149.1 200.5 149.1L196.4 149.1C196.1 149.1 195.8 149.1 195.5 149L195.5 149.9L195.4 149.9ZM211.5 148.7C210.7 149.6 209.8 150.4 208.8 151C207.4 151.9 205.8 152.5 204.2 152.9L204.7 153.7C206 153.3 207.3 152.8 208.6 152.1L208.6 156C208.6 156.4 208.6 156.7 208.5 157.1L209.5 157.1C209.5 156.7 209.4 156.4 209.4 156L209.4 151.6C210.4 151 211.3 150.2 212.2 149.4L211.5 148.7ZM222.4 149.9C222.1 149.4 221.9 148.9 221.6 148.5L221.1 148.7C221.4 149.2 221.7 149.6 221.9 150.1L222.4 149.9ZM217.5 149.9C217.5 149.6 217.5 149.3 217.6 148.9L216.6 148.9C216.6 149.2 216.7 149.5 216.7 149.9L216.7 151.7C215.6 151.9 214.6 152.1 214.2 152.1L214.4 153C214.8 152.9 215.7 152.7 216.8 152.5L216.8 155.6C216.8 156.6 217.2 157.1 219.1 157.1C220.2 157.1 221.3 157 222.3 156.9L222.3 156C221.2 156.2 220.2 156.3 219.1 156.3C217.9 156.3 217.6 156.1 217.6 155.4L217.6 152.3C219.4 151.9 221.3 151.5 221.5 151.5C221 152.4 220.4 153.2 219.7 154L220.4 154.4C221.2 153.5 221.9 152.5 222.5 151.4C222.6 151.3 222.7 151.1 222.8 151L222.2 150.5C222 150.6 221.8 150.7 221.7 150.7C221.3 150.8 219.4 151.2 217.7 151.5L217.7 149.9L217.5 149.9ZM222.1 148.4C222.4 148.8 222.7 149.3 223 149.8L223.6 149.6C223.3 149.1 223 148.6 222.7 148.2L222.1 148.4ZM225 153.3C225.3 153.3 225.9 153.3 226.4 153.3L232.1 153.3C232.6 153.3 233 153.3 233.2 153.3L233.2 152.3C233 152.3 232.6 152.4 232.1 152.4L226.4 152.4C225.8 152.4 225.3 152.4 225 152.3L225 153.3ZM237.2 148.8L236.7 149.5C237.3 149.9 238.4 150.6 238.9 151L239.4 150.3C239 149.9 237.8 149.2 237.2 148.8L237.2 148.8ZM235.7 156.2L236.2 157C237.4 156.7 238.6 156.3 239.6 155.7C241.2 154.8 242.5 153.5 243.6 152L243.1 151.2C242.1 152.8 240.8 154.1 239.2 155C238.1 155.6 236.9 156 235.7 156.2L235.7 156.2ZM235.7 151.1L235.2 151.8C236 152.2 236.7 152.7 237.5 153.2L238 152.5C237.5 152.2 236.3 151.5 235.7 151.1ZM252.5 157.3C252.5 157.2 252.5 156.9 252.5 156.7L252.5 151.6C252.5 151.4 252.5 151.2 252.5 151.1C252.4 151.1 252.1 151.1 251.9 151.1L247.9 151.1C247.6 151.1 247 151.1 246.8 151.1L246.8 151.9C247 151.9 247.6 151.9 247.9 151.9L251.7 151.9L251.7 153.6L248 153.6C247.6 153.6 247.3 153.6 247.1 153.6L247.1 154.4C247.3 154.4 247.7 154.4 248 154.4L251.7 154.4L251.7 156.2L247.5 156.2C247.2 156.2 246.9 156.2 246.7 156.2L246.7 157C246.9 157 247.2 157 247.5 157L251.7 157C251.7 157.2 251.7 157.3 251.7 157.4L252.5 157.3ZM257.1 149.2L256.5 149.8C257.4 150.5 258.3 151.2 259.1 152L259.8 151.3C258.9 150.5 258.1 149.8 257.1 149.2L257.1 149.2ZM256.2 156.1L256.7 156.9C258.1 156.6 259.5 156.1 260.8 155.3C262.2 154.4 263.4 153.1 264.3 151.6L263.8 150.7C263 152.3 261.8 153.6 260.3 154.5C259.1 155.4 257.7 155.9 256.2 156.1L256.2 156.1Z" />
	<path id="Path_621" class="shp5" d="M194 104.5L193.3 103.8L220.6 76.5L232.6 88.5L243.1 79L243.8 79.7L232.6 89.9L220.6 77.9L194 104.5Z" />
	<path id="Path_622" class="shp5" d="M203.9 104.8L203.2 104.1L221.8 85.5L233.8 97.5L244.3 88L245 88.7L233.8 98.9L221.8 86.9L203.9 104.8Z" />
	<g id="Group_505">
		<g id="Group_504">
			<path id="Ellipse_38" class="shp6" d="M194.1 92.53C188.85 92.53 184.6 88.28 184.6 83.03C184.6 77.78 188.85 73.53 194.1 73.53C199.35 73.53 203.6 77.78 203.6 83.03C203.6 88.28 199.35 92.53 194.1 92.53Z" />
			<path id="Path_623" fill-rule="evenodd" class="shp5" d="M194.1 93.03C188.6 93.03 184.1 88.53 184.1 83.03C184.1 77.53 188.6 73.03 194.1 73.03C199.6 73.03 204.1 77.53 204.1 83.03C204.1 88.53 199.6 93.03 194.1 93.03ZM194.1 74.03C189.1 74.03 185.1 78.03 185.1 83.03C185.1 88.03 189.1 92.03 194.1 92.03C199.1 92.03 203.1 88.03 203.1 83.03C203.1 78.03 199 74.03 194.1 74.03Z" />
		</g>
	</g>
	<g id="Group_506">
		<path id="Path_624" class="shp0" d="M235.78 80.63L237.48 72.43L229.28 74.13L231.28 76.13L227.58 79.83L230.08 82.33L233.78 78.63L235.78 80.63Z" />
		<path id="Path_625" fill-rule="evenodd" class="shp7" d="M230.19 82.73C230.08 82.73 229.88 82.63 229.88 82.63L227.38 80.13C227.19 79.93 227.19 79.63 227.38 79.43L230.69 76.13L229.08 74.53C228.88 74.33 228.88 74.03 229.08 73.83C229.19 73.73 229.28 73.73 229.28 73.73L237.48 72.03C237.78 71.93 237.98 72.13 238.08 72.43C238.08 72.53 238.08 72.53 238.08 72.63L236.38 80.83C236.38 81.03 236.19 81.13 236.08 81.23C235.88 81.33 235.68 81.23 235.58 81.13L233.98 79.53L230.68 82.83C230.49 82.73 230.28 82.73 230.19 82.73ZM228.28 79.73L230.19 81.63L233.49 78.33C233.69 78.13 233.99 78.13 234.19 78.33L235.49 79.63L236.88 73.03L230.29 74.43L231.59 75.73C231.79 75.93 231.79 76.23 231.59 76.43L228.28 79.73Z" />
	</g>
	<path id="Path_626" class="shp5" d="M209.2 77.8L209.2 77.8C208.8 77.8 208.5 77.8 208.2 77.7L208.4 76.7C208.6 76.8 208.9 76.8 209.1 76.8L209.2 76.8L209.2 77.8L209.2 77.8ZM211.4 77.2L210.9 76.4C211.1 76.3 211.4 76.1 211.6 75.9L212.3 76.6C212 76.8 211.7 77 211.4 77.2ZM206.3 76.7C206 76.5 205.8 76.2 205.6 75.9L206.4 75.4C206.6 75.6 206.7 75.9 207 76L206.3 76.7ZM213.4 74.6L212.5 74.4C212.6 74.1 212.6 73.8 212.6 73.6C212.6 73.5 212.6 73.3 212.6 73.2L213.6 73.1C213.6 73.3 213.6 73.5 213.6 73.6C213.5 73.9 213.5 74.3 213.4 74.6ZM204.9 73.8C204.9 73.7 204.9 73.6 204.9 73.5C204.9 73.2 204.9 72.9 205 72.7L206 72.9C206 73.1 205.9 73.3 205.9 73.5C205.9 73.6 205.9 73.6 205.9 73.7L204.9 73.8ZM211.9 71.6C211.7 71.4 211.5 71.2 211.3 71L211.9 70.2C212.2 70.4 212.4 70.7 212.7 71L211.9 71.6ZM206.7 71.4L206 70.8C206.2 70.5 206.5 70.3 206.8 70.1L207.4 70.9C207.1 71 206.9 71.2 206.7 71.4ZM209.7 70.3C209.4 70.3 209.1 70.2 208.9 70.3L208.8 69.3C209.2 69.3 209.5 69.3 209.9 69.3L209.7 70.3Z" />
	<g id="Group_507">
		<path id="Path_627" class="shp5" d="M250.45 87.28L249.45 87.28L249.45 83.48L245.65 83.48L245.65 82.48L250.35 82.48L250.35 87.28L250.45 87.28Z" />
		<path id="Rectangle_377" class="shp5" d="M246.04 86.32L249.64 82.71L250.35 83.42L246.74 87.02L246.04 86.32Z" />
	</g>
	<g id="Group_508">
		<path id="Path_628" class="shp5" d="M249.96 77.05L248.96 77.05L248.96 73.25L245.16 73.25L245.16 72.25L249.86 72.25L249.86 77.05L249.96 77.05Z" />
		<path id="Rectangle_378" class="shp5" d="M245.56 76.09L249.16 72.48L249.87 73.19L246.27 76.79L245.56 76.09Z" />
	</g>
	<path id="Rectangle_379" class="shp5" d="M221.9 95.9L224.8 95.9L224.8 96.9L221.9 96.9L221.9 95.9Z" />
	<path id="Path_624-2" class="shp6" d="M196.6 86.3L198.3 78.1L190.1 79.8L192.1 81.8L188.4 85.5L190.9 88L194.6 84.3L196.6 86.3Z" />
	<path id="Path_625-2" fill-rule="evenodd" class="shp7" d="M190.9 88.5C190.8 88.5 190.6 88.4 190.6 88.4L188.1 85.9C187.9 85.7 187.9 85.4 188.1 85.2L191.4 81.9L189.8 80.3C189.6 80.1 189.6 79.8 189.8 79.6C189.9 79.5 190 79.5 190 79.5L198.2 77.8C198.5 77.7 198.7 77.9 198.8 78.2C198.8 78.3 198.8 78.3 198.8 78.4L197.1 86.6C197.1 86.8 196.9 86.9 196.8 87C196.6 87.1 196.4 87 196.3 86.9L194.7 85.3L191.4 88.6C191.2 88.4 191.1 88.5 190.9 88.5ZM189.1 85.4L191 87.3L194.3 84C194.5 83.8 194.8 83.8 195 84L196.3 85.3L197.7 78.7L191.1 80.1L192.4 81.4C192.6 81.6 192.6 81.9 192.4 82.1L189.1 85.4Z" />
	<g id="Group_487">
		<g id="Group_486">
			<g id="Group_483">
				<path id="Path_598" class="shp6" d="M101.21 81C101.21 91.4 92.81 99.8 82.41 99.8C72.01 99.8 63.61 91.4 63.61 81C63.61 70.6 72.01 62.2 82.41 62.2L82.41 62.2C92.81 62.2 101.21 70.6 101.21 81Z" />
				<path id="Path_599" fill-rule="evenodd" class="shp5" d="M82.41 100.2C71.81 100.2 63.21 91.6 63.21 81C63.21 70.4 71.81 61.8 82.41 61.8C93.01 61.8 101.61 70.4 101.61 81C101.61 91.6 93.01 100.2 82.41 100.2ZM64.01 81C64.01 91.2 72.21 99.4 82.41 99.4C92.61 99.4 100.81 91.2 100.81 81C100.81 70.9 92.61 62.6 82.41 62.6C72.21 62.6 64.01 70.9 64.01 81Z" />
			</g>
			<g id="Group_484">
				<path id="Path_600" class="shp6" d="M95.2 81C95.2 91.4 89.5 99.8 82.41 99.8C75.31 99.8 69.61 91.4 69.61 81C69.61 70.6 75.31 62.2 82.41 62.2C89.5 62.2 95.2 70.6 95.2 81Z" />
				<path id="Path_601" fill-rule="evenodd" class="shp5" d="M82.41 100.2C75.11 100.2 69.2 91.6 69.2 81C69.2 75.9 70.6 71.1 73 67.5C75.5 63.8 78.8 61.8 82.41 61.8C89.7 61.8 95.6 70.4 95.6 81C95.61 91.6 89.7 100.2 82.41 100.2ZM73.7 67.9C71.31 71.4 70 76 70 81C70 91.1 75.6 99.4 82.41 99.4C89.2 99.4 94.8 91.1 94.8 81C94.81 70.9 89.2 62.6 82.41 62.6C79.11 62.6 76 64.5 73.7 67.9Z" />
			</g>
			<g id="Group_485">
				<path id="Path_602" class="shp0" d="M87.26 81C87.26 91.4 85.16 99.8 82.46 99.8C79.76 99.8 77.66 91.4 77.66 81C77.66 70.6 79.76 62.2 82.46 62.2C85.06 62.2 87.26 70.6 87.26 81Z" />
				<path id="Path_603" fill-rule="evenodd" class="shp5" d="M78.66 94.4C77.76 90.8 77.26 86.1 77.26 81C77.26 75.9 77.66 71.2 78.66 67.6C79.36 64.9 80.56 61.8 82.46 61.8C84.36 61.8 85.56 65 86.26 67.6C87.16 71.2 87.66 76 87.66 81C87.66 86 87.16 90.8 86.26 94.4C85.56 97.1 84.36 100.2 82.46 100.2C80.56 100.2 79.36 97 78.66 94.4ZM79.36 67.8C78.46 71.3 77.96 76 77.96 81C77.96 91.8 80.26 99.4 82.36 99.4C84.46 99.4 86.76 91.8 86.76 81C86.76 70.2 84.46 62.6 82.36 62.6C81.26 62.6 80.16 64.5 79.36 67.8Z" />
			</g>
		</g>
		<path id="Path_604" class="shp5" d="M82.31 71.1C77.41 71.1 72.41 70.7 67.51 69.9C67.31 69.9 67.11 69.7 67.21 69.4C67.21 69.2 67.41 69 67.71 69.1L67.71 69.1C72.61 69.9 77.51 70.3 82.41 70.3C87.31 70.3 92.31 69.9 97.11 69.1C97.31 69.1 97.51 69.2 97.61 69.4L97.61 69.4C97.61 69.6 97.51 69.8 97.31 69.9C92.31 70.7 87.41 71.1 82.31 71.1L82.31 71.1Z" />
		<path id="Path_605" class="shp5" d="M67.61 93.1C67.41 93.1 67.21 92.9 67.21 92.7C67.21 92.5 67.31 92.3 67.51 92.3C72.41 91.5 77.41 91.1 82.41 91.1C87.41 91.1 92.31 91.5 97.31 92.3C97.51 92.3 97.71 92.6 97.61 92.8C97.61 93 97.41 93.1 97.21 93.1C92.31 92.3 87.41 91.9 82.51 91.9L82.51 91.9C77.51 91.9 72.61 92.3 67.61 93.1C67.71 93.1 67.71 93.1 67.61 93.1Z" />
		<path id="Path_606" class="shp5" d="M63.61 81.4C63.41 81.4 63.21 81.2 63.21 81C63.21 80.8 63.41 80.6 63.61 80.6L101.21 80.6L101.21 80.6C101.41 80.6 101.61 80.8 101.61 81C101.61 81.2 101.41 81.4 101.21 81.4L63.61 81.4Z" />
	</g>
	<path id="Path_607" class="shp0" d="M66 93.3L56.2 93.3L54.5 98.7L67.6 98.7L66 93.3Z" />
	<path id="Path_608" fill-rule="evenodd" class="shp7" d="M68.2 99L54 99L55.9 92.9L66.3 92.9L68.2 99ZM55.1 98.2L67.1 98.2L65.7 93.7L56.5 93.7L55.1 98.2Z" />
	<path id="Path_609" class="shp0" d="M69.3 98.9C69.3 99.3 69 99.6 68.6 99.6L68.6 99.6L54.2 99.6C53.8 99.6 53.5 99.3 53.5 98.9L53.5 98.9L53.5 98.9C53.5 98.5 53.8 98.2 54.2 98.2L68.6 98.2C69 98.1 69.3 98.5 69.3 98.9Z" />
	<path id="Path_610" fill-rule="evenodd" class="shp7" d="M68.6 100L54.2 100C53.6 100 53.1 99.5 53.1 98.9C53.1 98.3 53.6 97.8 54.2 97.8L68.6 97.8C69.2 97.8 69.7 98.3 69.7 98.9C69.7 99.5 69.2 100 68.6 100ZM54.2 98.5C54 98.5 53.9 98.7 53.9 98.8C53.9 99 54.1 99.1 54.2 99.1L68.6 99.1C68.8 99.1 68.9 98.9 68.9 98.8C68.9 98.6 68.7 98.5 68.6 98.5L54.2 98.5Z" />
	<path id="Rectangle_373" class="shp0" d="M42.6 68L80.2 68C81.1 68 81.9 68.8 81.9 69.7L81.9 69.7L81.9 92.1C81.9 93 81.1 93.8 80.2 93.8L42.6 93.8C41.7 93.8 40.9 93 40.9 92.1L40.9 69.7C40.9 68.8 41.6 68 42.6 68L42.6 68Z" />
	<path id="Path_611" fill-rule="evenodd" class="shp7" d="M80.5 94.2L42.2 94.2C41.2 94.2 40.4 93.4 40.4 92.4L40.4 69.4C40.4 68.4 41.2 67.6 42.2 67.6L80.5 67.6C81.5 67.6 82.3 68.4 82.3 69.4L82.3 92.5C82.3 93.4 81.5 94.2 80.5 94.2ZM42.2 68.4C41.7 68.4 41.2 68.8 41.2 69.4L41.2 92.5C41.2 93 41.6 93.5 42.2 93.5L80.5 93.5C81 93.5 81.5 93.1 81.5 92.5L81.5 69.4C81.5 68.9 81.1 68.4 80.5 68.4L42.2 68.4Z" />
	<path id="Line_68" class="shp6" d="M40.9 89.5L81.9 89.5" />
	<path id="Rectangle_374" class="shp7" d="M40.9 89.1L81.9 89.1L81.9 89.9L40.9 89.9L40.9 89.1Z" />
	<path id="Rectangle_375" class="shp0" d="M42.8 70L79.9 70L79.9 88.2L42.8 88.2L42.8 70Z" />
	<path id="Path_612" fill-rule="evenodd" class="shp7" d="M42.4 88.6L42.4 69.6L80.3 69.6L80.3 88.6L42.4 88.6ZM43.2 87.8L79.5 87.8L79.5 70.4L43.2 70.4L43.2 87.8Z" />
	<path id="Line_69" class="shp6" d="M58.1 91.4L64.7 91.4" />
	<path id="Rectangle_376" class="shp7" d="M58.1 91L64.7 91L64.7 91.8L58.1 91.8L58.1 91Z" />
	<path id="Path_613" class="shp0" d="M50.5 83.9L58.4 76L64.4 82L73.3 73.1" />
	<path id="Path_614" class="shp7" d="M50.8 84.2L50.2 83.6L58.4 75.4L64.4 81.4L73 72.8L73.6 73.4L64.4 82.6L58.4 76.6L50.8 84.2Z" />
	<path id="Path_615" class="shp0" d="M59.6 76C59.6 76.6 59.1 77.2 58.4 77.2C57.8 77.2 57.2 76.7 57.2 76C57.2 75.4 57.7 74.8 58.4 74.8L58.4 74.8C59.1 74.8 59.6 75.3 59.6 76L59.6 76Z" />
	<path id="Path_616" fill-rule="evenodd" class="shp7" d="M58.5 77.5C57.6 77.5 56.9 76.8 56.9 75.9C56.9 75 57.6 74.3 58.5 74.3C59.4 74.3 60.1 75 60.1 75.9C60 76.8 59.3 77.5 58.5 77.5ZM58.5 75.2C58.1 75.2 57.7 75.5 57.7 76C57.7 76.4 58 76.8 58.5 76.8C58.9 76.8 59.3 76.5 59.3 76C59.2 75.6 58.9 75.2 58.5 75.2Z" />
	<path id="Path_617" class="shp0" d="M74.1 73.3C74.1 73.9 73.6 74.5 72.9 74.5C72.2 74.5 71.7 74 71.7 73.3C71.7 72.7 72.2 72.1 72.9 72.1L72.9 72.1C73.6 72.1 74.1 72.6 74.1 73.3L74.1 73.3Z" />
	<path id="Path_618" fill-rule="evenodd" class="shp7" d="M72.9 74.8C72 74.8 71.3 74.1 71.3 73.2C71.3 72.3 72 71.6 72.9 71.6C73.8 71.6 74.5 72.3 74.5 73.2C74.5 74.1 73.8 74.8 72.9 74.8ZM72.1 73.3C72.1 73.7 72.4 74.1 72.9 74.1C73.3 74.1 73.7 73.8 73.7 73.3C73.7 72.9 73.4 72.5 72.9 72.5C72.5 72.5 72.1 72.8 72.1 73.3Z" />
	<path id="Path_619" class="shp0" d="M52.1 83.7C52.1 84.3 51.6 84.9 50.9 84.9C50.2 84.9 49.7 84.4 49.7 83.7C49.7 83.1 50.2 82.5 50.9 82.5L50.9 82.5C51.6 82.5 52.1 83.1 52.1 83.7Z" />
	<path id="Path_620" fill-rule="evenodd" class="shp7" d="M50.9 85.2C50 85.2 49.3 84.5 49.3 83.6C49.3 82.7 50 82 50.9 82C51.8 82 52.5 82.7 52.5 83.6C52.5 84.6 51.8 85.2 50.9 85.2ZM50.9 82.9C50.5 82.9 50.1 83.2 50.1 83.7C50.1 84.2 50.4 84.5 50.9 84.5C51.4 84.5 51.7 84.2 51.7 83.7C51.7 83.3 51.4 82.9 50.9 82.9Z" />
	<path id="Path_629" fill-rule="evenodd" class="shp5" d="M67.2 62.5C66.4 62.5 65.7 61.8 65.7 61C65.7 60.2 66.4 59.5 67.2 59.5C68 59.5 68.7 60.2 68.7 61C68.7 61.9 68 62.5 67.2 62.5ZM66.5 61C66.5 61.4 66.8 61.7 67.2 61.7C67.6 61.7 67.9 61.4 67.9 61C67.9 60.6 67.6 60.3 67.2 60.3C66.8 60.3 66.5 60.6 66.5 61Z" />
	<path id="Rectangle_380" class="shp0" d="M94.81 101.16L96.86 99.11L98.92 101.16L96.86 103.21L94.81 101.16Z" />
	<path id="Path_630" fill-rule="evenodd" class="shp7" d="M96.9 103.7L94.3 101.1L96.9 98.5L99.5 101.1L96.9 103.7ZM95.4 101.1L96.9 102.6L98.4 101.1L96.9 99.6L95.4 101.1Z" />
	<path id="Rectangle_381" class="shp7" d="M54.52 62.54L56.57 60.49L58.62 62.54L56.57 64.59L54.52 62.54Z" />
	<path id="Path_632" class="shp5" d="M49.9 100.2L42.3 100.2C42.1 100.2 41.9 100 41.9 99.8C41.9 99.6 42.1 99.4 42.3 99.4L49.9 99.4C50.1 99.4 50.3 99.6 50.3 99.8C50.3 100 50.1 100.2 49.9 100.2L49.9 100.2Z" />
	<path id="Path_633" class="shp5" d="M105.2 94.7L99.3 94.7C99.1 94.7 98.9 94.5 98.9 94.3C98.9 94.1 99.1 93.9 99.3 93.9L105.2 93.9C105.4 93.9 105.6 94.1 105.6 94.3C105.6 94.5 105.4 94.7 105.2 94.7L105.2 94.7L105.2 94.7Z" />
	<path id="Path_634" class="shp5" d="M47.9 65.3L47.1 65.3L47.1 64.5L47.9 64.5L47.9 65.3ZM45.6 65.3L44.8 65.3L44.8 64.5L45.6 64.5L45.6 65.3ZM43.3 65.3L42.5 65.3L42.5 64.5L43.3 64.5L43.3 65.3ZM41 65.3L40.2 65.3L40.2 64.5L41 64.5L41 65.3ZM38.6 65.3L37.8 65.3L37.8 64.5L38.6 64.5L38.6 65.3ZM36.3 65.3L35.5 65.3L35.5 64.5L36.3 64.5L36.3 65.3Z" />
	<path id="Rectangle_385" class="shp5" d="M79 58.8L90.6 58.8L90.6 59.6L79 59.6L79 58.8Z" />
	<path id="Line_71" class="shp8" d="M135.1 130.2L148 130.2" />
	<path id="Line_72" class="shp8" d="M132 130.2L133.5 130.2" />
	<path id="Polygon_1" class="shp9" d="M148.4 130.2L146.1 132.5L146.1 127.9L148.4 130.2Z" />
	<path id="Rectangle_812" class="shp10" d="M2.4 174.7L291.2 174.7L291.2 174.7L291.2 219C291.2 223.3 287.7 226.9 283.3 226.9L10.2 226.9C5.9 226.9 2.3 223.4 2.3 219L2.3 174.7L2.4 174.7Z" />
	<path id="Path_999" class="shp3" d="M109 196.3C108.6 195.6 108.3 194.9 107.8 194.3L106.6 194.8C107 195.5 107.4 196.1 107.8 196.8L109 196.3ZM107.2 197C106.9 196.5 106.4 195.5 106 195L104.8 195.5C105.2 196.2 105.6 196.8 106 197.6L107.2 197ZM103.6 197.8C104.1 197.8 104.7 197.8 105.2 197.8L105.2 196C104.7 196.1 104.1 196.1 103.6 196.1L98.8 196.1C98.3 196.1 97.7 196.1 97.2 196L97.2 197.9C97.6 197.9 98.3 197.9 98.8 197.9L103.6 197.9L103.6 197.8ZM96.9 199.9C96.4 199.9 96 199.9 95.5 199.8L95.5 201.7C95.9 201.7 96.5 201.6 96.9 201.6L101 201.6C101 202.8 100.7 203.9 100.1 204.9C99.4 205.8 98.5 206.6 97.4 207L99.1 208.3C100.3 207.7 101.4 206.7 102.1 205.5C102.7 204.3 103 203 103 201.7L106.6 201.7C107 201.7 107.6 201.7 107.9 201.7L107.9 199.8C107.5 199.9 107 199.9 106.6 199.9L96.9 199.9ZM119.9 195.8L118.7 196.3C119.2 197 119.6 197.8 120 198.6L121.3 198.1C120.8 197.3 120.4 196.5 119.9 195.8ZM121.9 195.1L120.6 195.6C121.1 196.3 121.6 197.1 122 197.8L123.3 197.2C122.9 196.5 122.4 195.8 121.9 195.1ZM113.5 195.5L112.4 197.1C113.4 197.6 114.9 198.6 115.7 199.2L116.8 197.6C116.1 197.1 114.5 196 113.5 195.5ZM110.8 206L111.9 207.9C113.6 207.5 115.3 206.9 116.8 206.1C119.1 204.8 121.1 203 122.7 200.8L121.6 198.8C120.2 201.1 118.2 203 115.9 204.3C114.2 205.2 112.5 205.7 110.8 206ZM111.2 198.9L110.1 200.5C111.1 201 112.6 202 113.5 202.6L114.6 200.9C113.8 200.4 112.2 199.4 111.2 198.9ZM135.4 196.8C135 196.9 134.5 197 134.1 197L131.1 197L131.1 197C131.3 196.7 131.7 196 132 195.5L129.9 194.8C129.7 195.3 129.5 195.9 129.2 196.3C128.1 198.3 126.5 200 124.5 201.2L126.1 202.4C127.6 201.3 128.9 200.1 130 198.6L134.2 198.6C133.9 199.7 133.3 200.8 132.7 201.7C131.7 201.1 130.7 200.5 129.9 200.2L128.6 201.6C129.4 202 130.4 202.6 131.4 203.3C129.9 204.9 128 206 125.9 206.6L127.6 208.1C129.7 207.3 131.5 206.1 133 204.4C133.5 204.7 133.9 205.1 134.4 205.4L135.7 203.7C135.3 203.4 134.8 203.1 134.3 202.8C135.2 201.5 135.8 200.2 136.3 198.8C136.4 198.4 136.6 198.1 136.8 197.8L135.4 196.8ZM140.8 207.8C142.1 206.7 143 205.2 143.4 203.6C143.8 202.1 143.8 199 143.8 197.3C143.8 196.9 143.8 196.4 143.9 196L141.7 196C141.8 196.4 141.8 196.9 141.8 197.3C141.8 199.1 141.8 201.9 141.4 203.1C141 204.5 140.1 205.7 138.9 206.6L140.8 207.8ZM147 207.8C147.2 207.6 147.4 207.5 147.6 207.4C149.5 206.4 151.2 205 152.6 203.4L151.5 201.8C150.6 203.1 149.3 204.2 147.9 204.9L147.9 197.2C147.9 196.8 147.9 196.3 148 195.9L145.8 195.9C145.9 196.3 145.9 196.7 145.9 197.2L145.9 205.8C145.9 206.2 145.9 206.5 145.8 206.9L147 207.8ZM157.7 195.4L156.6 197C157.6 197.5 159.1 198.5 159.9 199.1L161 197.5C160.3 197 158.7 196 157.7 195.4ZM154.9 205.9L156 207.8C157.7 207.4 159.4 206.8 160.9 206C163.2 204.7 165.2 202.9 166.8 200.7L165.7 198.7C164.3 201 162.3 202.9 160 204.2C158.4 205.1 156.7 205.6 154.9 205.9ZM155.4 198.8L154.3 200.4C155.5 201 156.6 201.7 157.7 202.5L158.8 200.8C158 200.4 156.4 199.3 155.4 198.8ZM179.6 196.4C179.2 196.5 178.8 196.5 178.4 196.5L171.6 196.5C171.1 196.5 170.3 196.4 169.8 196.4L169.8 198.5C170.2 198.5 170.9 198.4 171.6 198.4L178.5 198.4C178.3 199.9 177.7 201.3 176.8 202.6C175.6 204.1 173.9 205.4 171 206.1L172.6 207.9C175 207.2 177 205.8 178.5 203.8C179.7 202.2 180.4 199.9 180.7 198.4C180.8 198 180.9 197.7 181 197.4L179.6 196.4ZM195.5 201.7C193.5 200.8 191.4 200 189.3 199.4L189.3 197.2C189.3 196.6 189.4 196 189.4 195.4L187.1 195.4C187.2 196 187.3 196.6 187.2 197.2L187.2 205.7C187.2 206.4 187.1 207.1 187.1 207.8L189.4 207.8C189.3 207.2 189.3 206.2 189.3 205.7L189.3 201.5C191.1 202.1 192.9 202.8 194.6 203.7L195.5 201.7Z" />
</svg>