<svg xmlns="http://www.w3.org/2000/svg" xmlns:xlink="http://www.w3.org/1999/xlink" width="203.644" height="168.328" viewBox="0 0 203.644 168.328">
  <defs>
    <linearGradient id="linear-gradient" y1="0.5" x2="1" y2="0.5" gradientUnits="objectBoundingBox">
      <stop offset="0" stop-color="#16bff2"/>
      <stop offset="1" stop-color="#0072dd"/>
    </linearGradient>
  </defs>
  <g id="组_983" data-name="组 983" transform="translate(-959.598 -1951.73)">
    <text id="お客様のなりたい姿" transform="translate(959.598 2113.058)" font-size="21" font-family="NotoSansCJKjp-Bold, Noto Sans CJK JP" font-weight="700"><tspan x="0" y="0">お客様のなりたい姿</tspan></text>
    <g id="组_604" data-name="组 604" transform="translate(984.525 1983.238)">
      <g id="组_556" data-name="组 556" transform="translate(25.131 16.519)">
        <g id="组_547" data-name="组 547" transform="translate(9.108 0)">
          <path id="路径_685" data-name="路径 685" d="M653.521,177.729l2.29-.081q.039,1.114.148,2.211l-2.28.226Q653.564,178.918,653.521,177.729Zm.049-3.546c.049-.785.124-1.576.223-2.353l2.272.29q-.139,1.092-.208,2.2Zm.633,9.409,2.246-.45q.218,1.091.506,2.156l-2.212.6C654.539,185.14,654.357,184.365,654.2,183.592Zm.211-15.254c.175-.764.378-1.534.6-2.286l2.194.657q-.316,1.056-.565,2.141Zm1.421,20.932,2.143-.809q.392,1.037.849,2.039l-2.083.951C656.416,190.734,656.11,190,655.835,189.27Zm.368-26.561c.3-.723.624-1.451.971-2.158l2.058,1.006q-.487.993-.91,2.023Zm2.168,31.894,1.981-1.15q.558.96,1.173,1.876l-1.9,1.277C659.185,195.954,658.764,195.28,658.371,194.6Zm.518-37.158c.414-.67.855-1.333,1.31-1.972l1.865,1.331q-.642.9-1.226,1.844Zm2.853,42,1.769-1.456q.7.855,1.462,1.664l-1.669,1.568C662.769,200.655,662.243,200.058,661.742,199.449Zm.653-46.76c.515-.592,1.057-1.175,1.61-1.73l1.626,1.612q-.78.787-1.508,1.623Zm3.459,51,1.509-1.725q.832.73,1.713,1.406l-1.4,1.817Q666.743,204.468,665.854,203.689Zm.768-55.121c.607-.5,1.236-.99,1.87-1.448l1.342,1.857q-.9.649-1.751,1.356Zm3.977,58.638,1.21-1.946q.94.586,1.92,1.11l-1.08,2.02C671.957,208.019,671.268,207.62,670.6,207.206Zm.863-62.023c.681-.4,1.38-.777,2.078-1.124l1.023,2.049q-.991.494-1.946,1.053Zm4.393,64.723.875-2.116q1.021.421,2.076.779l-.735,2.171C677.333,210.489,676.587,210.209,675.856,209.906Zm.931-67.273c.725-.277,1.477-.537,2.236-.77l.675,2.188q-1.061.328-2.093.722Zm4.7,69.079.517-2.232q1.074.249,2.173.429l-.37,2.262C683.025,212.041,682.245,211.887,681.485,211.711Zm.977-70.725c.771-.155,1.555-.289,2.332-.394l.307,2.271q-1.1.149-2.184.369Zm4.865,71.584.146-2.286q1.1.07,2.216.07v2.291Q688.5,212.644,687.327,212.569Zm1-72.279q.678-.027,1.363-.026.5,0,1,.014l-.063,2.291c-.312-.01-.625-.014-.938-.014-.427,0-.853.008-1.276.024Zm1.706,70.061q1.116-.011,2.215-.093l.169,2.285q-1.17.087-2.361.1Zm3.908-67.532.284-2.272c.784.1,1.57.222,2.337.371l-.435,2.249C695.409,143.027,694.673,142.911,693.94,142.819Zm1.6,67.03q1.1-.189,2.167-.45l.54,2.226c-.765.186-1.544.348-2.316.482Zm3.811-65.9.653-2.2c.75.224,1.505.476,2.244.749l-.8,2.148Q700.419,144.269,699.354,143.953Zm1.541,64.5q1.047-.367,2.061-.8l.9,2.107c-.718.306-1.458.592-2.2.853Zm3.614-62.5,1-2.058c.709.345,1.413.718,2.092,1.106l-1.136,1.988Q705.507,146.444,704.509,145.956Zm1.436,60.252q.973-.532,1.906-1.126l1.228,1.933c-.661.421-1.346.825-2.034,1.2Zm3.325-57.429,1.324-1.87c.64.454,1.274.935,1.884,1.43l-1.444,1.778Q710.175,149.421,709.27,148.78Zm1.294,54.387q.874-.685,1.7-1.421l1.526,1.709c-.587.523-1.2,1.033-1.813,1.516Zm2.947-50.831,1.611-1.629c.562.556,1.11,1.133,1.626,1.715l-1.713,1.521Q714.3,153.116,713.51,152.336Zm1.12,47.076q.751-.816,1.447-1.678l1.782,1.441c-.494.611-1.014,1.214-1.544,1.79Zm2.488-42.879,1.853-1.349c.461.635.908,1.293,1.327,1.957l-1.936,1.224Q717.769,157.428,717.118,156.533Zm.918,38.519q.608-.926,1.157-1.892l1.992,1.13c-.386.683-.8,1.363-1.233,2.019Zm1.961-33.8,2.047-1.029c.352.7.684,1.421.991,2.145l-2.11.892Q720.493,162.24,720,161.255Zm.691,28.939q.448-1.01.833-2.055l2.149.79c-.271.74-.57,1.477-.888,2.193Zm1.378-23.811,2.188-.68c.232.748.443,1.514.626,2.28l-2.227.535Q722.394,167.437,722.066,166.383Zm.444,18.584q.276-1.065.483-2.159l2.251.425c-.146.768-.319,1.546-.517,2.309Zm.757-13.186,2.27-.313q.16,1.164.246,2.35l-2.285.165Q723.419,172.872,723.268,171.781Zm.183,7.739q.1-1.1.126-2.213l2.29.056c-.02.794-.064,1.579-.134,2.36Z" transform="translate(-653.521 -140.264)" fill="#231f20"/>
        </g>
        <g id="组_548" data-name="组 548" transform="translate(1.884 45.278)">
          <path id="路径_686" data-name="路径 686" d="M644.641,226.559h72.784l-31.351-30.642-18.653,17.828-5.274-4.693Z" transform="translate(-644.641 -195.918)" fill="#fff"/>
        </g>
        <g id="组_549" data-name="组 549" transform="translate(23.576 21.917)">
          <path id="路径_687" data-name="路径 687" d="M677.164,177.743l-.189-1.617a3.616,3.616,0,0,0,1.264-.388l.753,1.442A5.261,5.261,0,0,1,677.164,177.743Zm-3.647-.918a5.276,5.276,0,0,1-1.342-1.359l1.344-.917a3.661,3.661,0,0,0,.931.943Zm7.975-2.455-1.521-.577a3.681,3.681,0,0,0,.238-1.3h1.627A5.28,5.28,0,0,1,681.492,174.37Zm-8.575-2.354-1.613-.21a5.269,5.269,0,0,1,.585-1.82l1.433.77A3.64,3.64,0,0,0,672.917,172.017Zm6.9-1.176a3.673,3.673,0,0,0-.8-1.055l1.1-1.2a5.252,5.252,0,0,1,1.157,1.522Zm-4.527-1.79-.56-1.527a5.26,5.26,0,0,1,1.816-.321l.059.814v.814A3.758,3.758,0,0,0,675.29,169.051Z" transform="translate(-671.304 -167.203)" fill="#231f20"/>
        </g>
        <g id="组_550" data-name="组 550" transform="translate(10.504 43.418)">
          <path id="路径_688" data-name="路径 688" d="M655.943,227.284l32.238-32.238,32.463,32.463" transform="translate(-655.368 -193.896)" fill="#fff"/>
          <path id="路径_689" data-name="路径 689" d="M719.938,227.821,688.05,195.933,656.387,227.6l-1.15-1.15,32.813-32.813,33.038,33.038Z" transform="translate(-655.236 -193.632)" fill="#231f20"/>
        </g>
        <g id="组_551" data-name="组 551" transform="translate(0 80.64)">
          <rect id="矩形_426" data-name="矩形 426" width="78.684" height="1.627" fill="#231f20"/>
        </g>
        <g id="组_552" data-name="组 552" transform="translate(28.267 57.518)">
          <path id="路径_690" data-name="路径 690" d="M702.072,218.325l-5.062-5.062-5.041,5.041-5.011-5.01-4.829,4.829-5.059-5.059,1.15-1.15,3.909,3.909,4.829-4.829,5.011,5.01,5.041-5.041,5.062,5.062,4.029-4.029,1.15,1.15Z" transform="translate(-677.07 -210.962)" fill="#231f20"/>
        </g>
        <g id="组_553" data-name="组 553" transform="translate(42.504 20.885)">
          <rect id="矩形_427" data-name="矩形 427" width="1.627" height="23.684" fill="#231f20"/>
        </g>
        <g id="组_554" data-name="组 554" transform="translate(50.654 25.18)">
          <path id="路径_691" data-name="路径 691" d="M719.85,182.39H704.587V171.214H719.85l-3.633,5.588Zm-13.636-1.627h10.637l-2.574-3.96,2.574-3.961H706.214Z" transform="translate(-704.587 -171.214)" fill="#231f20"/>
        </g>
        <g id="组_555" data-name="组 555" transform="translate(42.504 20.071)">
          <rect id="矩形_428" data-name="矩形 428" width="12.951" height="9.548" transform="translate(0.814 0.813)" fill="#fff"/>
          <path id="路径_692" data-name="路径 692" d="M709.146,176.11H694.569V164.935h14.577Zm-12.95-1.627h11.323v-7.921H696.2Z" transform="translate(-694.569 -164.935)" fill="#231f20"/>
        </g>
      </g>
      <g id="组_564" data-name="组 564" transform="translate(109.337 67.391)">
        <g id="组_559" data-name="组 559" transform="translate(0)">
          <g id="组_557" data-name="组 557" transform="translate(0.814 0.814)">
            <path id="路径_693" data-name="路径 693" d="M768.06,214.408a10.616,10.616,0,1,0-15.176,9.587v9.488H762V224A10.618,10.618,0,0,0,768.06,214.408Z" transform="translate(-746.828 -203.794)" fill="#fff"/>
          </g>
          <g id="组_558" data-name="组 558">
            <path id="路径_694" data-name="路径 694" d="M762.632,234.11H751.883v-9.8a11.427,11.427,0,1,1,10.749,0Zm-9.122-1.627h7.495V223.3l.463-.221a9.8,9.8,0,1,0-8.422,0l.464.221Z" transform="translate(-745.828 -202.794)" fill="#020202"/>
          </g>
        </g>
        <g id="组_560" data-name="组 560" transform="translate(4.666 22.927)">
          <rect id="矩形_429" data-name="矩形 429" width="13.525" height="1.627" fill="#020202"/>
        </g>
        <g id="组_561" data-name="组 561" transform="translate(4.666 26.072)">
          <rect id="矩形_430" data-name="矩形 430" width="13.525" height="1.627" fill="#020202"/>
        </g>
        <g id="组_562" data-name="组 562" transform="translate(2.65 10.215)">
          <path id="路径_695" data-name="路径 695" d="M757.761,224.026a8.686,8.686,0,0,1-8.676-8.676h1.627a7.057,7.057,0,0,0,7.049,7.049Z" transform="translate(-749.085 -215.35)" fill="#020202"/>
        </g>
        <g id="组_563" data-name="组 563" transform="translate(10.015 31.419)">
          <rect id="矩形_431" data-name="矩形 431" width="2.83" height="1.627" fill="#020202"/>
        </g>
      </g>
      <g id="组_575" data-name="组 575" transform="translate(107.129 0)">
        <g id="组_571" data-name="组 571">
          <g id="组_567" data-name="组 567">
            <g id="组_565" data-name="组 565" transform="translate(0.814 0.814)">
              <path id="路径_696" data-name="路径 696" d="M769.767,133.781a12.827,12.827,0,1,1-12.832-12.822A12.827,12.827,0,0,1,769.767,133.781Z" transform="translate(-744.114 -120.959)" fill="#fff"/>
            </g>
            <g id="组_566" data-name="组 566">
              <path id="路径_697" data-name="路径 697" d="M756.763,147.242h-.008a13.635,13.635,0,1,1,.008,0Zm-.008-25.656a12.014,12.014,0,0,0,0,24.029v.814l.006-.814a12.014,12.014,0,0,0-.006-24.029Z" transform="translate(-743.114 -119.959)" fill="#231f20"/>
            </g>
          </g>
          <g id="组_570" data-name="组 570" transform="translate(6.206)">
            <g id="组_568" data-name="组 568" transform="translate(0.814 0.814)">
              <path id="路径_698" data-name="路径 698" d="M765.167,133.783c.008,7.086-3,12.829-6.705,12.832s-6.716-5.741-6.72-12.824,3-12.828,6.707-12.832S765.167,126.7,765.167,133.783Z" transform="translate(-751.742 -120.959)" fill="#fff"/>
            </g>
            <g id="组_569" data-name="组 569">
              <path id="路径_699" data-name="路径 699" d="M758.276,147.242h0c-4.22,0-7.529-5.99-7.533-13.638s3.3-13.641,7.52-13.645,7.532,5.99,7.533,13.638a20.775,20.775,0,0,1-2.051,9.449C762.329,145.751,760.388,147.24,758.276,147.242Zm-.011-25.656c-3.2,0-5.9,5.506-5.9,12.018s2.708,12.01,5.906,12.011c1.476,0,2.906-1.181,4.026-3.323a19.137,19.137,0,0,0,1.866-8.695C764.167,127.087,761.464,121.586,758.265,121.586Z" transform="translate(-750.742 -119.959)" fill="#231f20"/>
            </g>
          </g>
        </g>
        <g id="组_572" data-name="组 572" transform="translate(2.74 4.979)">
          <path id="路径_700" data-name="路径 700" d="M757.35,128.524a63.289,63.289,0,0,1-10.187-.818.814.814,0,1,1,.264-1.606,61.584,61.584,0,0,0,9.922.8h.028a61.68,61.68,0,0,0,9.952-.805.813.813,0,1,1,.265,1.6,63.179,63.179,0,0,1-10.217.828Z" transform="translate(-746.482 -126.079)" fill="#231f20"/>
        </g>
        <g id="组_573" data-name="组 573" transform="translate(2.748 19.975)">
          <path id="路径_701" data-name="路径 701" d="M747.3,146.955a.814.814,0,0,1-.131-1.617,63.324,63.324,0,0,1,10.216-.827h.015a63.267,63.267,0,0,1,10.2.818.814.814,0,1,1-.264,1.606,61.58,61.58,0,0,0-9.939-.8h-.014a61.851,61.851,0,0,0-9.953.8A.73.73,0,0,1,747.3,146.955Z" transform="translate(-746.491 -144.512)" fill="#231f20"/>
        </g>
        <g id="组_574" data-name="组 574" transform="translate(0.015 12.823)">
          <path id="路径_702" data-name="路径 702" d="M743.945,137.359a.814.814,0,1,1,0-1.627l25.653-.011h0a.814.814,0,1,1,0,1.627l-25.653.011Z" transform="translate(-743.132 -135.72)" fill="#231f20"/>
        </g>
      </g>
      <g id="组_582" data-name="组 582" transform="translate(2.35 13.704)">
        <g id="组_578" data-name="组 578" transform="translate(0)">
          <g id="组_576" data-name="组 576" transform="translate(0.814 0.814)">
            <path id="路径_703" data-name="路径 703" d="M631.122,145.7c0,4.362-7.9,14.377-7.9,14.377s-7.9-10.016-7.9-14.377a7.9,7.9,0,1,1,15.8,0Z" transform="translate(-615.324 -137.804)" fill="#fff"/>
          </g>
          <g id="组_577" data-name="组 577">
            <path id="路径_704" data-name="路径 704" d="M623.036,161.208l-.639-.81c-.329-.418-8.074-10.289-8.074-14.881a8.712,8.712,0,0,1,17.425,0c0,4.592-7.744,14.463-8.074,14.881Zm0-22.777a7.094,7.094,0,0,0-7.085,7.085c0,3.051,4.64,9.813,7.085,13.045,2.446-3.231,7.085-9.994,7.085-13.045A7.094,7.094,0,0,0,623.036,138.431Z" transform="translate(-614.324 -136.804)" fill="#231f20"/>
          </g>
        </g>
        <g id="组_581" data-name="组 581" transform="translate(3.58 4.227)">
          <g id="组_579" data-name="组 579" transform="translate(0.814 0.814)">
            <path id="路径_705" data-name="路径 705" d="M628.363,147.319A4.319,4.319,0,1,1,624.043,143,4.32,4.32,0,0,1,628.363,147.319Z" transform="translate(-619.725 -143)" fill="#fff"/>
          </g>
          <g id="组_580" data-name="组 580">
            <path id="路径_706" data-name="路径 706" d="M623.857,152.266a5.133,5.133,0,1,1,5.133-5.134A5.139,5.139,0,0,1,623.857,152.266Zm0-8.639a3.506,3.506,0,1,0,3.506,3.506A3.509,3.509,0,0,0,623.857,143.627Z" transform="translate(-618.725 -142)" fill="#231f20"/>
          </g>
        </g>
      </g>
      <g id="组_589" data-name="组 589" transform="translate(7.775 70.609)">
        <g id="组_585" data-name="组 585" transform="translate(0)">
          <g id="组_583" data-name="组 583" transform="translate(0.814 0.813)">
            <circle id="椭圆_41" data-name="椭圆 41" cx="9.559" cy="9.559" r="9.559" fill="#fff"/>
          </g>
          <g id="组_584" data-name="组 584">
            <path id="路径_707" data-name="路径 707" d="M631.365,227.495a10.373,10.373,0,1,1,10.373-10.373A10.385,10.385,0,0,1,631.365,227.495Zm0-19.119a8.746,8.746,0,1,0,8.746,8.746A8.755,8.755,0,0,0,631.365,208.376Z" transform="translate(-620.992 -206.749)" fill="#231f20"/>
          </g>
        </g>
        <g id="组_588" data-name="组 588" transform="translate(8.032 5.223)">
          <g id="组_586" data-name="组 586" transform="translate(0.814 1.618)">
            <path id="路径_708" data-name="路径 708" d="M631.865,222.221v-7.063l4.753,3.532Z" transform="translate(-631.865 -215.158)" fill="#fff"/>
          </g>
          <g id="组_587" data-name="组 587">
            <path id="路径_709" data-name="路径 709" d="M630.865,223.468v-10.3l6.932,5.15Zm1.627-7.063v3.827l2.576-1.914Z" transform="translate(-630.865 -213.169)" fill="#231f20"/>
          </g>
        </g>
      </g>
      <g id="组_595" data-name="组 595" transform="translate(113.808 41.092)">
        <g id="组_590" data-name="组 590" transform="translate(0 11.525)">
          <rect id="矩形_432" data-name="矩形 432" width="1.627" height="6.915" fill="#231f20"/>
        </g>
        <g id="组_591" data-name="组 591" transform="translate(3.803 6.454)">
          <rect id="矩形_433" data-name="矩形 433" width="1.627" height="11.987" fill="#231f20"/>
        </g>
        <g id="组_592" data-name="组 592" transform="translate(7.606 1.383)">
          <rect id="矩形_434" data-name="矩形 434" width="1.627" height="17.057" fill="#231f20"/>
        </g>
        <g id="组_593" data-name="组 593" transform="translate(11.411 1.844)">
          <rect id="矩形_435" data-name="矩形 435" width="1.627" height="16.597" fill="#231f20"/>
        </g>
        <g id="组_594" data-name="组 594" transform="translate(15.213 0)">
          <rect id="矩形_436" data-name="矩形 436" width="1.627" height="18.441" fill="#231f20"/>
        </g>
      </g>
      <g id="组_596" data-name="组 596" transform="translate(24.588 22.923)">
        <rect id="矩形_437" data-name="矩形 437" width="5.967" height="5.966" transform="translate(0)"/>
      </g>
      <g id="组_597" data-name="组 597" transform="translate(31.096 92.076)">
        <path id="路径_710" data-name="路径 710" d="M665.928,234.762H664.3v-1.627h1.627Zm-4.881,0H659.42v-1.627h1.627Zm-4.881,0h-1.627v-1.627h1.627Zm-4.881,0h-1.627v-1.627h1.627Z" transform="translate(-649.657 -233.135)" fill="#231f20"/>
      </g>
      <g id="组_598" data-name="组 598" transform="translate(8.316 61.256)">
        <path id="路径_711" data-name="路径 711" d="M637.928,196.88H636.3v-1.627h1.627Zm-4.881,0H631.42v-1.627h1.627Zm-4.881,0h-1.627v-1.627h1.627Zm-4.881,0h-1.627v-1.627h1.627Z" transform="translate(-621.657 -195.253)" fill="#231f20"/>
      </g>
      <g id="组_599" data-name="组 599" transform="translate(0 47.606)">
        <path id="路径_712" data-name="路径 712" d="M627.706,180.1h-1.627v-1.627h1.627Zm-4.881,0H621.2v-1.627h1.627Zm-4.881,0h-1.627v-1.627h1.627Zm-4.881,0h-1.627v-1.627h1.627Z" transform="translate(-611.435 -178.474)" fill="#231f20"/>
      </g>
      <g id="组_600" data-name="组 600" transform="translate(125.437 65.479)">
        <rect id="矩形_438" data-name="矩形 438" width="12.474" height="1.627" transform="translate(0)" fill="#231f20"/>
      </g>
      <g id="组_601" data-name="组 601" transform="translate(78.825 10.177)">
        <rect id="矩形_439" data-name="矩形 439" width="8.136" height="1.627" fill="#231f20"/>
      </g>
      <g id="组_602" data-name="组 602" transform="translate(24.046 42.177)">
        <rect id="矩形_440" data-name="矩形 440" width="8.136" height="1.627" transform="translate(0 0)" fill="#231f20"/>
      </g>
      <g id="组_603" data-name="组 603" transform="translate(110.072 35.667)">
        <rect id="矩形_441" data-name="矩形 441" width="6.509" height="1.627" transform="translate(0 0)" fill="#231f20"/>
      </g>
    </g>
    <circle id="椭圆_43" data-name="椭圆 43" cx="15.644" cy="15.644" r="15.644" transform="translate(978.719 1951.73)" opacity="0.1" fill="url(#linear-gradient)"/>
    <circle id="椭圆_44" data-name="椭圆 44" cx="11.633" cy="11.633" r="11.633" transform="translate(1139.977 2032.666)" opacity="0.1" fill="url(#linear-gradient)"/>
    <circle id="椭圆_45" data-name="椭圆 45" cx="6.017" cy="6.017" r="6.017" transform="translate(1116.419 1955.341)" opacity="0.1" fill="url(#linear-gradient)"/>
    <circle id="椭圆_46" data-name="椭圆 46" cx="6.017" cy="6.017" r="6.017" transform="translate(961.069 1987.833)" opacity="0.1" fill="url(#linear-gradient)"/>
    <circle id="椭圆_47" data-name="椭圆 47" cx="9.397" cy="9.397" r="9.397" transform="translate(993.467 2054.981)" opacity="0.1" fill="url(#linear-gradient)"/>
  </g>
</svg>
