<svg xmlns="http://www.w3.org/2000/svg" viewBox="0 0 366 363" width="232" height="230">
	<defs>
		<clipPath clipPathUnits="userSpaceOnUse" id="cp1">
			<path d="M-66 -75L434 -75L434 425L-66 425L-66 -75Z" />
		</clipPath>
	</defs>
	<style>
		tspan { white-space:pre }
		.shp0 { fill: #ffffff } 
		.shp1 { fill: #000000 } 
		.shp2 { fill: #231f20 } 
		.shp3 { fill: #020202 } 
		.shp4 { fill: #e5edf5 } 
		.shp5 { fill: #004e98 } 
	</style>
	<g id="Clip-Path: Artboard_7" clip-path="url(#cp1)">
		<g id="Artboard_7">
			<path id="Layer" class="shp0" d="M-66 -75L434 -75L434 425L-66 425L-66 -75Z" />
			<g id="Group_992">
				<path id="Path_976" fill-rule="evenodd" class="shp1" d="M6.41 172.87L6.41 147.99L14.07 147.99C14.58 147.98 15.09 148 15.59 148.06C16.1 148.12 16.6 148.21 17.1 148.34C17.59 148.46 18.08 148.62 18.56 148.81C19.03 149 19.49 149.22 19.94 149.47C20.37 149.71 20.78 149.98 21.16 150.29C21.55 150.59 21.92 150.92 22.26 151.27C22.6 151.63 22.92 152.01 23.21 152.41C23.49 152.81 23.75 153.23 23.98 153.67C24.23 154.14 24.44 154.63 24.63 155.14C24.81 155.64 24.97 156.15 25.09 156.68C25.21 157.2 25.3 157.73 25.36 158.26C25.42 158.79 25.44 159.33 25.43 159.87L25.43 161.01C25.44 161.54 25.42 162.08 25.36 162.61C25.31 163.14 25.22 163.66 25.1 164.18C24.98 164.7 24.83 165.21 24.64 165.72C24.46 166.22 24.25 166.71 24 167.18C23.78 167.62 23.52 168.04 23.24 168.44C22.95 168.83 22.64 169.21 22.3 169.57C21.96 169.92 21.59 170.25 21.2 170.55C20.82 170.85 20.41 171.13 19.98 171.37C19.54 171.62 19.07 171.84 18.6 172.03C18.13 172.22 17.64 172.38 17.15 172.51C16.65 172.63 16.15 172.73 15.64 172.79C15.14 172.85 14.63 172.88 14.12 172.87L6.41 172.87ZM11.54 152.14L11.54 168.75L14.02 168.75C14.45 168.78 14.88 168.76 15.31 168.68C15.73 168.61 16.15 168.49 16.55 168.32C16.95 168.15 17.32 167.93 17.67 167.67C18.02 167.41 18.34 167.12 18.62 166.79C18.9 166.38 19.16 165.95 19.37 165.5C19.59 165.06 19.77 164.59 19.9 164.11C20.04 163.64 20.14 163.15 20.2 162.65C20.25 162.16 20.27 161.66 20.24 161.16L20.24 159.85C20.28 159.34 20.27 158.84 20.22 158.33C20.17 157.83 20.08 157.33 19.94 156.84C19.81 156.35 19.63 155.87 19.42 155.41C19.21 154.95 18.96 154.51 18.67 154.1C18.39 153.77 18.07 153.47 17.72 153.21C17.38 152.96 17 152.74 16.6 152.57C16.2 152.4 15.79 152.28 15.36 152.21C14.93 152.13 14.5 152.11 14.07 152.14L11.54 152.14ZM34.04 172.87L29.09 172.87L29.09 154.38L34.04 154.38L34.04 172.87ZM28.83 149.09C28.86 148.92 28.91 148.76 28.98 148.6C29.04 148.44 29.12 148.29 29.21 148.15C29.31 148.01 29.42 147.88 29.54 147.77C29.68 147.64 29.83 147.53 29.98 147.44C30.14 147.34 30.31 147.27 30.48 147.2C30.66 147.14 30.83 147.1 31.02 147.07C31.2 147.05 31.38 147.04 31.57 147.05C31.75 147.04 31.93 147.05 32.11 147.07C32.29 147.1 32.47 147.15 32.65 147.21C32.82 147.27 32.98 147.35 33.14 147.44C33.3 147.53 33.45 147.64 33.58 147.77C33.71 147.88 33.82 148.01 33.91 148.15C34.01 148.29 34.09 148.44 34.15 148.6C34.22 148.76 34.27 148.92 34.3 149.09C34.33 149.26 34.34 149.43 34.33 149.59C34.34 149.77 34.33 149.94 34.3 150.11C34.27 150.28 34.22 150.44 34.15 150.6C34.09 150.76 34.01 150.91 33.91 151.05C33.81 151.19 33.7 151.32 33.57 151.44C33.44 151.56 33.29 151.67 33.14 151.77C32.98 151.86 32.81 151.94 32.64 152C32.47 152.06 32.29 152.1 32.11 152.13C31.93 152.16 31.75 152.17 31.57 152.16C31.38 152.17 31.2 152.16 31.02 152.13C30.84 152.1 30.66 152.06 30.49 152C30.32 151.94 30.15 151.86 30 151.77C29.84 151.67 29.69 151.56 29.56 151.44C29.43 151.32 29.32 151.19 29.22 151.05C29.13 150.91 29.05 150.76 28.98 150.6C28.91 150.44 28.87 150.28 28.84 150.11C28.8 149.94 28.79 149.77 28.8 149.59C28.79 149.43 28.8 149.26 28.83 149.09ZM37.4 163.49C37.37 162.88 37.39 162.27 37.46 161.67C37.53 161.07 37.66 160.47 37.83 159.89C38 159.31 38.22 158.74 38.49 158.2C38.76 157.65 39.07 157.13 39.42 156.64C39.74 156.22 40.1 155.84 40.51 155.51C40.92 155.18 41.36 154.89 41.84 154.67C42.31 154.44 42.81 154.28 43.32 154.17C43.83 154.06 44.36 154.02 44.88 154.04C45.33 154.01 45.78 154.04 46.22 154.12C46.66 154.2 47.09 154.34 47.5 154.52C47.91 154.7 48.29 154.92 48.65 155.19C49.01 155.46 49.33 155.78 49.62 156.12L49.82 154.38L54.3 154.38L54.3 172.26C54.31 172.62 54.29 172.99 54.25 173.36C54.21 173.72 54.14 174.09 54.05 174.44C53.95 174.8 53.84 175.15 53.69 175.49C53.55 175.83 53.39 176.16 53.2 176.48C53.02 176.78 52.81 177.06 52.58 177.33C52.36 177.59 52.11 177.85 51.85 178.08C51.59 178.31 51.31 178.52 51.01 178.71C50.72 178.9 50.41 179.07 50.09 179.21C49.72 179.37 49.35 179.52 48.96 179.64C48.58 179.76 48.19 179.86 47.8 179.94C47.41 180.02 47.01 180.08 46.61 180.11C46.21 180.15 45.81 180.16 45.41 180.15C45.07 180.15 44.73 180.13 44.39 180.1C44.05 180.06 43.72 180.01 43.38 179.94C43.05 179.88 42.72 179.79 42.4 179.69C42.07 179.59 41.75 179.47 41.44 179.34C41.16 179.23 40.88 179.11 40.61 178.96C40.35 178.82 40.09 178.66 39.84 178.48C39.6 178.31 39.36 178.11 39.14 177.91C38.92 177.7 38.71 177.48 38.52 177.25L40.71 174.24C40.98 174.56 41.29 174.86 41.63 175.12C41.96 175.37 42.33 175.6 42.72 175.77C43.1 175.95 43.51 176.09 43.92 176.18C44.34 176.27 44.76 176.31 45.19 176.31C45.47 176.32 45.74 176.31 46.02 176.28C46.29 176.24 46.56 176.17 46.82 176.08C47.08 175.99 47.34 175.88 47.58 175.74C47.82 175.6 48.04 175.44 48.25 175.25C48.44 175.06 48.61 174.84 48.75 174.61C48.89 174.38 49.01 174.13 49.11 173.88C49.2 173.62 49.27 173.36 49.31 173.09C49.35 172.82 49.36 172.54 49.34 172.27L49.34 171.28C49.06 171.6 48.75 171.88 48.41 172.13C48.07 172.38 47.7 172.59 47.31 172.75C46.92 172.92 46.52 173.04 46.1 173.12C45.69 173.2 45.27 173.23 44.85 173.21C44.33 173.23 43.81 173.18 43.3 173.07C42.79 172.96 42.3 172.79 41.83 172.56C41.37 172.34 40.93 172.06 40.53 171.73C40.13 171.4 39.77 171.02 39.45 170.61C39.09 170.11 38.78 169.59 38.5 169.04C38.23 168.49 38.01 167.91 37.83 167.33C37.66 166.74 37.53 166.14 37.46 165.53C37.39 164.92 37.36 164.31 37.39 163.69L37.4 163.49ZM42.34 163.85C42.32 164.19 42.32 164.54 42.36 164.88C42.39 165.22 42.45 165.56 42.54 165.9C42.62 166.23 42.73 166.56 42.87 166.87C43 167.19 43.16 167.49 43.34 167.79C43.5 168.01 43.67 168.22 43.88 168.4C44.08 168.58 44.3 168.73 44.54 168.86C44.79 168.98 45.04 169.08 45.31 169.14C45.57 169.2 45.84 169.22 46.11 169.21C46.43 169.24 46.76 169.22 47.07 169.15C47.38 169.09 47.69 168.98 47.97 168.83C48.26 168.68 48.52 168.5 48.75 168.27C48.98 168.05 49.18 167.8 49.34 167.52L49.34 159.75C49.18 159.47 48.99 159.22 48.76 159C48.53 158.78 48.27 158.59 47.99 158.44C47.7 158.29 47.4 158.18 47.09 158.12C46.78 158.05 46.46 158.03 46.14 158.05C45.87 158.05 45.6 158.07 45.33 158.13C45.06 158.2 44.8 158.29 44.56 158.42C44.31 158.54 44.09 158.7 43.88 158.88C43.68 159.07 43.5 159.28 43.35 159.51C43.16 159.83 42.99 160.17 42.85 160.52C42.72 160.87 42.6 161.23 42.52 161.6C42.43 161.97 42.37 162.34 42.34 162.72C42.31 163.09 42.31 163.47 42.33 163.85L42.34 163.85ZM63.3 172.87L58.35 172.87L58.35 154.38L63.3 154.38L63.3 172.87ZM58.09 149.09C58.12 148.92 58.17 148.76 58.23 148.6C58.3 148.44 58.38 148.29 58.47 148.15C58.57 148.01 58.68 147.88 58.8 147.77C58.94 147.64 59.08 147.53 59.24 147.44C59.4 147.34 59.57 147.27 59.74 147.2C59.91 147.14 60.09 147.1 60.27 147.07C60.46 147.05 60.64 147.04 60.82 147.05C61.01 147.04 61.19 147.05 61.37 147.07C61.55 147.1 61.73 147.15 61.9 147.21C62.08 147.27 62.24 147.35 62.4 147.44C62.56 147.53 62.7 147.64 62.84 147.77C62.96 147.88 63.07 148.01 63.17 148.15C63.27 148.29 63.35 148.44 63.41 148.6C63.48 148.76 63.53 148.92 63.56 149.09C63.59 149.26 63.6 149.43 63.59 149.59C63.6 149.77 63.59 149.94 63.56 150.11C63.53 150.28 63.48 150.44 63.41 150.6C63.35 150.76 63.26 150.91 63.17 151.05C63.07 151.19 62.96 151.32 62.83 151.44C62.7 151.56 62.55 151.67 62.39 151.77C62.24 151.86 62.07 151.94 61.9 152C61.73 152.06 61.55 152.1 61.37 152.13C61.19 152.16 61.01 152.17 60.82 152.16C60.64 152.17 60.46 152.16 60.28 152.13C60.1 152.1 59.92 152.06 59.75 152C59.58 151.94 59.41 151.86 59.26 151.77C59.1 151.67 58.95 151.56 58.82 151.44C58.69 151.32 58.58 151.19 58.48 151.05C58.39 150.91 58.3 150.76 58.24 150.6C58.17 150.44 58.12 150.28 58.09 150.11C58.06 149.94 58.05 149.77 58.06 149.59C58.05 149.43 58.06 149.26 58.09 149.09ZM73.28 149.83L73.28 154.38L76.44 154.38L76.44 158L73.28 158L73.28 167.23C73.27 167.36 73.27 167.49 73.28 167.62C73.29 167.75 73.31 167.88 73.35 168C73.38 168.13 73.43 168.25 73.48 168.37C73.54 168.48 73.6 168.6 73.68 168.7C73.78 168.79 73.89 168.86 74.01 168.93C74.13 168.99 74.25 169.04 74.38 169.08C74.51 169.12 74.64 169.14 74.77 169.15C74.91 169.16 75.04 169.16 75.18 169.15C75.3 169.15 75.42 169.14 75.54 169.14C75.66 169.14 75.78 169.13 75.91 169.12C76.03 169.11 76.15 169.1 76.27 169.08C76.39 169.06 76.51 169.05 76.63 169.03L76.63 172.77C76.39 172.84 76.14 172.91 75.9 172.97C75.65 173.02 75.4 173.07 75.15 173.1C74.9 173.14 74.65 173.17 74.4 173.19C74.14 173.21 73.89 173.22 73.64 173.22C70.17 173.22 68.4 171.47 68.34 167.97L68.34 158L65.64 158L65.64 154.38L68.34 154.38L68.34 149.84L73.28 149.83ZM89.91 172.87C89.85 172.74 89.79 172.61 89.74 172.47C89.69 172.34 89.64 172.2 89.6 172.06C89.55 171.92 89.52 171.78 89.49 171.64C89.46 171.5 89.43 171.36 89.41 171.21C89.12 171.54 88.8 171.83 88.44 172.09C88.09 172.34 87.7 172.56 87.3 172.73C86.9 172.91 86.48 173.03 86.05 173.11C85.62 173.19 85.18 173.23 84.75 173.21C84.34 173.23 83.93 173.2 83.53 173.14C83.13 173.08 82.73 172.98 82.35 172.85C81.96 172.72 81.59 172.55 81.24 172.34C80.89 172.14 80.56 171.91 80.25 171.64C79.96 171.4 79.7 171.12 79.48 170.82C79.25 170.52 79.06 170.2 78.9 169.86C78.75 169.52 78.64 169.16 78.56 168.79C78.49 168.42 78.45 168.05 78.46 167.67C78.44 167.24 78.47 166.8 78.56 166.37C78.65 165.94 78.78 165.53 78.97 165.14C79.16 164.74 79.4 164.38 79.68 164.04C79.96 163.71 80.29 163.41 80.64 163.16C81.11 162.87 81.6 162.62 82.1 162.4C82.61 162.19 83.13 162.01 83.67 161.88C84.2 161.74 84.74 161.65 85.29 161.6C85.84 161.55 86.39 161.54 86.94 161.57L89.21 161.57L89.21 160.51C89.22 160.33 89.22 160.14 89.19 159.96C89.17 159.78 89.13 159.6 89.07 159.42C89.02 159.25 88.94 159.08 88.86 158.92C88.77 158.76 88.67 158.6 88.56 158.46C88.42 158.32 88.27 158.2 88.11 158.1C87.95 157.99 87.78 157.91 87.6 157.84C87.42 157.78 87.24 157.73 87.05 157.7C86.86 157.68 86.67 157.67 86.48 157.69C86.3 157.68 86.13 157.69 85.96 157.71C85.78 157.73 85.61 157.76 85.45 157.81C85.28 157.87 85.12 157.93 84.96 158.01C84.81 158.09 84.66 158.18 84.52 158.29C84.4 158.39 84.3 158.5 84.21 158.63C84.12 158.75 84.04 158.89 83.98 159.03C83.92 159.17 83.87 159.32 83.84 159.47C83.82 159.62 83.81 159.78 83.81 159.93L78.87 159.93C78.87 159.67 78.89 159.4 78.94 159.14C78.98 158.87 79.04 158.62 79.13 158.36C79.21 158.11 79.31 157.87 79.44 157.63C79.56 157.4 79.7 157.17 79.86 156.96C80.04 156.72 80.24 156.49 80.45 156.28C80.66 156.07 80.88 155.87 81.12 155.69C81.35 155.51 81.6 155.35 81.86 155.2C82.12 155.05 82.39 154.92 82.66 154.81C82.98 154.68 83.31 154.56 83.64 154.46C83.98 154.36 84.32 154.28 84.66 154.21C85 154.15 85.34 154.1 85.69 154.07C86.03 154.04 86.38 154.03 86.73 154.03C87.21 154.01 87.7 154.03 88.18 154.09C88.66 154.15 89.14 154.25 89.6 154.4C90.06 154.55 90.51 154.73 90.94 154.96C91.37 155.19 91.77 155.45 92.16 155.75C92.49 156.05 92.8 156.39 93.06 156.76C93.32 157.12 93.54 157.52 93.71 157.94C93.89 158.35 94.01 158.79 94.09 159.23C94.16 159.68 94.19 160.13 94.16 160.58L94.16 168.59C94.15 168.94 94.15 169.28 94.17 169.62C94.2 169.96 94.24 170.29 94.3 170.63C94.36 170.96 94.44 171.29 94.54 171.62C94.64 171.95 94.76 172.27 94.9 172.58L94.9 172.87L89.91 172.87ZM85.83 169.44C86 169.44 86.18 169.43 86.35 169.41C86.52 169.39 86.7 169.36 86.87 169.32C87.04 169.28 87.2 169.22 87.37 169.16C87.53 169.1 87.69 169.03 87.84 168.95C87.99 168.88 88.12 168.8 88.26 168.7C88.39 168.61 88.51 168.51 88.63 168.4C88.74 168.29 88.85 168.17 88.95 168.04C89.04 167.92 89.13 167.78 89.21 167.64L89.21 164.46L87.37 164.46C84.89 164.46 83.58 165.32 83.42 167.03L83.4 167.32C83.4 167.46 83.41 167.6 83.43 167.74C83.46 167.88 83.5 168.02 83.56 168.15C83.61 168.28 83.68 168.4 83.77 168.52C83.85 168.64 83.94 168.74 84.05 168.84C84.17 168.94 84.3 169.03 84.44 169.11C84.58 169.19 84.73 169.26 84.88 169.31C85.03 169.36 85.19 169.4 85.35 169.42C85.51 169.44 85.67 169.45 85.83 169.44ZM103.17 172.87L98.22 172.87L98.22 146.62L103.17 146.62L103.17 172.87ZM133.99 152.14L126.37 152.14L126.37 172.87L121.24 172.87L121.24 152.14L113.72 152.14L113.72 147.99L133.99 147.99L133.99 152.14ZM145.87 159.01C145.72 158.99 145.57 158.97 145.42 158.95C145.28 158.94 145.13 158.92 144.98 158.91C144.83 158.9 144.68 158.89 144.53 158.88C144.39 158.88 144.24 158.87 144.09 158.87C142.22 158.87 141 159.5 140.41 160.77L140.41 172.87L135.48 172.87L135.48 154.38L140.14 154.38L140.28 156.58C140.47 156.2 140.71 155.84 141 155.53C141.28 155.21 141.61 154.94 141.97 154.72C142.34 154.49 142.73 154.32 143.14 154.21C143.55 154.09 143.97 154.03 144.4 154.03C144.53 154.03 144.66 154.04 144.79 154.05C144.92 154.05 145.05 154.07 145.18 154.09C145.3 154.11 145.43 154.13 145.56 154.16C145.69 154.19 145.81 154.22 145.94 154.26L145.87 159.01ZM158.44 172.87C158.38 172.74 158.32 172.61 158.27 172.47C158.22 172.34 158.17 172.2 158.13 172.06C158.08 171.92 158.05 171.78 158.02 171.64C157.99 171.5 157.96 171.36 157.94 171.21C157.65 171.54 157.33 171.83 156.97 172.09C156.62 172.34 156.23 172.56 155.83 172.73C155.43 172.91 155.01 173.03 154.58 173.11C154.15 173.19 153.71 173.23 153.28 173.21C152.87 173.23 152.46 173.2 152.06 173.14C151.66 173.08 151.26 172.98 150.88 172.85C150.49 172.72 150.12 172.55 149.77 172.34C149.42 172.14 149.09 171.91 148.78 171.64C148.49 171.4 148.23 171.12 148.01 170.82C147.78 170.52 147.59 170.2 147.43 169.86C147.28 169.52 147.16 169.16 147.09 168.79C147.01 168.42 146.98 168.05 146.99 167.67C146.97 167.24 147 166.8 147.09 166.37C147.17 165.94 147.31 165.53 147.5 165.14C147.69 164.74 147.93 164.38 148.21 164.04C148.49 163.71 148.81 163.41 149.17 163.16C149.64 162.87 150.13 162.62 150.63 162.4C151.14 162.19 151.66 162.01 152.2 161.88C152.73 161.74 153.27 161.65 153.82 161.6C154.37 161.55 154.92 161.54 155.47 161.57L157.74 161.57L157.74 160.51C157.75 160.33 157.74 160.14 157.72 159.96C157.7 159.78 157.66 159.6 157.6 159.42C157.54 159.25 157.47 159.08 157.38 158.92C157.3 158.76 157.2 158.6 157.08 158.46C156.95 158.32 156.8 158.2 156.64 158.1C156.48 157.99 156.31 157.91 156.13 157.84C155.95 157.78 155.77 157.73 155.58 157.7C155.39 157.68 155.2 157.67 155.01 157.69C154.83 157.68 154.66 157.69 154.49 157.71C154.31 157.73 154.14 157.76 153.97 157.81C153.81 157.87 153.65 157.93 153.49 158.01C153.34 158.09 153.19 158.18 153.05 158.29C152.93 158.39 152.83 158.5 152.74 158.63C152.64 158.75 152.57 158.89 152.51 159.03C152.44 159.17 152.4 159.32 152.37 159.47C152.34 159.62 152.33 159.78 152.34 159.93L147.4 159.93C147.4 159.67 147.42 159.4 147.47 159.14C147.51 158.87 147.57 158.62 147.66 158.36C147.74 158.11 147.84 157.87 147.97 157.63C148.09 157.4 148.23 157.17 148.39 156.96C148.57 156.72 148.77 156.49 148.98 156.28C149.19 156.07 149.41 155.87 149.65 155.69C149.88 155.51 150.13 155.35 150.39 155.2C150.65 155.05 150.92 154.92 151.19 154.81C151.51 154.68 151.84 154.56 152.17 154.46C152.51 154.36 152.85 154.28 153.19 154.21C153.53 154.15 153.87 154.1 154.22 154.07C154.56 154.04 154.91 154.03 155.26 154.03C155.74 154.01 156.23 154.03 156.71 154.09C157.19 154.15 157.67 154.25 158.13 154.4C158.59 154.55 159.04 154.73 159.47 154.96C159.9 155.19 160.3 155.45 160.69 155.75C161.02 156.05 161.33 156.39 161.59 156.76C161.85 157.12 162.07 157.52 162.24 157.94C162.42 158.35 162.54 158.79 162.62 159.23C162.69 159.68 162.72 160.13 162.69 160.58L162.69 168.59C162.68 168.94 162.68 169.28 162.7 169.62C162.73 169.96 162.77 170.29 162.83 170.63C162.89 170.96 162.97 171.29 163.07 171.62C163.17 171.95 163.29 172.27 163.43 172.58L163.43 172.87L158.44 172.87ZM154.36 169.44C154.53 169.44 154.71 169.43 154.88 169.41C155.05 169.39 155.23 169.36 155.4 169.32C155.57 169.28 155.73 169.22 155.9 169.16C156.06 169.1 156.22 169.03 156.37 168.95C156.52 168.88 156.66 168.8 156.79 168.7C156.92 168.61 157.04 168.51 157.16 168.4C157.27 168.29 157.38 168.17 157.48 168.04C157.58 167.92 157.66 167.78 157.74 167.64L157.74 164.46L155.9 164.46C153.42 164.46 152.11 165.32 151.95 167.03L151.93 167.32C151.93 167.46 151.94 167.6 151.96 167.74C151.99 167.88 152.03 168.02 152.09 168.15C152.14 168.28 152.21 168.4 152.3 168.52C152.38 168.64 152.47 168.74 152.58 168.84C152.7 168.94 152.83 169.03 152.97 169.11C153.11 169.19 153.26 169.26 153.41 169.31C153.56 169.36 153.72 169.4 153.88 169.42C154.04 169.44 154.2 169.44 154.36 169.44L154.36 169.44ZM171.04 154.38L171.19 156.52C171.5 156.12 171.86 155.75 172.26 155.44C172.66 155.12 173.09 154.85 173.55 154.64C174.01 154.42 174.49 154.26 174.99 154.16C175.49 154.06 176 154.02 176.5 154.04C176.91 154.01 177.32 154.02 177.72 154.08C178.12 154.14 178.51 154.25 178.89 154.4C179.27 154.55 179.63 154.74 179.96 154.97C180.3 155.2 180.6 155.46 180.88 155.76C181.14 156.14 181.37 156.53 181.57 156.94C181.77 157.35 181.93 157.78 182.06 158.22C182.18 158.66 182.27 159.11 182.32 159.56C182.37 160.01 182.38 160.47 182.35 160.93L182.35 172.87L177.41 172.87L177.41 161.05C177.43 160.84 177.43 160.64 177.41 160.44C177.39 160.23 177.35 160.03 177.29 159.84C177.23 159.64 177.15 159.45 177.06 159.27C176.96 159.09 176.85 158.92 176.73 158.76C176.57 158.63 176.4 158.52 176.22 158.42C176.04 158.32 175.86 158.24 175.66 158.18C175.47 158.12 175.27 158.08 175.06 158.06C174.86 158.04 174.66 158.04 174.45 158.06C174.14 158.04 173.82 158.07 173.51 158.15C173.21 158.22 172.91 158.34 172.64 158.5C172.36 158.65 172.11 158.85 171.89 159.07C171.67 159.3 171.48 159.55 171.33 159.83L171.33 172.87L166.39 172.87L166.39 154.38L171.04 154.38ZM196.11 167.76C196.11 167.61 196.09 167.46 196.04 167.32C196 167.18 195.94 167.04 195.86 166.92C195.78 166.79 195.69 166.68 195.58 166.58C195.47 166.48 195.34 166.4 195.21 166.33C194.98 166.22 194.75 166.12 194.52 166.02C194.28 165.93 194.04 165.84 193.8 165.76C193.56 165.68 193.32 165.61 193.07 165.55C192.83 165.49 192.58 165.44 192.33 165.4C187.93 164.48 185.73 162.61 185.73 159.8C185.73 159.4 185.77 159 185.86 158.62C185.95 158.23 186.08 157.86 186.26 157.5C186.44 157.14 186.65 156.81 186.91 156.5C187.16 156.2 187.45 155.93 187.77 155.69C188.15 155.4 188.55 155.15 188.98 154.93C189.4 154.72 189.84 154.54 190.3 154.4C190.75 154.26 191.22 154.16 191.69 154.1C192.16 154.04 192.64 154.02 193.11 154.04C193.61 154.01 194.11 154.03 194.6 154.09C195.1 154.15 195.59 154.25 196.07 154.39C196.55 154.53 197.01 154.71 197.46 154.93C197.91 155.15 198.34 155.41 198.74 155.7C199.08 155.94 199.38 156.23 199.65 156.55C199.91 156.87 200.14 157.22 200.32 157.59C200.5 157.97 200.64 158.36 200.73 158.77C200.82 159.17 200.86 159.59 200.85 160L195.91 160C195.92 159.84 195.91 159.68 195.88 159.52C195.85 159.36 195.81 159.21 195.75 159.06C195.69 158.91 195.62 158.76 195.53 158.63C195.44 158.49 195.34 158.37 195.23 158.25C195.08 158.13 194.93 158.02 194.76 157.92C194.59 157.83 194.41 157.75 194.23 157.69C194.05 157.63 193.86 157.59 193.67 157.57C193.48 157.55 193.29 157.54 193.09 157.56C192.92 157.55 192.75 157.55 192.58 157.57C192.41 157.59 192.24 157.62 192.08 157.67C191.91 157.72 191.75 157.78 191.6 157.86C191.45 157.93 191.3 158.02 191.16 158.12C191.05 158.21 190.96 158.31 190.87 158.41C190.78 158.52 190.71 158.64 190.65 158.76C190.59 158.89 190.55 159.02 190.52 159.15C190.49 159.29 190.48 159.42 190.48 159.56C190.48 159.69 190.5 159.83 190.53 159.96C190.57 160.09 190.62 160.21 190.69 160.33C190.76 160.44 190.84 160.55 190.94 160.64C191.03 160.74 191.14 160.82 191.26 160.88C191.46 160.99 191.67 161.09 191.88 161.19C192.09 161.28 192.31 161.36 192.53 161.43C192.75 161.51 192.97 161.57 193.2 161.62C193.42 161.68 193.65 161.72 193.88 161.76C194.14 161.81 194.41 161.86 194.67 161.92C194.93 161.98 195.19 162.04 195.45 162.11C195.71 162.18 195.97 162.26 196.22 162.33C196.48 162.41 196.74 162.5 196.99 162.59C199.6 163.54 200.9 165.2 200.9 167.56C200.91 167.96 200.86 168.36 200.77 168.76C200.67 169.15 200.53 169.53 200.34 169.88C200.15 170.24 199.92 170.57 199.65 170.87C199.38 171.17 199.07 171.43 198.73 171.65C198.32 171.92 197.89 172.16 197.44 172.37C197 172.58 196.53 172.75 196.06 172.88C195.58 173.01 195.1 173.1 194.61 173.16C194.12 173.22 193.63 173.23 193.13 173.21C192.78 173.22 192.43 173.21 192.07 173.18C191.72 173.14 191.37 173.09 191.03 173.02C190.68 172.95 190.34 172.87 190 172.76C189.66 172.65 189.33 172.53 189.01 172.38C188.73 172.26 188.45 172.12 188.19 171.96C187.93 171.8 187.68 171.63 187.44 171.44C187.2 171.24 186.98 171.04 186.77 170.82C186.56 170.59 186.36 170.36 186.18 170.11C186.01 169.89 185.87 169.65 185.74 169.4C185.61 169.15 185.5 168.9 185.42 168.63C185.33 168.37 185.27 168.1 185.22 167.82C185.18 167.55 185.15 167.27 185.15 166.99L189.84 166.99C189.84 167.19 189.86 167.38 189.9 167.57C189.95 167.75 190.01 167.94 190.09 168.11C190.18 168.29 190.28 168.45 190.4 168.6C190.52 168.75 190.66 168.89 190.81 169.01C190.99 169.13 191.17 169.24 191.37 169.33C191.56 169.43 191.76 169.5 191.97 169.56C192.17 169.62 192.38 169.66 192.6 169.69C192.81 169.71 193.02 169.72 193.24 169.71C193.43 169.72 193.61 169.72 193.8 169.7C193.99 169.69 194.17 169.66 194.35 169.61C194.53 169.56 194.71 169.5 194.89 169.43C195.06 169.36 195.22 169.27 195.38 169.17C195.5 169.09 195.6 169 195.69 168.9C195.78 168.79 195.86 168.68 195.92 168.56C195.99 168.43 196.03 168.3 196.06 168.17C196.1 168.04 196.11 167.9 196.11 167.76ZM205.44 172.87L205.44 158L202.69 158L202.69 154.38L205.44 154.38L205.44 152.81C205.41 152.37 205.43 151.92 205.5 151.49C205.56 151.05 205.67 150.62 205.82 150.21C205.98 149.79 206.17 149.39 206.41 149.02C206.64 148.65 206.92 148.3 207.23 147.98C207.57 147.68 207.93 147.42 208.32 147.19C208.72 146.96 209.13 146.77 209.56 146.62C209.98 146.48 210.42 146.37 210.87 146.31C211.32 146.25 211.77 146.23 212.23 146.26C212.44 146.27 212.65 146.28 212.86 146.3C213.07 146.31 213.28 146.34 213.49 146.36C213.7 146.39 213.91 146.43 214.12 146.47C214.33 146.51 214.53 146.55 214.74 146.6L214.69 150.43C214.56 150.4 214.44 150.38 214.32 150.36C214.19 150.34 214.07 150.32 213.94 150.31C213.82 150.3 213.69 150.29 213.56 150.28C213.44 150.28 213.31 150.28 213.19 150.28C211.33 150.28 210.4 151.15 210.4 152.89L210.4 154.38L214.08 154.38L214.08 158L210.4 158L210.4 172.87L205.44 172.87ZM215.86 163.45C215.86 163.03 215.87 162.61 215.91 162.19C215.96 161.77 216.02 161.35 216.11 160.94C216.2 160.53 216.31 160.12 216.45 159.72C216.58 159.33 216.74 158.93 216.92 158.55C217.09 158.21 217.28 157.88 217.49 157.56C217.71 157.24 217.94 156.94 218.2 156.66C218.46 156.38 218.74 156.12 219.03 155.88C219.33 155.63 219.65 155.42 219.98 155.22C220.32 155.02 220.69 154.84 221.06 154.69C221.43 154.54 221.82 154.42 222.21 154.32C222.6 154.22 222.99 154.14 223.39 154.1C223.79 154.05 224.2 154.03 224.6 154.04C225.16 154.02 225.72 154.05 226.27 154.14C226.82 154.23 227.36 154.37 227.88 154.57C228.41 154.77 228.91 155.01 229.38 155.31C229.86 155.61 230.3 155.95 230.71 156.33C231.11 156.74 231.48 157.19 231.8 157.67C232.12 158.15 232.4 158.66 232.62 159.19C232.85 159.72 233.02 160.27 233.14 160.84C233.26 161.4 233.33 161.98 233.35 162.55L233.38 163.82C233.41 164.44 233.38 165.05 233.29 165.67C233.21 166.28 233.06 166.88 232.86 167.46C232.65 168.05 232.4 168.61 232.08 169.14C231.77 169.68 231.41 170.18 231.01 170.65C230.6 171.07 230.15 171.46 229.66 171.79C229.17 172.12 228.65 172.4 228.1 172.62C227.55 172.84 226.98 173.01 226.4 173.11C225.81 173.2 225.22 173.24 224.63 173.21C224.04 173.24 223.45 173.2 222.86 173.1C222.28 173.01 221.71 172.84 221.16 172.62C220.61 172.4 220.09 172.12 219.6 171.79C219.11 171.46 218.66 171.08 218.25 170.65C217.84 170.17 217.47 169.66 217.16 169.11C216.84 168.57 216.58 167.99 216.38 167.4C216.17 166.8 216.03 166.18 215.94 165.56C215.86 164.94 215.83 164.31 215.86 163.68L215.86 163.45ZM220.8 163.81C220.78 164.16 220.78 164.51 220.82 164.86C220.85 165.21 220.9 165.56 220.99 165.9C221.07 166.24 221.18 166.58 221.32 166.9C221.45 167.22 221.61 167.54 221.79 167.84C221.95 168.06 222.14 168.27 222.35 168.45C222.56 168.63 222.79 168.78 223.03 168.9C223.28 169.02 223.54 169.11 223.81 169.17C224.08 169.22 224.36 169.24 224.63 169.23C224.9 169.24 225.17 169.22 225.44 169.16C225.7 169.11 225.96 169.02 226.21 168.9C226.45 168.78 226.68 168.63 226.88 168.45C227.09 168.28 227.27 168.08 227.43 167.86C227.62 167.53 227.79 167.18 227.93 166.83C228.07 166.47 228.19 166.1 228.27 165.73C228.36 165.36 228.41 164.98 228.44 164.6C228.47 164.22 228.47 163.84 228.44 163.46C228.46 163.11 228.45 162.76 228.42 162.41C228.39 162.06 228.33 161.72 228.24 161.38C228.16 161.04 228.05 160.71 227.91 160.38C227.78 160.06 227.61 159.75 227.43 159.46C227.27 159.23 227.09 159.02 226.88 158.84C226.67 158.66 226.44 158.5 226.2 158.38C225.95 158.26 225.69 158.16 225.42 158.11C225.15 158.05 224.87 158.03 224.59 158.04C224.32 158.03 224.05 158.05 223.78 158.11C223.51 158.16 223.26 158.26 223.01 158.38C222.77 158.5 222.54 158.66 222.33 158.84C222.13 159.02 221.95 159.22 221.79 159.45C221.61 159.78 221.44 160.12 221.31 160.47C221.17 160.82 221.06 161.19 220.97 161.56C220.89 161.93 220.83 162.3 220.8 162.68C220.78 163.06 220.78 163.44 220.8 163.81ZM246.81 159.01C246.67 158.99 246.52 158.97 246.37 158.96C246.22 158.94 246.08 158.92 245.93 158.91C245.78 158.9 245.63 158.89 245.48 158.88C245.33 158.88 245.18 158.87 245.04 158.87C243.17 158.87 241.94 159.5 241.36 160.77L241.36 172.87L236.42 172.87L236.42 154.38L241.09 154.38L241.23 156.58C241.41 156.2 241.66 155.84 241.94 155.53C242.23 155.21 242.56 154.94 242.92 154.72C243.28 154.49 243.68 154.32 244.09 154.21C244.5 154.09 244.92 154.03 245.34 154.03C245.47 154.03 245.6 154.04 245.73 154.05C245.86 154.05 245.99 154.07 246.12 154.09C246.25 154.11 246.38 154.13 246.51 154.16C246.63 154.19 246.76 154.22 246.88 154.26L246.81 159.01ZM253.82 154.38L253.98 156.45C254.29 156.06 254.65 155.7 255.05 155.39C255.45 155.08 255.89 154.82 256.35 154.61C256.81 154.41 257.29 154.25 257.78 154.16C258.28 154.06 258.79 154.02 259.29 154.04C259.79 154 260.3 154.03 260.79 154.14C261.28 154.24 261.75 154.43 262.18 154.68C262.62 154.93 263.01 155.24 263.35 155.61C263.7 155.98 263.98 156.4 264.19 156.86C264.49 156.41 264.85 156 265.26 155.64C265.66 155.28 266.11 154.97 266.6 154.72C267.08 154.48 267.6 154.29 268.13 154.18C268.66 154.06 269.2 154.02 269.74 154.04C270.16 154.01 270.57 154.02 270.98 154.08C271.4 154.14 271.8 154.25 272.18 154.4C272.57 154.55 272.94 154.75 273.28 154.98C273.62 155.22 273.94 155.49 274.22 155.79C274.49 156.17 274.73 156.57 274.93 156.99C275.13 157.41 275.29 157.85 275.42 158.3C275.54 158.75 275.63 159.21 275.68 159.67C275.72 160.13 275.73 160.6 275.69 161.06L275.69 172.87L270.74 172.87L270.74 161.08C270.76 160.88 270.76 160.67 270.74 160.47C270.72 160.27 270.68 160.07 270.63 159.88C270.58 159.68 270.51 159.49 270.43 159.31C270.34 159.12 270.24 158.95 270.12 158.78C269.98 158.64 269.82 158.52 269.65 158.42C269.49 158.32 269.31 158.24 269.12 158.18C268.93 158.11 268.74 158.07 268.54 158.05C268.35 158.03 268.15 158.03 267.95 158.05C267.62 158.04 267.28 158.08 266.96 158.17C266.64 158.26 266.33 158.4 266.06 158.59C265.78 158.78 265.54 159.02 265.34 159.29C265.14 159.55 264.98 159.85 264.88 160.17L264.89 172.87L259.96 172.87L259.96 161.1C259.97 160.89 259.97 160.69 259.96 160.48C259.94 160.28 259.9 160.08 259.85 159.88C259.79 159.68 259.72 159.49 259.63 159.3C259.55 159.12 259.44 158.94 259.32 158.77C259.18 158.64 259.02 158.52 258.86 158.42C258.69 158.32 258.51 158.24 258.32 158.18C258.14 158.12 257.95 158.08 257.75 158.06C257.56 158.03 257.37 158.03 257.17 158.05C256.86 158.04 256.55 158.06 256.25 158.13C255.95 158.2 255.66 158.32 255.39 158.47C255.12 158.63 254.88 158.82 254.66 159.04C254.45 159.27 254.27 159.52 254.13 159.8L254.13 172.87L249.19 172.87L249.19 154.38L253.82 154.38ZM290.21 172.87C290.14 172.74 290.08 172.61 290.03 172.47C289.98 172.34 289.93 172.2 289.89 172.06C289.85 171.92 289.81 171.78 289.78 171.64C289.75 171.5 289.72 171.36 289.71 171.21C289.41 171.54 289.09 171.83 288.73 172.09C288.38 172.34 288 172.56 287.59 172.73C287.19 172.91 286.77 173.03 286.34 173.11C285.91 173.19 285.48 173.23 285.04 173.21C284.63 173.23 284.23 173.2 283.82 173.14C283.42 173.08 283.03 172.98 282.64 172.85C282.26 172.72 281.89 172.55 281.53 172.34C281.18 172.14 280.85 171.91 280.54 171.64C280.25 171.4 279.99 171.12 279.77 170.82C279.54 170.52 279.35 170.2 279.2 169.86C279.04 169.52 278.93 169.16 278.85 168.79C278.78 168.42 278.75 168.05 278.75 167.67C278.73 167.24 278.76 166.8 278.85 166.37C278.94 165.94 279.08 165.53 279.27 165.14C279.46 164.74 279.7 164.38 279.98 164.04C280.26 163.71 280.58 163.41 280.93 163.16C281.4 162.87 281.89 162.62 282.4 162.4C282.9 162.19 283.43 162.01 283.96 161.88C284.49 161.74 285.04 161.65 285.58 161.6C286.13 161.55 286.68 161.54 287.23 161.57L289.51 161.57L289.51 160.51C289.52 160.33 289.51 160.14 289.48 159.96C289.46 159.78 289.42 159.6 289.36 159.42C289.31 159.25 289.24 159.08 289.15 158.92C289.06 158.76 288.96 158.6 288.85 158.46C288.71 158.32 288.57 158.2 288.41 158.1C288.25 157.99 288.08 157.91 287.9 157.84C287.72 157.78 287.53 157.73 287.34 157.7C287.15 157.68 286.96 157.67 286.77 157.69C286.6 157.68 286.42 157.69 286.25 157.71C286.08 157.73 285.91 157.76 285.74 157.81C285.57 157.87 285.41 157.93 285.26 158.01C285.1 158.09 284.95 158.18 284.81 158.29C284.7 158.39 284.59 158.5 284.5 158.63C284.41 158.75 284.33 158.89 284.27 159.03C284.21 159.17 284.16 159.32 284.14 159.47C284.11 159.62 284.1 159.78 284.11 159.93L279.17 159.93C279.17 159.67 279.19 159.4 279.23 159.14C279.27 158.87 279.34 158.62 279.42 158.36C279.51 158.11 279.61 157.87 279.73 157.63C279.86 157.4 280 157.17 280.16 156.96C280.34 156.72 280.53 156.49 280.74 156.28C280.95 156.07 281.17 155.87 281.41 155.69C281.65 155.51 281.9 155.35 282.15 155.2C282.41 155.05 282.68 154.92 282.96 154.81C283.28 154.68 283.61 154.56 283.94 154.46C284.27 154.36 284.61 154.28 284.95 154.21C285.29 154.15 285.64 154.1 285.98 154.07C286.33 154.04 286.68 154.03 287.02 154.03C287.51 154.01 288 154.03 288.48 154.09C288.96 154.15 289.43 154.25 289.89 154.4C290.36 154.55 290.81 154.73 291.23 154.96C291.66 155.19 292.07 155.45 292.45 155.75C292.79 156.05 293.09 156.39 293.35 156.76C293.61 157.12 293.83 157.52 294.01 157.94C294.18 158.35 294.31 158.79 294.38 159.23C294.46 159.68 294.48 160.13 294.46 160.58L294.46 168.59C294.44 168.94 294.45 169.28 294.47 169.62C294.49 169.96 294.53 170.29 294.6 170.63C294.66 170.96 294.74 171.29 294.84 171.62C294.94 171.95 295.06 172.27 295.19 172.58L295.19 172.87L290.21 172.87ZM286.12 169.44C286.3 169.44 286.47 169.43 286.64 169.41C286.82 169.39 286.99 169.36 287.16 169.32C287.33 169.28 287.5 169.22 287.66 169.16C287.82 169.1 287.98 169.03 288.14 168.95C288.28 168.88 288.42 168.8 288.55 168.7C288.68 168.61 288.8 168.51 288.92 168.4C289.04 168.29 289.14 168.17 289.24 168.04C289.34 167.92 289.43 167.78 289.5 167.64L289.5 164.46L287.66 164.46C285.19 164.46 283.87 165.32 283.71 167.03L283.69 167.32C283.69 167.46 283.7 167.6 283.73 167.74C283.75 167.88 283.8 168.02 283.85 168.15C283.91 168.28 283.98 168.4 284.06 168.52C284.14 168.64 284.24 168.74 284.34 168.84C284.46 168.94 284.6 169.03 284.74 169.11C284.88 169.19 285.02 169.26 285.17 169.31C285.33 169.36 285.48 169.4 285.64 169.42C285.8 169.44 285.96 169.44 286.12 169.44L286.12 169.44ZM304.17 149.84L304.17 154.38L307.33 154.38L307.33 158L304.17 158L304.17 167.23C304.16 167.36 304.16 167.49 304.17 167.62C304.18 167.75 304.2 167.88 304.23 168C304.27 168.13 304.31 168.25 304.37 168.37C304.42 168.48 304.49 168.6 304.56 168.7C304.66 168.79 304.78 168.86 304.89 168.93C305.01 168.99 305.14 169.04 305.27 169.08C305.39 169.12 305.53 169.14 305.66 169.15C305.79 169.16 305.93 169.16 306.06 169.15C306.18 169.15 306.3 169.14 306.43 169.14C306.55 169.14 306.67 169.13 306.79 169.12C306.91 169.11 307.03 169.1 307.15 169.08C307.27 169.06 307.39 169.05 307.51 169.03L307.51 172.77C307.27 172.84 307.03 172.91 306.78 172.97C306.53 173.02 306.29 173.07 306.04 173.1C305.78 173.14 305.53 173.17 305.28 173.19C305.03 173.21 304.78 173.22 304.52 173.22C301.06 173.22 299.29 171.47 299.22 167.97L299.22 158L296.52 158L296.52 154.38L299.22 154.38L299.22 149.84L304.17 149.84ZM315.29 172.87L310.33 172.87L310.33 154.38L315.29 154.38L315.29 172.87ZM310.04 149.59C310.04 149.43 310.05 149.26 310.08 149.09C310.11 148.92 310.16 148.76 310.22 148.6C310.29 148.45 310.37 148.3 310.46 148.16C310.56 148.02 310.67 147.89 310.79 147.77C310.93 147.65 311.07 147.54 311.23 147.44C311.39 147.35 311.56 147.27 311.73 147.21C311.9 147.15 312.08 147.1 312.26 147.08C312.45 147.05 312.63 147.04 312.81 147.05C313 147.04 313.18 147.05 313.36 147.08C313.54 147.11 313.72 147.15 313.89 147.21C314.07 147.27 314.23 147.35 314.39 147.45C314.55 147.54 314.69 147.65 314.83 147.77C314.95 147.89 315.06 148.02 315.16 148.16C315.26 148.3 315.34 148.45 315.4 148.61C315.47 148.76 315.52 148.93 315.55 149.09C315.58 149.26 315.59 149.43 315.58 149.6C315.59 149.77 315.58 149.94 315.55 150.11C315.52 150.28 315.47 150.45 315.4 150.6C315.34 150.76 315.25 150.91 315.16 151.06C315.06 151.2 314.95 151.33 314.82 151.45C314.69 151.57 314.54 151.68 314.38 151.77C314.23 151.86 314.06 151.94 313.89 152C313.72 152.06 313.54 152.11 313.36 152.14C313.18 152.16 313 152.17 312.82 152.16C312.63 152.17 312.45 152.16 312.27 152.14C312.09 152.11 311.91 152.06 311.74 152C311.57 151.94 311.4 151.86 311.25 151.77C311.09 151.68 310.94 151.57 310.81 151.45C310.68 151.33 310.57 151.2 310.47 151.06C310.37 150.91 310.29 150.76 310.23 150.6C310.16 150.44 310.11 150.28 310.08 150.11C310.05 149.94 310.04 149.77 310.05 149.6L310.04 149.59ZM318.59 163.45C318.58 163.03 318.6 162.61 318.64 162.19C318.68 161.77 318.75 161.35 318.84 160.94C318.92 160.53 319.04 160.12 319.17 159.72C319.31 159.33 319.47 158.93 319.65 158.55C319.81 158.21 320 157.88 320.22 157.56C320.43 157.24 320.67 156.94 320.93 156.66C321.18 156.38 321.46 156.12 321.76 155.88C322.06 155.63 322.37 155.42 322.7 155.22C323.05 155.02 323.41 154.84 323.78 154.69C324.16 154.54 324.54 154.42 324.93 154.32C325.32 154.22 325.72 154.14 326.12 154.1C326.52 154.05 326.92 154.03 327.32 154.04C327.88 154.02 328.44 154.05 328.99 154.14C329.54 154.23 330.09 154.37 330.61 154.57C331.13 154.77 331.63 155.01 332.11 155.31C332.58 155.61 333.03 155.95 333.43 156.33C333.84 156.74 334.2 157.19 334.52 157.67C334.85 158.15 335.12 158.66 335.35 159.19C335.57 159.72 335.75 160.27 335.87 160.84C335.99 161.4 336.06 161.98 336.07 162.55L336.11 163.82C336.14 164.44 336.11 165.05 336.02 165.67C335.93 166.28 335.78 166.88 335.58 167.46C335.38 168.05 335.12 168.61 334.81 169.14C334.5 169.68 334.14 170.18 333.73 170.65C333.33 171.07 332.87 171.46 332.38 171.79C331.9 172.12 331.37 172.4 330.82 172.62C330.28 172.84 329.71 173.01 329.12 173.1C328.54 173.2 327.95 173.24 327.36 173.21C326.77 173.24 326.17 173.2 325.59 173.1C325.01 173.01 324.44 172.84 323.89 172.62C323.34 172.4 322.82 172.12 322.33 171.79C321.84 171.46 321.38 171.08 320.98 170.65C320.56 170.17 320.2 169.66 319.88 169.11C319.57 168.57 319.31 167.99 319.1 167.4C318.9 166.8 318.75 166.19 318.67 165.56C318.58 164.94 318.55 164.31 318.59 163.68L318.59 163.45ZM323.53 163.81C323.51 164.16 323.51 164.51 323.54 164.86C323.57 165.21 323.63 165.56 323.71 165.9C323.8 166.24 323.91 166.58 324.04 166.9C324.18 167.22 324.34 167.54 324.52 167.84C324.68 168.06 324.86 168.27 325.07 168.45C325.28 168.63 325.51 168.78 325.76 168.9C326.01 169.02 326.27 169.11 326.54 169.17C326.81 169.22 327.08 169.24 327.36 169.23C327.63 169.24 327.9 169.22 328.16 169.16C328.43 169.11 328.69 169.02 328.93 168.9C329.17 168.78 329.4 168.63 329.61 168.45C329.81 168.28 330 168.08 330.16 167.86C330.35 167.53 330.52 167.18 330.66 166.83C330.8 166.47 330.91 166.1 331 165.73C331.08 165.36 331.14 164.98 331.17 164.6C331.2 164.22 331.19 163.84 331.16 163.46C331.19 163.11 331.18 162.76 331.15 162.41C331.11 162.06 331.05 161.72 330.97 161.38C330.88 161.04 330.77 160.71 330.64 160.38C330.5 160.06 330.34 159.75 330.16 159.46C330 159.23 329.81 159.02 329.61 158.84C329.4 158.66 329.17 158.5 328.92 158.38C328.67 158.26 328.41 158.16 328.14 158.11C327.87 158.05 327.6 158.03 327.32 158.04C327.05 158.03 326.77 158.05 326.51 158.11C326.24 158.16 325.98 158.26 325.74 158.38C325.49 158.5 325.26 158.66 325.06 158.84C324.85 159.02 324.67 159.22 324.52 159.45C324.33 159.78 324.17 160.12 324.03 160.47C323.89 160.82 323.78 161.19 323.7 161.56C323.62 161.93 323.56 162.3 323.53 162.68C323.5 163.06 323.5 163.44 323.53 163.81L323.53 163.81ZM343.69 154.38L343.85 156.52C344.16 156.11 344.52 155.75 344.92 155.44C345.31 155.12 345.75 154.85 346.21 154.64C346.67 154.42 347.15 154.26 347.65 154.16C348.15 154.06 348.66 154.02 349.16 154.04C349.57 154.01 349.98 154.02 350.38 154.08C350.78 154.14 351.17 154.25 351.55 154.4C351.93 154.54 352.29 154.74 352.62 154.97C352.96 155.2 353.26 155.46 353.54 155.76C353.8 156.14 354.03 156.53 354.23 156.94C354.43 157.35 354.59 157.78 354.72 158.22C354.84 158.66 354.93 159.1 354.98 159.56C355.03 160.01 355.04 160.47 355.01 160.92L355.01 172.87L350.07 172.87L350.07 161.05C350.09 160.84 350.09 160.64 350.07 160.44C350.05 160.23 350.01 160.03 349.95 159.84C349.89 159.64 349.81 159.45 349.72 159.27C349.62 159.09 349.51 158.92 349.38 158.76C349.23 158.63 349.06 158.52 348.88 158.42C348.7 158.32 348.52 158.24 348.32 158.18C348.13 158.12 347.93 158.08 347.72 158.06C347.52 158.04 347.32 158.04 347.11 158.06C346.8 158.04 346.48 158.07 346.17 158.15C345.87 158.22 345.57 158.34 345.3 158.5C345.02 158.65 344.77 158.85 344.55 159.07C344.33 159.3 344.14 159.55 343.99 159.83L343.99 172.87L339.05 172.87L339.05 154.38L343.69 154.38Z" />
				<path id="Path_977" class="shp1" d="M33.02 203.16C32.89 202.91 32.75 202.66 32.62 202.42C32.48 202.18 32.34 201.93 32.2 201.69C32.05 201.45 31.91 201.22 31.76 200.98C31.61 200.74 31.45 200.51 31.29 200.28L30.18 200.76C30.34 200.99 30.5 201.23 30.65 201.46C30.8 201.7 30.95 201.94 31.09 202.18C31.23 202.42 31.37 202.67 31.5 202.91C31.63 203.16 31.76 203.41 31.88 203.66L33.02 203.16ZM28.25 203.66C28.86 203.66 29.59 203.68 30.2 203.72L30.2 201.98C30.04 202 29.88 202.01 29.72 202.03C29.55 202.05 29.39 202.06 29.23 202.07C29.07 202.08 28.9 202.09 28.74 202.09C28.58 202.1 28.41 202.1 28.25 202.1L20.98 202.1C20.82 202.1 20.66 202.1 20.51 202.09C20.35 202.08 20.19 202.07 20.03 202.06C19.87 202.05 19.71 202.04 19.55 202.03C19.39 202.01 19.23 201.99 19.07 201.98L19.07 203.72C19.62 203.68 20.31 203.66 21 203.66L28.25 203.66ZM18.42 207.36C17.77 207.36 17.16 207.31 16.59 207.27L16.59 208.99C17.16 208.95 17.77 208.95 18.42 208.95L24.7 208.95C24.72 209.4 24.7 209.85 24.66 210.3C24.62 210.75 24.54 211.2 24.44 211.64C24.34 212.08 24.21 212.51 24.05 212.93C23.89 213.35 23.7 213.76 23.48 214.16C23.24 214.52 22.97 214.86 22.68 215.18C22.39 215.5 22.08 215.79 21.74 216.06C21.4 216.34 21.05 216.58 20.68 216.8C20.3 217.02 19.91 217.21 19.51 217.37L21.07 218.53C21.49 218.31 21.9 218.07 22.29 217.79C22.69 217.52 23.06 217.22 23.41 216.9C23.76 216.57 24.08 216.22 24.38 215.85C24.68 215.48 24.96 215.09 25.2 214.69C25.42 214.24 25.6 213.78 25.76 213.32C25.92 212.85 26.06 212.37 26.16 211.89C26.26 211.41 26.34 210.92 26.39 210.43C26.43 209.94 26.45 209.45 26.44 208.95L32.16 208.95C32.66 208.95 33.33 208.97 33.79 208.99L33.79 207.27C33.66 207.29 33.52 207.3 33.39 207.31C33.25 207.32 33.11 207.33 32.98 207.34C32.84 207.34 32.7 207.35 32.57 207.35C32.43 207.36 32.29 207.36 32.16 207.36L18.42 207.36ZM32.49 199.9C32.66 200.13 32.82 200.36 32.97 200.6C33.13 200.83 33.28 201.07 33.42 201.31C33.57 201.56 33.71 201.8 33.85 202.05C33.98 202.3 34.11 202.55 34.23 202.8L35.37 202.3C35.24 202.05 35.1 201.81 34.96 201.57C34.82 201.32 34.68 201.08 34.53 200.85C34.38 200.61 34.23 200.37 34.08 200.14C33.92 199.9 33.77 199.67 33.61 199.45L32.49 199.9ZM50.85 201.67L49.69 202.17C49.87 202.42 50.05 202.69 50.22 202.96C50.4 203.22 50.56 203.5 50.72 203.77C50.88 204.05 51.03 204.33 51.18 204.61C51.33 204.89 51.47 205.18 51.6 205.47L52.8 204.92C52.66 204.64 52.51 204.36 52.35 204.08C52.2 203.81 52.04 203.53 51.87 203.26C51.71 202.99 51.54 202.72 51.37 202.46C51.2 202.19 51.03 201.93 50.85 201.67L50.85 201.67ZM53.6 200.66L52.42 201.16C52.61 201.41 52.79 201.68 52.97 201.94C53.14 202.21 53.31 202.47 53.48 202.75C53.65 203.02 53.81 203.29 53.96 203.57C54.12 203.85 54.27 204.13 54.42 204.41L55.62 203.87C55.46 203.59 55.31 203.31 55.15 203.04C54.99 202.77 54.83 202.5 54.66 202.23C54.49 201.96 54.32 201.7 54.14 201.44C53.96 201.17 53.78 200.91 53.6 200.66L53.6 200.66ZM41.88 201.35L40.93 202.76C42.15 203.47 44.44 204.98 45.45 205.76L46.44 204.31C45.53 203.66 43.12 202.04 41.88 201.35L41.88 201.35ZM38.73 216.37L39.7 218.06C40.3 217.94 40.9 217.78 41.5 217.61C42.1 217.44 42.69 217.24 43.27 217.02C43.85 216.81 44.42 216.57 44.99 216.31C45.55 216.05 46.1 215.77 46.65 215.47C47.45 215 48.23 214.49 48.97 213.94C49.72 213.39 50.43 212.8 51.11 212.17C51.79 211.54 52.44 210.87 53.04 210.17C53.64 209.47 54.21 208.73 54.73 207.97L53.72 206.22C53.24 207.02 52.71 207.79 52.13 208.52C51.55 209.26 50.92 209.95 50.25 210.6C49.58 211.25 48.86 211.85 48.11 212.41C47.36 212.97 46.58 213.48 45.76 213.93C45.21 214.23 44.65 214.5 44.08 214.75C43.51 215.01 42.93 215.23 42.34 215.44C41.76 215.64 41.16 215.82 40.56 215.97C39.95 216.13 39.34 216.26 38.73 216.37L38.73 216.37ZM38.71 206.08L37.76 207.5C38.16 207.72 38.55 207.94 38.94 208.17C39.33 208.4 39.72 208.63 40.1 208.87C40.49 209.11 40.87 209.36 41.24 209.61C41.62 209.86 41.99 210.12 42.36 210.38L43.33 208.91C42.4 208.26 39.95 206.75 38.71 206.08L38.71 206.08ZM73.34 203.03C73.23 203.07 73.11 203.1 73 203.13C72.89 203.16 72.77 203.18 72.65 203.2C72.54 203.22 72.42 203.23 72.3 203.24C72.19 203.24 72.07 203.24 71.95 203.24L66.22 203.24C66.39 202.97 66.53 202.72 66.66 202.46C66.87 202.06 67.25 201.35 67.58 200.8L65.69 200.2C65.65 200.34 65.61 200.48 65.56 200.63C65.51 200.77 65.46 200.91 65.4 201.05C65.34 201.19 65.28 201.33 65.22 201.47C65.16 201.61 65.09 201.74 65.02 201.88C64.64 202.62 64.2 203.34 63.72 204.02C63.24 204.71 62.71 205.36 62.14 205.97C61.57 206.59 60.96 207.16 60.32 207.7C59.67 208.23 58.99 208.72 58.28 209.16L59.69 210.25C60.23 209.88 60.75 209.48 61.25 209.06C61.76 208.64 62.24 208.2 62.71 207.73C63.17 207.27 63.62 206.79 64.05 206.29C64.47 205.79 64.87 205.27 65.25 204.73L72.39 204.73C72.25 205.23 72.09 205.73 71.91 206.22C71.72 206.71 71.52 207.19 71.29 207.66C71.06 208.13 70.81 208.58 70.55 209.03C70.28 209.48 69.99 209.92 69.68 210.34C68.05 209.35 66.28 208.34 65.06 207.71L63.99 208.95C65.17 209.6 66.93 210.65 68.59 211.72C68.03 212.34 67.44 212.91 66.8 213.44C66.17 213.97 65.5 214.46 64.8 214.9C64.1 215.34 63.37 215.74 62.62 216.08C61.86 216.42 61.09 216.71 60.3 216.95L61.81 218.25C62.6 217.97 63.37 217.64 64.12 217.26C64.86 216.88 65.59 216.45 66.28 215.98C66.97 215.51 67.64 215 68.27 214.44C68.89 213.89 69.49 213.3 70.04 212.67C70.84 213.21 71.53 213.72 72.04 214.12L73.2 212.6C72.67 212.23 71.96 211.74 71.16 211.24C71.5 210.77 71.82 210.28 72.11 209.78C72.41 209.28 72.69 208.77 72.95 208.25C73.2 207.72 73.44 207.19 73.65 206.65C73.87 206.11 74.06 205.56 74.23 205C74.26 204.9 74.29 204.81 74.33 204.71C74.37 204.62 74.41 204.52 74.45 204.43C74.49 204.33 74.53 204.24 74.57 204.15C74.62 204.05 74.66 203.96 74.71 203.87L73.34 203.03ZM80.35 217.83C80.8 217.46 81.21 217.06 81.6 216.62C81.99 216.19 82.34 215.73 82.66 215.24C82.97 214.75 83.25 214.24 83.49 213.71C83.73 213.19 83.93 212.64 84.09 212.08C84.66 209.98 84.74 205.49 84.74 203.16C84.74 202.53 84.82 201.9 84.84 201.64L82.91 201.64C82.94 201.77 82.96 201.9 82.98 202.02C83 202.15 83.01 202.28 83.02 202.41C83.04 202.53 83.05 202.66 83.05 202.79C83.06 202.92 83.06 203.05 83.06 203.18C83.06 205.51 83.04 209.69 82.43 211.62C82.28 212.13 82.08 212.63 81.84 213.12C81.61 213.6 81.33 214.06 81.02 214.5C80.71 214.94 80.37 215.35 79.99 215.73C79.62 216.12 79.21 216.47 78.78 216.79L80.35 217.83ZM89.51 217.81C89.56 217.76 89.62 217.72 89.68 217.68C89.73 217.63 89.79 217.59 89.85 217.55C89.91 217.51 89.97 217.47 90.03 217.44C90.1 217.4 90.16 217.36 90.22 217.33C90.91 216.99 91.59 216.6 92.24 216.18C92.89 215.76 93.52 215.31 94.12 214.82C94.72 214.33 95.3 213.81 95.84 213.26C96.39 212.7 96.9 212.12 97.38 211.51L96.37 210.09C95.98 210.64 95.56 211.16 95.1 211.66C94.65 212.16 94.16 212.62 93.65 213.06C93.13 213.49 92.59 213.9 92.02 214.26C91.46 214.63 90.87 214.96 90.26 215.25L90.26 203.13C90.26 203 90.26 202.87 90.26 202.74C90.27 202.61 90.27 202.48 90.28 202.35C90.29 202.22 90.3 202.09 90.31 201.96C90.32 201.84 90.33 201.71 90.34 201.58L88.41 201.58C88.43 201.71 88.45 201.83 88.47 201.96C88.48 202.09 88.49 202.22 88.5 202.35C88.52 202.48 88.52 202.61 88.53 202.74C88.53 202.87 88.54 203 88.54 203.13L88.54 215.71C88.54 215.81 88.53 215.91 88.53 216.01C88.52 216.11 88.51 216.21 88.5 216.31C88.49 216.4 88.47 216.5 88.45 216.6C88.44 216.7 88.41 216.79 88.39 216.89L89.51 217.81ZM116.18 210.15C115.45 209.8 114.72 209.48 113.98 209.16C113.25 208.85 112.5 208.54 111.75 208.25C111.01 207.97 110.25 207.69 109.5 207.43C108.74 207.16 107.98 206.92 107.21 206.68L107.21 203.26C107.21 202.63 107.29 201.73 107.36 201.08L105.3 201.08C105.33 201.26 105.35 201.44 105.37 201.62C105.4 201.8 105.41 201.98 105.43 202.17C105.44 202.35 105.45 202.53 105.46 202.71C105.47 202.9 105.47 203.08 105.47 203.26L105.47 215.48C105.47 215.69 105.47 215.9 105.46 216.1C105.46 216.31 105.45 216.52 105.44 216.72C105.43 216.93 105.41 217.14 105.4 217.34C105.38 217.55 105.36 217.76 105.34 217.96L107.36 217.96C107.34 217.76 107.32 217.55 107.31 217.34C107.29 217.14 107.28 216.93 107.27 216.72C107.26 216.52 107.25 216.31 107.24 216.1C107.24 215.9 107.23 215.69 107.23 215.48L107.21 208.55C107.92 208.78 108.63 209.02 109.32 209.27C110.02 209.53 110.72 209.79 111.4 210.07C112.09 210.36 112.78 210.65 113.45 210.96C114.13 211.27 114.8 211.59 115.46 211.93L116.18 210.15ZM136.63 206.47C136.54 206.5 136.45 206.53 136.35 206.56C136.26 206.58 136.16 206.6 136.06 206.62C135.97 206.63 135.87 206.64 135.77 206.64C135.67 206.65 135.57 206.64 135.48 206.64L124.41 206.64C124.24 206.64 124.07 206.63 123.9 206.63C123.73 206.62 123.56 206.61 123.39 206.6C123.22 206.59 123.05 206.58 122.88 206.56C122.71 206.55 122.54 206.53 122.37 206.51L122.37 208.28C123.11 208.23 123.91 208.21 124.41 208.21L135.56 208.21C135.45 208.64 135.32 209.07 135.16 209.48C135 209.89 134.81 210.3 134.6 210.69C134.39 211.08 134.15 211.46 133.9 211.82C133.64 212.18 133.36 212.53 133.06 212.85C132.56 213.35 132.02 213.81 131.45 214.22C130.88 214.64 130.28 215.01 129.65 215.33C129.03 215.66 128.38 215.94 127.71 216.17C127.05 216.4 126.36 216.57 125.67 216.7L126.97 218.19C127.68 218.02 128.39 217.79 129.07 217.52C129.75 217.24 130.41 216.91 131.05 216.54C131.68 216.17 132.29 215.76 132.87 215.3C133.44 214.84 133.98 214.34 134.49 213.8C134.85 213.37 135.2 212.93 135.51 212.46C135.83 211.99 136.12 211.5 136.37 211C136.63 210.5 136.86 209.98 137.06 209.46C137.26 208.93 137.42 208.39 137.56 207.84C137.58 207.79 137.6 207.73 137.62 207.68C137.64 207.63 137.66 207.58 137.68 207.53C137.71 207.48 137.73 207.43 137.75 207.38C137.78 207.33 137.81 207.28 137.83 207.23L136.63 206.47ZM124.24 203.43C124.81 203.39 125.48 203.37 126.13 203.37L134.36 203.37C135.07 203.37 135.79 203.39 136.29 203.43L136.29 201.69C136.13 201.71 135.97 201.73 135.82 201.74C135.66 201.76 135.5 201.77 135.34 201.78C135.18 201.78 135.02 201.79 134.86 201.79C134.7 201.8 134.54 201.8 134.38 201.79L126.13 201.79C125.97 201.8 125.81 201.8 125.65 201.79C125.5 201.79 125.34 201.78 125.18 201.77C125.02 201.77 124.87 201.75 124.71 201.74C124.55 201.73 124.39 201.71 124.24 201.69L124.24 203.43ZM145.16 201.94L143.96 203.22C144.42 203.55 144.88 203.89 145.33 204.24C145.78 204.59 146.22 204.94 146.66 205.31C147.1 205.68 147.53 206.05 147.95 206.43C148.37 206.82 148.78 207.21 149.19 207.61L150.51 206.29C150.09 205.89 149.67 205.5 149.24 205.12C148.8 204.74 148.36 204.37 147.92 204.01C147.47 203.65 147.02 203.29 146.56 202.95C146.1 202.6 145.63 202.27 145.16 201.94L145.16 201.94ZM143.35 216.01L144.46 217.73C145.19 217.6 145.92 217.43 146.63 217.22C147.35 217.02 148.06 216.78 148.75 216.5C149.44 216.23 150.12 215.92 150.78 215.58C151.44 215.23 152.09 214.86 152.71 214.46C153.44 213.99 154.14 213.48 154.81 212.93C155.48 212.38 156.11 211.79 156.7 211.17C157.3 210.54 157.85 209.87 158.37 209.18C158.88 208.48 159.35 207.75 159.77 207L158.76 205.22C158.36 206 157.91 206.76 157.41 207.48C156.91 208.21 156.36 208.9 155.77 209.55C155.18 210.2 154.55 210.81 153.87 211.38C153.2 211.95 152.49 212.47 151.75 212.94C151.11 213.34 150.45 213.7 149.78 214.03C149.1 214.36 148.41 214.66 147.71 214.91C147 215.17 146.29 215.39 145.56 215.57C144.83 215.76 144.09 215.9 143.35 216.01L143.35 216.01ZM176.7 202.46C176.57 202.5 176.44 202.53 176.31 202.55C176.18 202.58 176.05 202.6 175.92 202.61C175.79 202.63 175.65 202.64 175.52 202.65C175.39 202.65 175.26 202.66 175.12 202.65L167.02 202.65C166.39 202.65 165.19 202.55 164.9 202.5L164.9 204.42C165.13 204.4 166.28 204.31 167.02 204.31L175.21 204.31C175.01 204.85 174.79 205.37 174.54 205.88C174.29 206.4 174.02 206.9 173.73 207.39C173.44 207.88 173.13 208.35 172.79 208.82C172.45 209.28 172.1 209.72 171.72 210.15C171.13 210.82 170.5 211.46 169.84 212.06C169.17 212.67 168.47 213.23 167.75 213.75C167.02 214.28 166.26 214.76 165.48 215.2C164.7 215.64 163.9 216.04 163.07 216.39L164.41 217.79C165.19 217.42 165.94 217.01 166.67 216.56C167.41 216.12 168.12 215.64 168.81 215.12C169.49 214.61 170.15 214.06 170.79 213.48C171.42 212.91 172.03 212.3 172.6 211.66C173.13 212.14 173.64 212.62 174.15 213.12C174.65 213.62 175.15 214.13 175.63 214.65C176.11 215.17 176.58 215.7 177.04 216.25C177.5 216.79 177.94 217.34 178.38 217.9L179.85 216.62C179.38 216.06 178.89 215.51 178.4 214.97C177.91 214.43 177.41 213.9 176.9 213.38C176.39 212.85 175.86 212.34 175.33 211.84C174.8 211.34 174.27 210.84 173.72 210.36C174.08 209.89 174.42 209.41 174.75 208.91C175.08 208.42 175.39 207.92 175.69 207.4C175.98 206.89 176.26 206.36 176.52 205.83C176.78 205.3 177.02 204.76 177.25 204.21C177.28 204.13 177.32 204.05 177.36 203.97C177.4 203.89 177.44 203.81 177.49 203.73C177.53 203.66 177.58 203.58 177.62 203.5C177.67 203.43 177.72 203.35 177.77 203.28L176.7 202.46ZM198.77 202.55C198.68 202.57 198.59 202.59 198.49 202.6C198.4 202.62 198.31 202.63 198.22 202.64C198.12 202.64 198.03 202.65 197.94 202.65C197.84 202.66 197.75 202.66 197.66 202.65L187.11 202.65C186.42 202.65 185.6 202.59 185.01 202.53L185.01 204.37C185.56 204.35 186.27 204.31 187.11 204.31L197.85 204.31C197.76 204.93 197.63 205.53 197.47 206.13C197.31 206.73 197.11 207.32 196.88 207.9C196.65 208.47 196.38 209.04 196.08 209.58C195.79 210.12 195.46 210.65 195.09 211.16C194.59 211.8 194.03 212.4 193.41 212.95C192.8 213.49 192.15 213.98 191.45 214.41C190.75 214.84 190.02 215.21 189.26 215.52C188.49 215.82 187.71 216.05 186.91 216.22L188.33 217.79C189.15 217.56 189.94 217.26 190.71 216.9C191.48 216.54 192.22 216.12 192.92 215.64C193.62 215.16 194.28 214.63 194.9 214.05C195.52 213.47 196.09 212.84 196.61 212.17C196.99 211.58 197.35 210.98 197.68 210.36C198.01 209.74 198.3 209.1 198.56 208.45C198.83 207.8 199.06 207.14 199.25 206.46C199.45 205.79 199.61 205.11 199.74 204.42C199.75 204.33 199.77 204.24 199.79 204.15C199.81 204.06 199.83 203.97 199.86 203.88C199.89 203.79 199.92 203.71 199.95 203.62C199.98 203.53 200.01 203.45 200.05 203.37L198.77 202.55ZM216.6 207.61L216.56 205.91C216.56 205.79 216.56 205.67 216.56 205.56C216.56 205.44 216.57 205.32 216.57 205.2C216.58 205.09 216.59 204.97 216.6 204.85C216.61 204.73 216.63 204.62 216.64 204.5L214.86 204.5C214.88 204.62 214.9 204.73 214.92 204.85C214.94 204.97 214.95 205.08 214.96 205.2C214.98 205.32 214.99 205.44 214.99 205.55C215 205.67 215 205.79 215.01 205.91C215.03 206.31 215.05 206.9 215.07 207.61L208.75 207.61C208.62 207.61 208.49 207.61 208.36 207.6C208.23 207.6 208.1 207.6 207.97 207.59C207.84 207.58 207.71 207.57 207.58 207.56C207.45 207.55 207.32 207.54 207.19 207.52L207.19 209.18C207.69 209.14 208.22 209.12 208.79 209.12L214.4 209.12C213.89 209.8 213.34 210.45 212.75 211.06C212.17 211.67 211.55 212.25 210.89 212.79C210.24 213.33 209.55 213.83 208.84 214.29C208.13 214.76 207.39 215.17 206.63 215.55L207.8 216.85C208.51 216.46 209.2 216.04 209.86 215.59C210.52 215.13 211.16 214.64 211.78 214.12C212.39 213.6 212.98 213.05 213.53 212.47C214.09 211.89 214.62 211.28 215.11 210.65C215.15 212.88 215.18 215.23 215.18 216.55C215.19 216.63 215.18 216.71 215.16 216.79C215.13 216.86 215.09 216.93 215.04 216.99C214.98 217.05 214.92 217.1 214.84 217.13C214.77 217.15 214.69 217.17 214.61 217.16C214.39 217.16 214.18 217.15 213.97 217.14C213.75 217.13 213.54 217.12 213.32 217.11C213.11 217.09 212.9 217.07 212.68 217.05C212.47 217.03 212.26 217 212.05 216.97L212.13 218.5C212.97 218.55 214.33 218.63 215.18 218.63C215.38 218.65 215.58 218.63 215.77 218.57C215.96 218.51 216.14 218.4 216.29 218.27C216.44 218.13 216.56 217.96 216.64 217.77C216.71 217.59 216.75 217.39 216.75 217.18C216.72 215.21 216.66 211.77 216.62 209.12L219.66 209.12C220.06 209.12 220.65 209.16 221.03 209.18L221.03 207.52C220.91 207.54 220.8 207.55 220.68 207.56C220.56 207.57 220.44 207.58 220.33 207.58C220.21 207.59 220.09 207.6 219.98 207.6C219.86 207.6 219.74 207.61 219.62 207.61L216.6 207.61ZM226.11 210.3C226.76 210.23 227.88 210.2 229.03 210.2L240.56 210.2C241.5 210.2 242.39 210.28 242.81 210.3L242.81 208.24C242.34 208.28 241.59 208.34 240.54 208.34L229.03 208.34C227.86 208.34 226.74 208.28 226.11 208.24L226.11 210.3ZM259.19 201.37C259.16 201.5 259.13 201.63 259.1 201.76C259.07 201.9 259.04 202.03 259 202.16C258.97 202.28 258.93 202.41 258.89 202.54C258.85 202.67 258.81 202.8 258.77 202.93C258.6 203.43 258.41 203.93 258.2 204.42C258 204.91 257.78 205.4 257.54 205.88C257.3 206.35 257.05 206.82 256.78 207.28C256.51 207.74 256.23 208.2 255.93 208.64C254.27 207.36 251.83 205.64 250.05 204.5L248.94 205.82C249.45 206.15 249.96 206.48 250.46 206.81C250.97 207.15 251.46 207.5 251.96 207.85C252.45 208.21 252.93 208.57 253.41 208.94C253.9 209.3 254.37 209.68 254.84 210.07C254.28 210.76 253.69 211.43 253.05 212.06C252.42 212.69 251.75 213.29 251.05 213.84C250.35 214.4 249.62 214.91 248.86 215.38C248.1 215.85 247.31 216.28 246.5 216.66L247.99 217.98C248.79 217.57 249.56 217.11 250.3 216.62C251.04 216.12 251.76 215.59 252.45 215.02C253.14 214.45 253.8 213.84 254.43 213.21C255.05 212.57 255.65 211.9 256.2 211.2C256.65 211.57 257.08 211.95 257.51 212.34C257.94 212.72 258.36 213.12 258.77 213.52C259.19 213.93 259.59 214.34 259.99 214.76C260.39 215.17 260.78 215.6 261.16 216.03L262.48 214.56C262.08 214.14 261.67 213.72 261.25 213.3C260.83 212.89 260.4 212.49 259.97 212.09C259.54 211.69 259.11 211.29 258.66 210.91C258.22 210.52 257.77 210.14 257.32 209.77C257.64 209.29 257.95 208.8 258.25 208.3C258.54 207.8 258.82 207.29 259.08 206.77C259.35 206.25 259.59 205.73 259.83 205.19C260.06 204.66 260.27 204.12 260.47 203.58C260.64 203.13 260.95 202.44 261.16 202.04L259.19 201.37ZM267.27 210.3C267.92 210.23 269.04 210.2 270.19 210.2L281.72 210.2C282.66 210.2 283.55 210.28 283.97 210.3L283.97 208.24C283.5 208.28 282.75 208.34 281.7 208.34L270.19 208.34C269.01 208.34 267.9 208.28 267.27 208.24L267.27 210.3ZM292.03 201.2L291.09 202.61C292.32 203.32 294.59 204.84 295.6 205.59L296.59 204.16C295.69 203.49 293.27 201.9 292.03 201.2ZM288.88 216.2L289.85 217.92C290.46 217.79 291.06 217.63 291.66 217.46C292.25 217.28 292.84 217.09 293.43 216.87C294.01 216.65 294.58 216.41 295.15 216.15C295.72 215.9 296.27 215.62 296.82 215.32C297.62 214.85 298.4 214.34 299.14 213.79C299.89 213.24 300.6 212.65 301.28 212.02C301.95 211.38 302.6 210.71 303.2 210.01C303.8 209.31 304.36 208.57 304.88 207.8L303.88 206.08C303.39 206.88 302.86 207.65 302.28 208.38C301.7 209.11 301.07 209.8 300.4 210.44C299.73 211.09 299.02 211.7 298.27 212.25C297.52 212.81 296.73 213.31 295.92 213.76C295.37 214.06 294.81 214.34 294.24 214.59C293.67 214.85 293.09 215.07 292.5 215.28C291.91 215.48 291.31 215.66 290.71 215.81C290.11 215.97 289.5 216.09 288.88 216.2ZM288.86 205.93L287.94 207.36C288.33 207.58 288.72 207.8 289.11 208.03C289.5 208.25 289.89 208.49 290.27 208.73C290.65 208.97 291.03 209.21 291.4 209.46C291.78 209.71 292.15 209.97 292.51 210.23L293.48 208.76C292.56 208.09 290.12 206.6 288.86 205.93ZM322.96 218.51C322.94 218.21 322.92 217.71 322.92 217.37L322.92 206.92C322.92 206.52 322.92 206.08 322.94 205.84C322.67 205.87 322.12 205.89 321.66 205.89L313.53 205.89C312.98 205.89 311.79 205.84 311.39 205.8L311.39 207.44C311.77 207.42 312.99 207.38 313.53 207.38L321.32 207.38L321.32 210.88L313.72 210.88C313.01 210.88 312.25 210.82 311.85 210.8L311.85 212.42C312.27 212.4 313.01 212.38 313.74 212.38L321.32 212.38L321.32 216.11L312.86 216.11C312.72 216.11 312.57 216.11 312.43 216.11C312.29 216.11 312.14 216.1 312 216.09C311.85 216.09 311.71 216.08 311.57 216.07C311.42 216.06 311.28 216.04 311.14 216.03L311.14 217.71C311.47 217.69 312.21 217.65 312.86 217.65L321.32 217.65C321.32 217.98 321.32 218.32 321.3 218.51L322.96 218.51ZM332.47 201.94L331.27 203.22C331.74 203.55 332.19 203.89 332.64 204.24C333.09 204.59 333.54 204.94 333.97 205.31C334.41 205.68 334.84 206.05 335.26 206.43C335.68 206.82 336.1 207.21 336.5 207.61L337.83 206.29C337.41 205.89 336.98 205.5 336.55 205.12C336.12 204.74 335.68 204.37 335.23 204.01C334.79 203.65 334.33 203.29 333.87 202.95C333.41 202.6 332.95 202.27 332.48 201.94L332.47 201.94ZM330.67 216.01L331.78 217.73C332.52 217.6 333.24 217.43 333.96 217.22C334.67 217.02 335.38 216.78 336.07 216.5C336.77 216.23 337.44 215.92 338.11 215.58C338.77 215.23 339.41 214.86 340.04 214.46C340.77 213.99 341.47 213.48 342.13 212.93C342.8 212.38 343.43 211.79 344.03 211.17C344.62 210.54 345.18 209.87 345.69 209.18C346.2 208.48 346.67 207.75 347.09 207L346.08 205.22C345.69 206 345.24 206.76 344.74 207.48C344.24 208.21 343.69 208.9 343.1 209.55C342.51 210.2 341.87 210.81 341.2 211.38C340.52 211.95 339.81 212.47 339.07 212.94C338.43 213.34 337.78 213.7 337.1 214.03C336.43 214.36 335.74 214.66 335.03 214.91C334.33 215.17 333.61 215.39 332.88 215.57C332.15 215.76 331.41 215.9 330.67 216.01L330.67 216.01Z" />
			</g>
			<g id="Group_993">
				<g id="Group_525">
					<g id="Group_512">
						<path id="Path_635" class="shp2" d="M222.76 89.77L285.08 27.45L283.74 26.1L222.76 87.07L198.91 63.22L197.56 64.57L222.76 89.77Z" />
						<path id="Path_636" class="shp2" d="M284.16 34.69L286.06 34.69L286.06 24.9L276.26 24.9L276.26 26.81L284.16 26.81L284.16 34.69Z" />
					</g>
					<g id="Group_513">
						<path id="Path_637" class="shp2" d="M219.19 115.37L270.9 63.65L269.56 62.31L219.19 112.67L199.55 93.04L198.2 94.38L219.19 115.37Z" />
						<path id="Path_638" class="shp2" d="M269.86 69.54L271.76 69.54L271.76 61.27L263.49 61.27L263.49 63.17L269.86 63.17L269.86 69.54Z" />
					</g>
					<g id="Group_514">
						<path id="Path_639" class="shp2" d="M94.77 117.59L155.74 56.61L179.6 80.47L180.95 79.12L155.75 53.92L93.41 116.24L94.77 117.59Z" />
					</g>
					<g id="Group_515">
						<path id="Path_640" class="shp2" d="M108.95 81.38L159.32 31.01L178.96 50.65L180.31 49.3L159.32 28.32L107.6 80.03L108.95 81.38Z" />
					</g>
					<g id="Group_516">
						<path id="Path_641" class="shp2" d="M261.72 93.02L265.35 89.39L268.99 93.02L270.34 91.67L265.35 86.69L260.37 91.67L261.72 93.02Z" />
						<path id="Rectangle_386" class="shp2" d="M264.4 88.04L266.31 88.04L266.31 95.4L264.4 95.4L264.4 88.04Z" />
					</g>
					<g id="Group_517">
						<path id="Path_642" class="shp2" d="M117.63 121.52L121.26 117.89L124.9 121.52L126.25 120.18L121.26 115.19L116.28 120.18L117.63 121.52Z" />
						<path id="Rectangle_387" class="shp2" d="M120.31 116.54L122.22 116.54L122.22 123.9L120.31 123.9L120.31 116.54Z" />
					</g>
					<g id="Group_518">
						<path id="Path_643" class="shp2" d="M240.58 15.73L244.21 12.1L247.85 15.73L249.19 14.38L244.21 9.4L239.23 14.38L240.58 15.73Z" />
						<path id="Rectangle_388" class="shp2" d="M243.26 10.75L245.16 10.75L245.16 18.11L243.26 18.11L243.26 10.75Z" />
					</g>
					<g id="Group_520">
						<g id="Group_519">
							<path id="Path_644" fill-rule="evenodd" class="shp2" d="M91.78 45.87C91.78 44.07 92.5 42.35 93.77 41.07C95.04 39.8 96.77 39.09 98.57 39.09C100.37 39.09 102.09 39.8 103.37 41.07C104.64 42.35 105.35 44.07 105.35 45.87L105.35 48.78L91.78 48.78L91.78 45.87ZM103.45 45.87C103.43 44.59 102.91 43.37 101.99 42.47C101.08 41.57 99.85 41.06 98.57 41.06C97.29 41.06 96.05 41.57 95.14 42.47C94.23 43.37 93.71 44.59 93.69 45.87L93.69 46.87L103.45 46.87L103.45 45.87Z" />
						</g>
						<path id="Path_645" fill-rule="evenodd" class="shp2" d="M98.57 40.38C97.92 40.38 97.29 40.26 96.69 40.01C96.1 39.77 95.56 39.4 95.1 38.95C94.65 38.49 94.29 37.95 94.04 37.36C93.79 36.77 93.67 36.13 93.67 35.49C93.67 33.5 94.86 31.72 96.69 30.96C98.52 30.2 100.63 30.62 102.03 32.02C103.43 33.42 103.85 35.53 103.09 37.36C102.34 39.19 100.55 40.39 98.57 40.38ZM98.57 32.5C98.17 32.5 97.79 32.58 97.42 32.73C97.06 32.88 96.73 33.1 96.45 33.38C96.18 33.65 95.96 33.98 95.81 34.35C95.66 34.71 95.58 35.1 95.58 35.49C95.58 36.7 96.31 37.79 97.42 38.25C98.54 38.71 99.83 38.46 100.68 37.6C101.54 36.75 101.79 35.46 101.33 34.35C100.87 33.23 99.78 32.5 98.57 32.5Z" />
					</g>
					<g id="Group_524">
						<g id="Group_523">
							<path id="Path_648" fill-rule="evenodd" class="shp2" d="M272.49 116.64C272.49 114.84 273.21 113.11 274.48 111.84C275.75 110.57 277.48 109.85 279.28 109.85C281.08 109.85 282.8 110.57 284.08 111.84C285.35 113.11 286.06 114.84 286.06 116.64L286.06 119.55L272.49 119.55L272.49 116.64ZM284.16 116.64C284.16 115.35 283.64 114.11 282.73 113.19C281.81 112.28 280.57 111.76 279.28 111.76C277.98 111.76 276.74 112.28 275.83 113.19C274.91 114.11 274.4 115.35 274.4 116.64L274.4 117.64L284.16 117.64L284.16 116.64Z" />
						</g>
						<path id="Path_649" fill-rule="evenodd" class="shp2" d="M279.28 111.15C278.63 111.15 278 111.02 277.4 110.78C276.81 110.53 276.27 110.17 275.81 109.72C275.36 109.26 275 108.72 274.75 108.13C274.51 107.53 274.38 106.9 274.38 106.25C274.38 104.27 275.58 102.48 277.41 101.72C279.24 100.97 281.35 101.39 282.75 102.79C284.15 104.19 284.57 106.3 283.81 108.13C283.05 109.96 281.26 111.15 279.28 111.15ZM279.28 103.27C278.88 103.27 278.5 103.35 278.13 103.5C277.77 103.65 277.44 103.87 277.16 104.14C276.89 104.42 276.67 104.75 276.52 105.11C276.37 105.48 276.29 105.86 276.29 106.26C276.29 107.46 277.02 108.55 278.13 109.02C279.25 109.48 280.53 109.22 281.39 108.37C282.24 107.51 282.5 106.23 282.04 105.11C281.57 104 280.48 103.27 279.28 103.27Z" />
					</g>
					<path id="Path_650" class="shp2" d="M229.18 55.36L230.52 54.01L229.18 52.66L227.83 54.01L229.18 55.36ZM233.22 51.31L234.57 49.96L233.22 48.62L231.87 49.96L233.22 51.31ZM237.26 47.27L238.61 45.92L237.26 44.57L235.92 45.92L237.26 47.27ZM241.31 43.22L242.66 41.88L241.31 40.53L239.96 41.87L241.31 43.22ZM245.35 39.18L246.7 37.83L245.35 36.48L244 37.83L245.35 39.18ZM249.39 35.14L250.74 33.79L249.39 32.44L248.05 33.79L249.39 35.14ZM253.44 31.09L254.79 29.75L253.44 28.4L252.09 29.75L253.44 31.09ZM257.48 27.05L258.83 25.7L257.48 24.35L256.13 25.7L257.48 27.05ZM261.52 23.01L262.87 21.66L261.52 20.31L260.17 21.66L261.52 23.01ZM265.57 18.96L266.92 17.61L265.57 16.27L264.22 17.62L265.57 18.96ZM269.61 14.92L270.96 13.57L269.61 12.22L268.26 13.57L269.61 14.92Z" />
					<path id="Path_651" class="shp2" d="M91.22 82.12L92.57 80.77L91.22 79.43L89.87 80.77L91.22 82.12ZM95.26 78.08L96.61 76.73L95.26 75.38L93.91 76.73L95.26 78.08ZM99.31 74.04L100.65 72.69L99.31 71.34L97.96 72.69L99.31 74.04ZM103.35 69.99L104.7 68.64L103.35 67.29L102 68.64L103.35 69.99ZM107.39 65.95L108.74 64.6L107.39 63.25L106.04 64.6L107.39 65.95ZM111.44 61.9L112.78 60.56L111.44 59.21L110.09 60.56L111.44 61.9ZM115.48 57.86L116.83 56.51L115.48 55.16L114.13 56.51L115.48 57.86ZM119.52 53.82L120.87 52.47L119.52 51.12L118.17 52.47L119.52 53.82ZM123.57 49.77L124.92 48.42L123.57 47.08L122.22 48.42L123.57 49.77ZM127.61 45.73L128.96 44.38L127.61 43.03L126.26 44.38L127.61 45.73ZM131.65 41.69L133 40.34L131.65 38.99L130.31 40.34L131.65 41.69ZM135.7 37.64L137.05 36.29L135.7 34.95L134.35 36.29L135.7 37.64Z" />
					<path id="Path_654" class="shp2" d="M133.83 8.62L135.1 8.62L135.1 6.71L133.83 6.71L133.83 8.62ZM138.91 8.62L140.82 8.62L140.82 6.71L138.91 6.71L138.91 8.62ZM144.63 8.62L146.54 8.62L146.54 6.71L144.63 6.71L144.63 8.62ZM150.35 8.62L152.26 8.62L152.26 6.71L150.35 6.71L150.35 8.62Z" />
					<path id="Path_655" class="shp2" d="M107.14 39.75L109.05 39.75L109.05 37.84L107.14 37.84L107.14 39.75ZM112.86 39.75L114.77 39.75L114.77 37.84L112.86 37.84L112.86 39.75ZM118.58 39.75L120.49 39.75L120.49 37.84L118.58 37.84L118.58 39.75Z" />
					<path id="Path_656" class="shp2" d="M201.18 132.52L203.09 132.52L203.09 130.61L201.18 130.61L201.18 132.52ZM206.9 132.52L208.81 132.52L208.81 130.61L206.9 130.61L206.9 132.52ZM212.62 132.52L214.52 132.52L214.52 130.61L212.62 130.61L212.62 132.52ZM218.34 132.52L220.24 132.52L220.24 130.61L218.34 130.61L218.34 132.52Z" />
					<path id="Rectangle_389" class="shp2" d="M280.6 81.37L296.49 81.37L296.49 85.82L280.6 85.82L280.6 81.37Z" />
					<path id="Rectangle_390" class="shp2" d="M133.83 18.15L141.77 18.15L141.77 22.6L133.83 22.6L133.83 18.15Z" />
					<path id="Rectangle_392" class="shp2" d="M272.02 102.55L289.51 102.55L289.51 102.55L272.02 102.55L272.02 102.55Z" />
					<path id="Rectangle_393" class="shp2" d="M251.04 44.85L258.03 44.85L258.03 46.59L251.04 46.59L251.04 44.85Z" />
					<path id="Rectangle_394" class="shp2" d="M119.89 55.34L144.37 55.34L144.37 58.83L119.89 58.83L119.89 55.34Z" />
					<path id="Rectangle_395" class="shp2" d="M83.17 58.83L100.66 58.83L100.66 60.58L83.17 60.58L83.17 58.83Z" />
					<path id="Rectangle_398" class="shp2" d="M284.26 11.62L296.5 11.62L296.5 13.37L284.26 13.37L284.26 11.62Z" />
					<path id="Rectangle_399" class="shp2" d="M207.32 4.63L223.06 4.63L223.06 6.38L207.32 6.38L207.32 4.63Z" />
					<path id="Rectangle_401" class="shp2" d="M70.93 65.83L86.66 65.83L86.66 65.83L70.93 65.83L70.93 65.83Z" />
				</g>
				<g id="Group_526">
					<g id="Group_487">
						<g id="Group_486">
							<g id="Group_483">
								<path id="Path_598" class="shp0" d="M257.36 76.88C257.37 92.34 248.06 106.28 233.78 112.21C219.49 118.13 203.05 114.87 192.11 103.94C181.17 93.01 177.89 76.57 183.8 62.28C189.72 47.99 203.65 38.67 219.11 38.67C224.13 38.66 229.1 39.65 233.74 41.57C238.38 43.49 242.6 46.3 246.15 49.85C249.7 53.4 252.52 57.61 254.44 62.25C256.36 66.89 257.35 71.86 257.36 76.87L257.36 76.88Z" />
								<path id="Path_599" fill-rule="evenodd" class="shp2" d="M219.13 115.94C197.58 115.93 180.11 98.45 180.11 76.9C180.11 55.35 197.59 37.87 219.14 37.87C240.7 37.87 258.17 55.35 258.17 76.9C258.18 98.45 240.71 115.93 219.15 115.94L219.13 115.94ZM219.14 39.48C209.21 39.48 199.7 43.42 192.68 50.44C185.66 57.45 181.72 66.97 181.72 76.89C181.72 86.81 185.66 96.33 192.68 103.35C199.69 110.36 209.21 114.31 219.13 114.31L219.13 115.12L219.15 114.31C229.07 114.3 238.59 110.36 245.6 103.34C252.62 96.33 256.56 86.81 256.56 76.89C256.56 66.96 252.61 57.45 245.59 50.43C238.58 43.42 229.06 39.48 219.14 39.48L219.14 39.48Z" />
							</g>
							<g id="Group_484">
								<path id="Path_600" class="shp0" d="M245.17 76.88C245.18 97.99 233.52 115.11 219.15 115.12C204.78 115.13 193.11 98.02 193.1 76.9C193.09 55.78 204.74 38.67 219.12 38.67C233.49 38.66 245.16 55.77 245.17 76.88Z" />
								<path id="Path_601" fill-rule="evenodd" class="shp2" d="M219.15 115.94L219.14 115.94C204.34 115.94 192.29 98.43 192.28 76.9C192.28 66.53 195.03 56.77 200.04 49.41C205.11 41.96 211.88 37.85 219.11 37.85C233.92 37.85 245.97 55.36 245.98 76.88C245.99 98.4 233.96 115.93 219.15 115.94ZM219.12 39.48C212.44 39.48 206.14 43.34 201.38 50.33C196.56 57.42 193.91 66.85 193.91 76.9C193.92 97.53 205.24 114.3 219.14 114.3L219.14 115.12L219.15 114.3C233.06 114.29 244.36 97.5 244.35 76.88C244.34 56.25 233.03 39.48 219.12 39.48L219.12 39.48Z" />
							</g>
							<g id="Group_485">
								<path id="Path_602" class="shp0" d="M228.91 76.89C228.92 98 224.55 115.12 219.15 115.12C213.75 115.12 209.37 98.01 209.35 76.9C209.33 55.79 213.7 38.67 219.11 38.67C224.51 38.67 228.9 55.78 228.91 76.89Z" />
								<path id="Path_603" fill-rule="evenodd" class="shp2" d="M219.15 115.94C219.15 115.94 219.15 115.94 219.15 115.94C219.15 115.94 219.15 115.94 219.15 115.94L219.15 115.94ZM211.44 104.13C209.58 96.85 208.54 87.18 208.54 76.9C208.54 66.62 209.56 56.95 211.42 49.66C212.79 44.27 215.24 37.85 219.12 37.85C222.99 37.85 225.44 44.27 226.82 49.66C228.69 56.94 229.72 66.61 229.72 76.89C229.72 87.16 228.71 96.84 226.85 104.12C225.47 109.51 223.02 115.94 219.15 115.94C215.28 115.94 212.82 109.52 211.44 104.13ZM219.12 39.48C216.97 39.48 214.68 43.44 212.99 50.07C211.17 57.22 210.16 66.75 210.17 76.9C210.18 98.94 214.91 114.31 219.15 114.31C223.39 114.31 228.1 98.94 228.09 76.89C228.08 54.84 223.35 39.48 219.11 39.48L219.12 39.48Z" />
							</g>
						</g>
						<path id="Path_604" class="shp2" d="M218.96 56.75C216.45 56.75 213.93 56.7 211.42 56.6C208.91 56.5 206.4 56.35 203.9 56.15C201.39 55.95 198.89 55.7 196.4 55.39C193.91 55.09 191.42 54.74 188.94 54.33C188.72 54.3 188.53 54.18 188.41 54.01C188.28 53.83 188.23 53.61 188.26 53.4C188.3 53.18 188.42 52.99 188.59 52.87C188.77 52.74 188.99 52.69 189.2 52.73C191.67 53.12 194.15 53.48 196.64 53.78C199.12 54.08 201.61 54.33 204.11 54.53C206.61 54.73 209.11 54.88 211.61 54.98C214.11 55.08 216.61 55.13 219.12 55.12C221.62 55.13 224.13 55.08 226.63 54.98C229.13 54.88 231.63 54.72 234.13 54.52C236.62 54.32 239.12 54.07 241.6 53.76C244.09 53.46 246.57 53.11 249.04 52.7C249.15 52.68 249.25 52.69 249.36 52.71C249.46 52.73 249.56 52.78 249.65 52.84C249.74 52.9 249.81 52.98 249.87 53.07C249.92 53.17 249.96 53.27 249.98 53.37C249.99 53.48 249.99 53.59 249.97 53.69C249.94 53.79 249.9 53.89 249.84 53.98C249.77 54.07 249.69 54.14 249.6 54.2C249.51 54.25 249.41 54.29 249.31 54.31C246.81 54.72 244.31 55.07 241.8 55.38C239.29 55.69 236.78 55.94 234.26 56.15C231.74 56.35 229.22 56.5 226.7 56.6C224.17 56.71 221.65 56.76 219.12 56.76L218.96 56.75Z" />
						<path id="Path_605" class="shp2" d="M189.09 101.44C188.88 101.44 188.69 101.36 188.54 101.22C188.39 101.08 188.29 100.89 188.28 100.69C188.26 100.49 188.32 100.28 188.45 100.12C188.57 99.96 188.75 99.85 188.96 99.82C191.45 99.41 193.95 99.06 196.46 98.75C198.97 98.45 201.48 98.19 204 97.99C206.52 97.79 209.04 97.63 211.56 97.53C214.09 97.43 216.61 97.38 219.14 97.38C221.67 97.37 224.19 97.42 226.72 97.52C229.24 97.62 231.77 97.76 234.29 97.97C236.8 98.17 239.32 98.42 241.83 98.73C244.33 99.03 246.84 99.39 249.33 99.79C249.54 99.84 249.72 99.96 249.84 100.13C249.96 100.3 250 100.52 249.97 100.72C249.94 100.93 249.82 101.12 249.65 101.24C249.48 101.37 249.27 101.43 249.06 101.4C246.6 101 244.13 100.65 241.65 100.35C239.17 100.05 236.69 99.8 234.2 99.6C231.72 99.4 229.22 99.25 226.73 99.15C224.24 99.05 221.74 99 219.24 99.01L219.14 99.01C216.64 99.01 214.14 99.06 211.63 99.16C209.13 99.26 206.63 99.41 204.13 99.61C201.64 99.81 199.15 100.06 196.66 100.37C194.17 100.67 191.69 101.02 189.22 101.43C189.21 101.43 189.2 101.43 189.19 101.43C189.18 101.43 189.17 101.43 189.15 101.44C189.14 101.44 189.13 101.44 189.12 101.44C189.11 101.44 189.1 101.44 189.09 101.44L189.09 101.44Z" />
						<path id="Path_606" class="shp2" d="M180.94 77.72C180.73 77.73 180.52 77.64 180.37 77.49C180.21 77.33 180.13 77.13 180.13 76.91C180.13 76.69 180.21 76.49 180.37 76.33C180.52 76.18 180.73 76.09 180.94 76.09L257.4 76.06L257.4 76.06C257.62 76.06 257.82 76.15 257.98 76.3C258.13 76.45 258.22 76.66 258.22 76.88C258.22 77.09 258.13 77.3 257.98 77.45C257.82 77.61 257.62 77.69 257.4 77.69L180.94 77.72Z" />
					</g>
					<g id="Group_502">
						<g id="Group_496">
							<g id="Group_490">
								<g id="Group_488">
									<path id="Path_607" class="shp0" d="M185.69 101.75L165.84 101.75L162.47 112.62L189.04 112.62L185.69 101.75Z" />
									<path id="Path_608" fill-rule="evenodd" class="shp3" d="M190.15 113.44L161.37 113.44L165.24 100.94L186.28 100.94L190.15 113.44ZM163.58 111.81L187.94 111.81L185.08 102.56L166.44 102.56L163.58 111.81Z" />
								</g>
								<g id="Group_489">
									<path id="Path_609" class="shp0" d="M192.52 113.13C192.52 113.33 192.48 113.52 192.41 113.71C192.33 113.89 192.22 114.06 192.08 114.2C191.94 114.34 191.77 114.45 191.59 114.53C191.4 114.6 191.21 114.64 191.01 114.64L161.74 114.64C161.55 114.64 161.35 114.6 161.16 114.53C160.98 114.45 160.81 114.34 160.67 114.2C160.53 114.06 160.42 113.89 160.35 113.71C160.27 113.52 160.23 113.33 160.23 113.13L160.23 113.13C160.23 112.93 160.27 112.73 160.35 112.55C160.42 112.37 160.53 112.2 160.67 112.06C160.81 111.92 160.98 111.81 161.16 111.73C161.35 111.66 161.55 111.62 161.74 111.62L191.01 111.62C191.21 111.62 191.4 111.66 191.59 111.73C191.77 111.81 191.94 111.92 192.08 112.06C192.22 112.2 192.33 112.37 192.41 112.55C192.48 112.73 192.52 112.93 192.52 113.13L192.52 113.13Z" />
									<path id="Path_610" fill-rule="evenodd" class="shp3" d="M191.01 115.46L161.74 115.46C161.13 115.46 160.53 115.21 160.1 114.78C159.66 114.34 159.42 113.75 159.42 113.13C159.42 112.51 159.66 111.92 160.1 111.48C160.53 111.05 161.13 110.8 161.74 110.8L191.01 110.8C191.62 110.8 192.22 111.05 192.65 111.48C193.09 111.92 193.34 112.51 193.34 113.13C193.34 113.75 193.09 114.34 192.65 114.78C192.22 115.21 191.62 115.46 191.01 115.46ZM161.74 112.43C161.56 112.43 161.38 112.51 161.25 112.64C161.12 112.77 161.04 112.95 161.04 113.13C161.04 113.32 161.12 113.5 161.25 113.63C161.38 113.76 161.56 113.83 161.74 113.83L191.01 113.83C191.19 113.83 191.37 113.76 191.5 113.63C191.63 113.5 191.71 113.32 191.71 113.13C191.71 112.95 191.63 112.77 191.5 112.64C191.37 112.51 191.19 112.43 191.01 112.43L161.74 112.43Z" />
								</g>
							</g>
							<g id="Group_494">
								<g id="Group_491">
									<path id="Rectangle_373" class="shp0" d="M138.12 50.4L214.63 50.4C215.08 50.4 215.53 50.48 215.94 50.66C216.36 50.83 216.73 51.08 217.05 51.4C217.37 51.72 217.62 52.09 217.79 52.51C217.97 52.93 218.06 53.37 218.06 53.82L218.06 99.44C218.06 99.89 217.97 100.34 217.79 100.75C217.62 101.17 217.37 101.55 217.05 101.87C216.73 102.18 216.36 102.44 215.94 102.61C215.52 102.78 215.08 102.87 214.63 102.87L138.12 102.87C137.67 102.87 137.22 102.78 136.81 102.61C136.39 102.44 136.02 102.18 135.7 101.87C135.38 101.55 135.13 101.17 134.95 100.76C134.78 100.34 134.69 99.89 134.69 99.44L134.69 53.82C134.69 53.37 134.78 52.93 134.95 52.51C135.13 52.1 135.38 51.72 135.7 51.4C136.02 51.08 136.39 50.83 136.81 50.66C137.22 50.48 137.67 50.4 138.12 50.4L138.12 50.4Z" />
									<path id="Path_611" fill-rule="evenodd" class="shp3" d="M137.48 103.68C137.01 103.68 136.54 103.59 136.1 103.41C135.67 103.23 135.27 102.96 134.93 102.63C134.6 102.29 134.33 101.89 134.15 101.46C133.97 101.02 133.88 100.55 133.88 100.08L133.88 53.19C133.88 52.71 133.97 52.25 134.15 51.81C134.33 51.37 134.6 50.97 134.93 50.64C135.27 50.3 135.67 50.04 136.1 49.86C136.54 49.68 137.01 49.58 137.48 49.58L215.26 49.58C215.73 49.58 216.2 49.68 216.64 49.86C217.08 50.04 217.47 50.3 217.81 50.64C218.14 50.97 218.41 51.37 218.59 51.81C218.77 52.25 218.87 52.71 218.87 53.19L218.87 100.08C218.87 100.55 218.77 101.02 218.59 101.46C218.41 101.89 218.15 102.29 217.81 102.63C217.48 102.96 217.08 103.23 216.64 103.41C216.21 103.59 215.74 103.68 215.26 103.68L137.48 103.68ZM137.48 51.21C137.22 51.21 136.97 51.26 136.73 51.36C136.49 51.46 136.27 51.61 136.08 51.79C135.9 51.97 135.76 52.19 135.66 52.43C135.56 52.67 135.51 52.93 135.51 53.19L135.51 100.08C135.51 100.34 135.56 100.6 135.66 100.84C135.76 101.07 135.9 101.29 136.08 101.48C136.27 101.66 136.49 101.81 136.73 101.9C136.97 102 137.22 102.06 137.48 102.06L215.26 102.06C215.52 102.06 215.78 102 216.02 101.91C216.26 101.81 216.47 101.66 216.66 101.48C216.84 101.29 216.99 101.08 217.09 100.84C217.19 100.6 217.24 100.34 217.24 100.08L217.24 53.19C217.24 52.93 217.19 52.67 217.09 52.43C216.99 52.19 216.84 51.98 216.66 51.79C216.48 51.61 216.26 51.46 216.02 51.36C215.78 51.26 215.52 51.21 215.26 51.21L137.48 51.21Z" />
								</g>
								<g id="Group_492">
									<path id="Line_68" class="shp0" d="M134.67 94.12L218.08 94.12" />
									<path id="Rectangle_374" class="shp3" d="M134.67 93.31L218.08 93.31L218.08 94.94L134.67 94.94L134.67 93.31Z" />
								</g>
								<g id="Group_493">
									<path id="Rectangle_375" class="shp0" d="M138.7 54.43L214.05 54.43L214.05 91.43L138.7 91.43L138.7 54.43Z" />
									<path id="Path_612" fill-rule="evenodd" class="shp3" d="M214.86 92.25L137.89 92.25L137.89 53.62L214.86 53.62L214.86 92.25ZM139.52 90.62L213.23 90.62L213.23 55.25L139.52 55.25L139.52 90.62Z" />
								</g>
							</g>
							<g id="Group_495">
								<path id="Line_69" class="shp0" d="M169.65 97.94L183.1 97.94" />
								<path id="Rectangle_376" class="shp3" d="M169.65 97.12L183.1 97.12L183.1 98.75L169.65 98.75L169.65 97.12Z" />
							</g>
						</g>
						<g id="Group_501">
							<g id="Group_497">
								<path id="Path_613" class="shp0" d="M154.36 82.68L170.44 66.6L182.6 78.76L200.64 60.72" />
								<path id="Path_614" class="shp3" d="M154.93 83.26L153.78 82.1L170.44 65.45L182.6 77.61L200.07 60.14L201.22 61.29L182.6 79.91L170.44 67.76L154.93 83.26Z" />
							</g>
							<g id="Group_498">
								<path id="Path_615" class="shp0" d="M172.79 66.6C172.79 67.55 172.22 68.41 171.34 68.77C170.46 69.14 169.45 68.94 168.77 68.26C168.1 67.59 167.9 66.58 168.26 65.7C168.63 64.82 169.49 64.25 170.44 64.25C170.75 64.25 171.05 64.31 171.34 64.43C171.63 64.54 171.88 64.72 172.1 64.94C172.32 65.15 172.49 65.41 172.61 65.7C172.73 65.98 172.79 66.29 172.79 66.6L172.79 66.6Z" />
								<path id="Path_616" fill-rule="evenodd" class="shp3" d="M167.51 67.81C167.02 66.63 167.29 65.26 168.2 64.36C169.11 63.45 170.47 63.18 171.65 63.67C172.84 64.16 173.61 65.32 173.61 66.6C173.61 67.02 173.52 67.43 173.36 67.81C173.21 68.2 172.97 68.54 172.68 68.84C172.38 69.13 172.03 69.37 171.65 69.52C171.27 69.68 170.85 69.77 170.44 69.77C169.16 69.77 168 69 167.51 67.81ZM169.02 66.01C168.78 66.58 168.91 67.25 169.35 67.69C169.79 68.13 170.45 68.26 171.03 68.02C171.6 67.78 171.98 67.22 171.98 66.6C171.98 66.4 171.94 66.2 171.86 66.01C171.78 65.83 171.67 65.66 171.53 65.51C171.38 65.37 171.21 65.26 171.03 65.18C170.84 65.1 170.64 65.06 170.44 65.06C169.82 65.06 169.26 65.44 169.02 66.01Z" />
							</g>
							<g id="Group_499">
								<path id="Path_617" class="shp0" d="M202.21 61.11C202.21 62.06 201.64 62.92 200.76 63.28C199.88 63.65 198.87 63.45 198.19 62.77C197.52 62.1 197.32 61.09 197.68 60.21C198.05 59.33 198.91 58.76 199.86 58.76C200.17 58.76 200.47 58.82 200.76 58.93C201.04 59.05 201.3 59.23 201.52 59.44C201.74 59.66 201.91 59.92 202.03 60.21C202.15 60.49 202.21 60.8 202.21 61.11Z" />
								<path id="Path_618" fill-rule="evenodd" class="shp3" d="M196.93 62.32C196.44 61.14 196.71 59.77 197.62 58.87C198.52 57.96 199.89 57.69 201.07 58.18C202.25 58.67 203.03 59.83 203.02 61.11C203.02 61.52 202.94 61.94 202.78 62.32C202.62 62.7 202.39 63.05 202.1 63.35C201.8 63.64 201.45 63.87 201.07 64.03C200.69 64.19 200.27 64.28 199.86 64.28C198.58 64.28 197.42 63.51 196.93 62.32ZM199.86 59.57C199.24 59.57 198.68 59.94 198.44 60.52C198.2 61.09 198.33 61.76 198.77 62.2C199.21 62.64 199.87 62.77 200.45 62.53C201.02 62.29 201.4 61.73 201.4 61.11C201.4 60.91 201.36 60.71 201.28 60.52C201.2 60.33 201.09 60.16 200.94 60.02C200.8 59.88 200.63 59.77 200.45 59.69C200.26 59.61 200.06 59.57 199.86 59.57L199.86 59.57Z" />
							</g>
							<g id="Group_500">
								<path id="Path_619" class="shp0" d="M157.5 82.29C157.5 83.24 156.92 84.1 156.04 84.47C155.16 84.83 154.15 84.63 153.48 83.96C152.8 83.28 152.6 82.27 152.97 81.39C153.33 80.51 154.19 79.94 155.14 79.94C155.45 79.94 155.76 80 156.04 80.12C156.33 80.23 156.59 80.41 156.81 80.63C157.02 80.84 157.2 81.1 157.32 81.39C157.43 81.67 157.5 81.98 157.5 82.29Z" />
								<path id="Path_620" fill-rule="evenodd" class="shp3" d="M152.22 83.5C151.73 82.32 152 80.96 152.9 80.05C153.81 79.14 155.17 78.87 156.35 79.36C157.54 79.85 158.31 81.01 158.31 82.29C158.31 82.71 158.23 83.12 158.07 83.5C157.91 83.89 157.68 84.24 157.38 84.53C157.09 84.82 156.74 85.06 156.35 85.22C155.97 85.38 155.56 85.46 155.14 85.46C153.86 85.46 152.71 84.69 152.22 83.5ZM153.72 81.7C153.48 82.28 153.61 82.94 154.05 83.38C154.49 83.82 155.16 83.95 155.73 83.71C156.31 83.47 156.68 82.91 156.68 82.29C156.68 82.09 156.64 81.89 156.56 81.7C156.49 81.52 156.37 81.35 156.23 81.2C156.09 81.06 155.92 80.95 155.73 80.87C155.54 80.79 155.34 80.75 155.14 80.75C154.52 80.75 153.96 81.13 153.72 81.7Z" />
							</g>
						</g>
					</g>
				</g>
			</g>
			<path id="Rectangle_810" class="shp4" d="M20 254L348 254C356.85 254 364 261.15 364 270L364 344C364 352.85 356.85 360 348 360L20 360C11.15 360 4 352.85 4 344L4 270C4 261.15 11.15 254 20 254Z" />
			<g id="Group_991">
				<path id="Path_997" class="shp5" d="M100.54 298.81C99.97 297.7 98.89 295.81 98.14 294.7L95.77 295.69C95.99 296.02 96.2 296.35 96.41 296.69C96.62 297.03 96.82 297.37 97.01 297.72C97.21 298.06 97.4 298.41 97.58 298.76C97.76 299.12 97.94 299.47 98.11 299.83L100.54 298.81ZM84.97 308.71C85.97 308.46 86.96 308.2 87.95 307.93C88.94 307.65 89.92 307.36 90.9 307.05C91.89 306.75 92.86 306.43 93.83 306.1C94.8 305.76 95.77 305.41 96.73 305.05C97.72 304.69 99.07 304.12 100.24 303.64L98.62 299.83C98.36 299.99 98.1 300.14 97.83 300.29C97.57 300.44 97.3 300.58 97.02 300.72C96.75 300.85 96.47 300.98 96.2 301.1C95.92 301.23 95.63 301.34 95.35 301.45C94.51 301.79 93.66 302.11 92.8 302.42C91.95 302.73 91.09 303.02 90.22 303.3C89.35 303.58 88.48 303.84 87.61 304.09C86.73 304.33 85.85 304.57 84.97 304.78L84.97 299.11C84.97 298.85 84.98 298.59 84.99 298.33C85 298.07 85.02 297.81 85.04 297.55C85.06 297.29 85.08 297.03 85.11 296.77C85.14 296.51 85.17 296.25 85.21 295.99L80.77 295.99C80.81 296.25 80.84 296.51 80.87 296.77C80.89 297.03 80.92 297.29 80.94 297.55C80.96 297.81 80.97 298.07 80.99 298.33C81 298.59 81.01 298.85 81.01 299.11L81.01 315.46C81.01 318.04 82.51 319.48 85.12 319.93C85.54 319.99 85.95 320.05 86.37 320.09C86.79 320.14 87.21 320.18 87.63 320.21C88.05 320.24 88.47 320.26 88.9 320.27C89.32 320.29 89.74 320.29 90.16 320.29C91.05 320.29 91.94 320.28 92.84 320.26C93.73 320.23 94.62 320.2 95.51 320.14C96.4 320.09 97.29 320.02 98.18 319.94C99.07 319.86 99.95 319.77 100.84 319.66L100.84 315.28C99.98 315.46 99.12 315.61 98.25 315.74C97.39 315.88 96.52 315.99 95.65 316.08C94.78 316.16 93.9 316.23 93.03 316.27C92.15 316.31 91.28 316.33 90.4 316.33C90.11 316.33 89.82 316.33 89.53 316.33C89.24 316.32 88.95 316.31 88.66 316.29C88.37 316.28 88.08 316.26 87.79 316.24C87.5 316.21 87.21 316.18 86.92 316.15C85.57 315.88 84.97 315.55 84.97 314.26L84.97 308.71ZM99.31 294.31C99.54 294.64 99.76 294.97 99.98 295.31C100.19 295.65 100.4 295.99 100.6 296.33C100.81 296.68 101 297.03 101.19 297.38C101.38 297.73 101.56 298.09 101.74 298.45L104.11 297.43C103.93 297.08 103.74 296.73 103.55 296.38C103.36 296.04 103.16 295.69 102.96 295.35C102.76 295.01 102.55 294.67 102.34 294.34C102.12 294.01 101.9 293.68 101.68 293.35L99.31 294.31ZM127.87 295.96L125.38 297.01C125.64 297.38 125.89 297.75 126.13 298.14C126.37 298.52 126.6 298.91 126.82 299.3C127.04 299.69 127.25 300.09 127.45 300.49C127.65 300.9 127.84 301.31 128.02 301.72L130.63 300.61C130.42 300.21 130.21 299.81 129.99 299.42C129.77 299.02 129.55 298.63 129.32 298.24C129.09 297.86 128.85 297.47 128.61 297.09C128.37 296.71 128.12 296.33 127.87 295.96L127.87 295.96ZM132.01 294.52L129.46 295.57C129.73 295.93 129.99 296.29 130.24 296.66C130.5 297.03 130.74 297.4 130.98 297.78C131.21 298.16 131.44 298.55 131.66 298.94C131.87 299.33 132.08 299.73 132.28 300.13L134.83 298.99C134.62 298.6 134.41 298.22 134.18 297.84C133.96 297.46 133.73 297.08 133.5 296.71C133.26 296.33 133.02 295.97 132.77 295.6C132.52 295.24 132.27 294.88 132.01 294.52L132.01 294.52ZM114.85 295.39L112.69 298.69C114.67 299.8 117.79 301.81 119.47 302.98L121.69 299.68C120.13 298.6 116.83 296.47 114.85 295.39L114.85 295.39ZM109.3 316.69L111.55 320.62C112.42 320.43 113.29 320.22 114.15 319.97C115 319.72 115.85 319.44 116.69 319.13C117.53 318.82 118.36 318.48 119.17 318.12C119.98 317.75 120.78 317.35 121.57 316.93C122.75 316.27 123.89 315.54 124.98 314.75C126.08 313.96 127.13 313.11 128.13 312.2C129.13 311.29 130.08 310.33 130.98 309.31C131.87 308.3 132.71 307.24 133.48 306.13L131.17 302.05C130.47 303.23 129.7 304.36 128.85 305.43C128 306.5 127.08 307.52 126.1 308.47C125.11 309.42 124.07 310.3 122.96 311.11C121.86 311.92 120.7 312.65 119.5 313.3C118.71 313.72 117.89 314.11 117.07 314.47C116.24 314.82 115.4 315.14 114.54 315.42C113.69 315.71 112.82 315.96 111.95 316.17C111.07 316.38 110.19 316.55 109.3 316.69L109.3 316.69ZM110.23 302.23L108.07 305.53C110.08 306.61 113.2 308.62 114.91 309.82L117.1 306.46C115.57 305.38 112.27 303.31 110.23 302.23ZM159.22 298.51C159.02 298.56 158.81 298.61 158.61 298.65C158.4 298.69 158.19 298.72 157.99 298.75C157.78 298.77 157.57 298.79 157.36 298.8C157.15 298.81 156.94 298.81 156.73 298.81L153.13 298.81L153.13 297.25C153.13 297.02 153.14 296.79 153.15 296.56C153.15 296.33 153.17 296.1 153.18 295.87C153.2 295.64 153.21 295.41 153.24 295.18C153.26 294.95 153.28 294.72 153.31 294.49L149.02 294.49C149.05 294.72 149.08 294.95 149.1 295.18C149.13 295.41 149.14 295.64 149.16 295.87C149.17 296.1 149.19 296.33 149.19 296.56C149.2 296.79 149.2 297.02 149.2 297.25L149.2 298.81L144.01 298.81C143.69 298.81 143.37 298.81 143.05 298.81C142.73 298.8 142.41 298.79 142.09 298.77C141.77 298.75 141.45 298.73 141.13 298.7C140.81 298.67 140.49 298.64 140.17 298.6L140.17 302.53C141.1 302.44 142.99 302.38 144.07 302.38L154.93 302.38C154.58 302.83 154.21 303.25 153.82 303.67C153.44 304.08 153.03 304.48 152.61 304.85C152.19 305.23 151.75 305.59 151.29 305.93C150.84 306.26 150.37 306.58 149.89 306.88C148.96 307.48 148 308.03 147.01 308.54C146.03 309.05 145.02 309.52 144 309.94C142.97 310.36 141.93 310.73 140.87 311.06C139.81 311.38 138.73 311.66 137.65 311.89L139.96 315.43C140.75 315.2 141.54 314.94 142.33 314.67C143.11 314.4 143.88 314.11 144.65 313.8C145.42 313.49 146.18 313.17 146.94 312.82C147.69 312.48 148.43 312.12 149.17 311.74L149.17 316.87C149.17 317.19 149.16 317.51 149.15 317.83C149.14 318.15 149.12 318.47 149.1 318.79C149.08 319.11 149.06 319.43 149.03 319.75C149 320.07 148.97 320.39 148.93 320.71L153.25 320.71C153.16 319.78 153.04 318.07 153.04 316.87C153.04 314.98 153.07 311.71 153.07 309.31C153.64 308.87 154.2 308.42 154.75 307.95C155.3 307.49 155.83 307.01 156.36 306.52C156.89 306.03 157.4 305.53 157.9 305.01C158.4 304.5 158.89 303.97 159.37 303.43C160 302.71 160.93 301.69 161.68 300.94L159.22 298.51ZM154.96 310.96C155.59 311.3 156.22 311.66 156.83 312.03C157.45 312.4 158.06 312.78 158.65 313.18C159.25 313.58 159.84 313.99 160.42 314.42C161 314.84 161.57 315.28 162.13 315.73L164.65 312.43C164.07 312.03 163.49 311.64 162.9 311.26C162.31 310.88 161.72 310.51 161.12 310.14C160.52 309.78 159.91 309.43 159.3 309.08C158.69 308.74 158.07 308.4 157.45 308.08L154.96 310.96ZM188.56 296.83C188.31 296.9 188.05 296.96 187.79 297.01C187.53 297.06 187.28 297.11 187.01 297.14C186.75 297.17 186.49 297.19 186.23 297.21C185.97 297.22 185.7 297.23 185.44 297.22L174.88 297.22C174.58 297.22 174.29 297.21 173.99 297.2C173.7 297.19 173.4 297.18 173.11 297.16C172.81 297.14 172.52 297.12 172.22 297.1C171.93 297.07 171.63 297.04 171.34 297.01L171.34 301.27C171.97 301.24 173.62 301.06 174.88 301.06L185.05 301.06C184.8 301.73 184.51 302.4 184.19 303.05C183.88 303.69 183.53 304.33 183.16 304.94C182.78 305.56 182.38 306.16 181.95 306.74C181.52 307.32 181.06 307.87 180.58 308.41C179.73 309.34 178.83 310.23 177.88 311.06C176.94 311.9 175.95 312.68 174.91 313.4C173.88 314.13 172.8 314.79 171.7 315.4C170.59 316 169.45 316.54 168.28 317.02L171.37 320.26C172.43 319.73 173.46 319.16 174.46 318.54C175.47 317.92 176.44 317.26 177.39 316.55C178.33 315.85 179.25 315.1 180.13 314.31C181 313.52 181.85 312.69 182.65 311.83C183.34 312.48 184.01 313.15 184.67 313.83C185.33 314.51 185.98 315.21 186.61 315.92C187.24 316.63 187.85 317.35 188.45 318.08C189.05 318.82 189.64 319.56 190.21 320.32L193.63 317.35C192.98 316.59 192.33 315.83 191.65 315.09C190.98 314.35 190.3 313.63 189.6 312.91C188.9 312.2 188.19 311.49 187.47 310.8C186.74 310.11 186.01 309.43 185.26 308.77C185.73 308.13 186.17 307.47 186.6 306.81C187.03 306.14 187.44 305.46 187.84 304.77C188.23 304.08 188.61 303.38 188.96 302.67C189.32 301.97 189.65 301.25 189.97 300.52C190.05 300.36 190.12 300.2 190.21 300.04C190.29 299.88 190.37 299.73 190.46 299.57C190.55 299.42 190.64 299.26 190.73 299.11C190.82 298.96 190.92 298.81 191.02 298.66L188.56 296.83ZM205.27 295.24L203.08 298.54C205.06 299.65 208.18 301.69 209.86 302.86L212.11 299.53C210.55 298.45 207.25 296.35 205.27 295.24ZM199.69 316.54L201.94 320.5C202.81 320.31 203.68 320.1 204.54 319.85C205.4 319.6 206.25 319.32 207.09 319.01C207.93 318.7 208.75 318.36 209.56 317.98C210.38 317.61 211.18 317.21 211.96 316.78C213.14 316.12 214.28 315.39 215.38 314.61C216.48 313.82 217.53 312.97 218.54 312.07C219.54 311.16 220.49 310.2 221.39 309.19C222.28 308.18 223.12 307.12 223.9 306.01L221.59 301.93C220.89 303.11 220.12 304.23 219.27 305.31C218.42 306.38 217.5 307.39 216.51 308.34C215.53 309.29 214.48 310.17 213.38 310.98C212.28 311.79 211.12 312.53 209.92 313.18C209.12 313.6 208.3 313.98 207.47 314.33C206.64 314.68 205.8 315 204.94 315.28C204.09 315.56 203.22 315.8 202.34 316.01C201.47 316.23 200.58 316.4 199.69 316.54L199.69 316.54ZM200.65 302.08L198.46 305.41C199.05 305.74 199.63 306.07 200.21 306.41C200.79 306.75 201.36 307.1 201.93 307.45C202.51 307.81 203.07 308.17 203.63 308.54C204.19 308.91 204.75 309.29 205.3 309.67L207.49 306.31C205.96 305.23 202.66 303.16 200.65 302.08ZM249.73 297.13C249.54 297.17 249.34 297.21 249.14 297.24C248.95 297.27 248.75 297.3 248.55 297.32C248.35 297.34 248.16 297.35 247.96 297.36C247.76 297.37 247.56 297.37 247.36 297.37L233.5 297.37C232.51 297.37 230.8 297.22 229.9 297.13L229.9 301.36C230.68 301.3 232.12 301.24 233.47 301.24L247.45 301.24C247.33 302 247.17 302.76 246.97 303.5C246.76 304.24 246.51 304.97 246.21 305.68C245.92 306.4 245.58 307.09 245.2 307.76C244.82 308.43 244.4 309.08 243.94 309.7C241.51 312.73 238.12 315.34 232.18 316.72L235.45 320.32C236.64 319.96 237.79 319.52 238.91 318.98C240.03 318.44 241.1 317.82 242.13 317.12C243.15 316.42 244.11 315.64 245.02 314.79C245.92 313.94 246.75 313.02 247.51 312.04C250 308.71 251.32 304.06 252.01 301.12C252.05 300.94 252.09 300.76 252.14 300.58C252.19 300.41 252.24 300.23 252.29 300.06C252.35 299.88 252.41 299.71 252.47 299.53C252.53 299.36 252.6 299.19 252.67 299.02L249.73 297.13ZM282.07 307.96C281.05 307.5 280.03 307.06 279 306.64C277.96 306.21 276.93 305.81 275.88 305.42C274.83 305.03 273.78 304.66 272.72 304.31C271.66 303.96 270.6 303.63 269.53 303.31L269.53 298.9C269.54 298.6 269.55 298.29 269.56 297.99C269.57 297.69 269.59 297.38 269.61 297.08C269.64 296.78 269.66 296.48 269.69 296.17C269.73 295.87 269.76 295.57 269.8 295.27L265.12 295.27C265.17 295.57 265.22 295.87 265.25 296.17C265.29 296.47 265.32 296.78 265.35 297.08C265.37 297.38 265.39 297.68 265.4 297.99C265.42 298.29 265.42 298.6 265.42 298.9L265.42 316.12C265.42 316.47 265.41 316.82 265.4 317.17C265.38 317.51 265.36 317.86 265.34 318.21C265.31 318.56 265.28 318.9 265.25 319.25C265.21 319.6 265.17 319.94 265.12 320.29L269.8 320.29C269.68 319.09 269.53 316.99 269.53 316.12L269.53 307.63C270.46 307.94 271.38 308.27 272.29 308.61C273.21 308.95 274.12 309.31 275.02 309.68C275.92 310.05 276.82 310.44 277.71 310.85C278.6 311.25 279.48 311.67 280.36 312.1L282.07 307.96Z" />
			</g>
		</g>
	</g>
</svg>