<svg xmlns="http://www.w3.org/2000/svg" width="378" height="307" viewBox="0 0 378 307">
  <g id="组_1036" data-name="组 1036" transform="translate(-182 -1891)">
    <g id="矩形_422" data-name="矩形 422" transform="translate(182 1926)" fill="#fff" stroke="#36d4c2" stroke-width="0.5" stroke-dasharray="6">
      <rect width="378" height="272" rx="16" stroke="none"/>
      <rect x="0.25" y="0.25" width="377.5" height="271.5" rx="15.75" fill="none"/>
    </g>
    <rect id="矩形_423" data-name="矩形 423" width="232" height="76" transform="translate(250 1891)" fill="#fff"/>
    <text id="DX_readyソリューション" data-name="DX readyソリューション" transform="translate(266 1932)" fill="#0995b5" font-size="18" font-family="NotoSansCJKjp-Bold, Noto Sans CJK JP" font-weight="700"><tspan x="0" y="0">DX readyソリューション</tspan></text>
    <g id="组_420" data-name="组 420" transform="translate(207.727 2047.033)">
      <text id="Digitization" transform="translate(2.253 21)" font-size="23" font-family="Roboto-Bold, Roboto" font-weight="700"><tspan x="0" y="0">Digitization</tspan></text>
      <text id="デジタイゼーション" transform="translate(0 49.8)" font-size="14" font-family="NotoSansCJKjp-Regular, Noto Sans CJK JP"><tspan x="0" y="0">デジタイゼーション</tspan></text>
    </g>
    <g id="组_422" data-name="组 422" transform="translate(391.375 2047.033)">
      <text id="Digitalization" transform="translate(0 21)" font-size="23" font-family="Roboto-Bold, Roboto" font-weight="700"><tspan x="0" y="0">Digitalization</tspan></text>
      <text id="デジタラゼーション" transform="translate(7.887 49.8)" font-size="14" font-family="NotoSansCJKjp-Regular, Noto Sans CJK JP"><tspan x="0" y="0">デジタラゼーション</tspan></text>
    </g>
    <g id="组_503" data-name="组 503" transform="translate(231.626 1971.975)">
      <g id="组_487" data-name="组 487" transform="translate(29.772)">
        <g id="组_486" data-name="组 486">
          <g id="组_483" data-name="组 483">
            <path id="路径_598" data-name="路径 598" d="M133.467,210.847a24.631,24.631,0,1,1-24.641-24.618A24.633,24.633,0,0,1,133.467,210.847Z" transform="translate(-83.68 -185.704)" fill="#fff"/>
            <path id="路径_599" data-name="路径 599" d="M108.376,235.541h-.014a25.149,25.149,0,1,1,.014,0Zm-.01-49.262a24.106,24.106,0,1,0,0,48.212v.525l.013-.525a24.106,24.106,0,0,0-.009-48.212Z" transform="translate(-83.205 -185.229)" fill="#231f20"/>
          </g>
          <g id="组_484" data-name="组 484" transform="translate(7.859)">
            <path id="路径_600" data-name="路径 600" d="M132.723,210.852c.007,13.6-7.5,24.633-16.762,24.639s-16.782-11.019-16.786-24.625,7.5-24.633,16.762-24.637S132.717,197.25,132.723,210.852Z" transform="translate(-98.65 -185.704)" fill="#fff"/>
            <path id="路径_601" data-name="路径 601" d="M115.486,235.541h-.007c-9.537,0-17.3-11.282-17.3-25.15a31.7,31.7,0,0,1,4.995-17.713c3.267-4.8,7.632-7.447,12.292-7.449,9.542,0,17.306,11.281,17.311,25.148S125.025,235.535,115.486,235.541Zm-.019-49.262c-4.307,0-8.364,2.484-11.429,6.99a30.64,30.64,0,0,0-4.813,17.122c0,13.289,7.3,24.1,16.254,24.1v.525l.006-.525c8.96-.005,16.245-10.823,16.238-24.114S124.425,186.279,115.467,186.279Z" transform="translate(-98.175 -185.229)" fill="#231f20"/>
          </g>
          <g id="组_485" data-name="组 485" transform="translate(18.334)">
            <path id="路径_602" data-name="路径 602" d="M131.724,210.857c.007,13.6-2.808,24.632-6.286,24.634s-6.3-11.026-6.311-24.628,2.8-24.633,6.287-24.633S131.717,197.255,131.724,210.857Z" transform="translate(-118.602 -185.704)" fill="#fff"/>
            <path id="路径_603" data-name="路径 603" d="M124.962,235.541c-2.494,0-4.077-4.136-4.966-7.608a83.677,83.677,0,0,1-.018-35.093c.886-3.472,2.466-7.611,4.961-7.611s4.076,4.137,4.965,7.609a83.66,83.66,0,0,1,.017,35.092c-.886,3.472-2.465,7.61-4.958,7.611h0Zm-.022-49.262c-1.381,0-2.855,2.55-3.945,6.821a73.076,73.076,0,0,0-1.819,17.287c.007,14.205,3.054,24.1,5.785,24.1h0c2.732,0,5.769-9.9,5.761-24.108S127.671,186.279,124.94,186.279Z" transform="translate(-118.127 -185.229)" fill="#231f20"/>
          </g>
        </g>
        <path id="路径_604" data-name="路径 604" d="M113.012,206.054A120.115,120.115,0,0,1,93.668,204.5a.525.525,0,0,1,.17-1.037A120.5,120.5,0,0,0,113.114,205a119.118,119.118,0,0,0,19.279-1.561.52.52,0,0,1,.6.432.526.526,0,0,1-.433.6,120.209,120.209,0,0,1-19.45,1.576Z" transform="translate(-87.966 -193.877)" fill="#231f20"/>
        <path id="路径_605" data-name="路径 605" d="M93.778,260.9a.525.525,0,0,1-.085-1.043,120.749,120.749,0,0,1,19.449-1.573,118.95,118.95,0,0,1,19.451,1.557.525.525,0,0,1-.171,1.036,119.019,119.019,0,0,0-19.214-1.543h-.066a119.711,119.711,0,0,0-19.28,1.559A.475.475,0,0,1,93.778,260.9Z" transform="translate(-87.978 -219.93)" fill="#231f20"/>
        <path id="路径_606" data-name="路径 606" d="M83.782,233.194a.525.525,0,1,1,0-1.05l49.262-.022h0a.525.525,0,1,1,0,1.05l-49.262.022Z" transform="translate(-83.23 -207.503)" fill="#231f20"/>
      </g>
      <g id="组_502" data-name="组 502" transform="translate(0 7.558)">
        <g id="组_496" data-name="组 496" transform="translate(0 0)">
          <g id="组_490" data-name="组 490" transform="translate(16.453 33.087)">
            <g id="组_488" data-name="组 488" transform="translate(1.257)">
              <path id="路径_607" data-name="路径 607" d="M76.541,263.648H63.756l-2.169,7.007H78.708Z" transform="translate(-60.875 -263.123)" fill="#fff"/>
              <path id="路径_608" data-name="路径 608" d="M78.776,270.7H60.23l2.494-8.057h13.56Zm-17.122-1.05h15.7L75.509,263.7H63.5Z" transform="translate(-60.23 -262.648)" fill="#020202"/>
            </g>
            <g id="组_489" data-name="组 489" transform="translate(0 6.358)">
              <path id="路径_609" data-name="路径 609" d="M79.641,276.732a.975.975,0,0,1-.975.975H59.811a.976.976,0,0,1-.975-.975h0a.975.975,0,0,1,.975-.974H78.666a.975.975,0,0,1,.975.974Z" transform="translate(-58.311 -275.233)" fill="#fff"/>
              <path id="路径_610" data-name="路径 610" d="M78.191,277.758H59.336a1.5,1.5,0,1,1,0-3H78.191a1.5,1.5,0,1,1,0,3Zm-18.854-1.95a.45.45,0,1,0,0,.9H78.191a.45.45,0,1,0,0-.9Z" transform="translate(-57.836 -274.758)" fill="#020202"/>
            </g>
          </g>
          <g id="组_494" data-name="组 494">
            <g id="组_491" data-name="组 491">
              <path id="矩形_373" data-name="矩形 373" d="M3.426,0h46.86A3.425,3.425,0,0,1,53.71,3.425V30.382a3.427,3.427,0,0,1-3.427,3.427H3.426A3.426,3.426,0,0,1,0,30.383V3.426A3.426,3.426,0,0,1,3.426,0Z" transform="translate(0.525 0.525)" fill="#fff"/>
              <path id="路径_611" data-name="路径 611" d="M78.934,234.484H28.82a2.326,2.326,0,0,1-2.323-2.323V201.949a2.326,2.326,0,0,1,2.323-2.324H78.934a2.326,2.326,0,0,1,2.324,2.324v30.212A2.326,2.326,0,0,1,78.934,234.484ZM28.82,200.675a1.275,1.275,0,0,0-1.273,1.274v30.212a1.275,1.275,0,0,0,1.273,1.273H78.934a1.275,1.275,0,0,0,1.274-1.273V201.949a1.275,1.275,0,0,0-1.274-1.274Z" transform="translate(-26.497 -199.625)" fill="#020202"/>
            </g>
            <g id="组_492" data-name="组 492" transform="translate(0.507 28.174)">
              <line id="直线_68" data-name="直线 68" x2="53.747" transform="translate(0 0.525)" fill="#fff"/>
              <rect id="矩形_374" data-name="矩形 374" width="53.747" height="1.05" fill="#020202"/>
            </g>
            <g id="组_493" data-name="组 493" transform="translate(2.582 2.601)">
              <rect id="矩形_375" data-name="矩形 375" width="48.546" height="23.84" transform="translate(0.525 0.525)" fill="#fff"/>
              <path id="路径_612" data-name="路径 612" d="M81.013,229.469h-49.6v-24.89h49.6Zm-48.547-1.05h47.5v-22.79h-47.5Z" transform="translate(-31.416 -204.579)" fill="#020202"/>
            </g>
          </g>
          <g id="组_495" data-name="组 495" transform="translate(23.045 30.63)">
            <line id="直线_69" data-name="直线 69" x2="8.67" transform="translate(0 0.525)" fill="#fff"/>
            <rect id="矩形_376" data-name="矩形 376" width="8.67" height="1.05" fill="#020202"/>
          </g>
        </g>
        <g id="组_501" data-name="组 501" transform="translate(11.658 5.386)">
          <g id="组_497" data-name="组 497" transform="translate(1.165 1.417)">
            <path id="路径_613" data-name="路径 613" d="M51.629,227.443l10.362-10.362,7.835,7.835,11.625-11.625" transform="translate(-51.258 -212.92)" fill="#fff"/>
            <path id="路径_614" data-name="路径 614" d="M51.664,227.479l-.742-.742L61.655,216l7.835,7.834,11.254-11.254.742.742-12,12-7.835-7.834Z" transform="translate(-50.922 -212.584)" fill="#020202"/>
          </g>
          <g id="组_498" data-name="组 498" transform="translate(9.857 3.537)">
            <path id="路径_615" data-name="路径 615" d="M71.51,219.14a1.516,1.516,0,1,1-1.516-1.517A1.516,1.516,0,0,1,71.51,219.14Z" transform="translate(-67.952 -217.098)" fill="#fff"/>
            <path id="路径_616" data-name="路径 616" d="M69.519,220.705a2.041,2.041,0,1,1,2.041-2.041A2.044,2.044,0,0,1,69.519,220.705Zm0-3.032a.991.991,0,1,0,.991.992A.993.993,0,0,0,69.519,217.673Z" transform="translate(-67.477 -216.623)" fill="#020202"/>
          </g>
          <g id="组_499" data-name="组 499" transform="translate(28.811)">
            <path id="路径_617" data-name="路径 617" d="M107.613,212.4a1.516,1.516,0,1,1-1.515-1.516A1.515,1.515,0,0,1,107.613,212.4Z" transform="translate(-104.056 -210.36)" fill="#fff"/>
            <path id="路径_618" data-name="路径 618" d="M105.623,213.967a2.041,2.041,0,1,1,2.04-2.041A2.044,2.044,0,0,1,105.623,213.967Zm0-3.032a.991.991,0,1,0,.99.991A.993.993,0,0,0,105.623,210.935Z" transform="translate(-103.581 -209.885)" fill="#020202"/>
          </g>
          <g id="组_500" data-name="组 500" transform="translate(0 13.647)">
            <path id="路径_619" data-name="路径 619" d="M52.736,238.4a1.517,1.517,0,1,1-1.517-1.516A1.516,1.516,0,0,1,52.736,238.4Z" transform="translate(-49.177 -236.354)" fill="#fff"/>
            <path id="路径_620" data-name="路径 620" d="M50.744,239.962a2.041,2.041,0,1,1,2.042-2.042A2.044,2.044,0,0,1,50.744,239.962Zm0-3.033a.991.991,0,1,0,.992.991A.993.993,0,0,0,50.744,236.929Z" transform="translate(-48.702 -235.879)" fill="#020202"/>
          </g>
        </g>
      </g>
    </g>
    <g id="组_509" data-name="组 509" transform="translate(419.668 1981.699)">
      <path id="路径_621" data-name="路径 621" d="M74.875,83.686l-.9-.9L109.73,47.023l15.738,15.738,13.734-12.5.86.945L125.427,64.528l-15.7-15.7Z" transform="translate(-61.85 -37.495)" fill="#231f20"/>
      <path id="路径_622" data-name="路径 622" d="M78.511,75.58l-.9-.9,24.338-24.338,15.738,15.738,13.734-12.5.86.945L117.643,67.842l-15.7-15.7Z" transform="translate(-52.54 -29.009)" fill="#231f20"/>
      <g id="组_505" data-name="组 505" transform="translate(0 4.98)">
        <g id="组_504" data-name="组 504">
          <ellipse id="椭圆_38" data-name="椭圆 38" cx="12.462" cy="12.462" rx="12.462" ry="12.462" transform="translate(0.639 0.639)" fill="#fff"/>
          <path id="路径_623" data-name="路径 623" d="M83.669,71.947a13.1,13.1,0,1,1,13.1-13.1A13.118,13.118,0,0,1,83.669,71.947Zm0-24.923A11.823,11.823,0,1,0,95.49,58.845,11.833,11.833,0,0,0,83.669,47.024Z" transform="translate(-70.567 -45.746)" fill="#231f20"/>
        </g>
      </g>
      <g id="组_506" data-name="组 506" transform="translate(56.432 3.496)">
        <path id="路径_624" data-name="路径 624" d="M97.3,56.209l2.221-10.7-10.7,2.22L91.4,50.3l-4.8,4.8,3.331,3.331,4.8-4.8Z" transform="translate(-85.957 -44.87)" fill="#fff"/>
        <path id="路径_625" data-name="路径 625" d="M90.388,59.534h0a.63.63,0,0,1-.452-.189L86.6,56.017a.64.64,0,0,1,0-.9l4.351-4.347-2.126-2.126a.637.637,0,0,1,.324-1.075l10.7-2.222a.641.641,0,0,1,.758.755L98.389,56.8a.642.642,0,0,1-.445.481.635.635,0,0,1-.634-.16L95.188,55l-4.351,4.347A.628.628,0,0,1,90.388,59.534Zm-2.428-3.97,2.428,2.428,4.347-4.351a.64.64,0,0,1,.9,0l1.737,1.737,1.784-8.588-8.591,1.78,1.738,1.741a.632.632,0,0,1,0,.9Z" transform="translate(-86.416 -45.329)" fill="#020202"/>
      </g>
      <path id="路径_626" data-name="路径 626" d="M83.9,55.586h-.046a5.669,5.669,0,0,1-1.246-.142l.285-1.246a4.389,4.389,0,0,0,.968.11l.135,0,.046,1.278Zm2.873-.815-.662-1.093a4.387,4.387,0,0,0,.869-.691l.915.89A5.652,5.652,0,0,1,86.769,54.771Zm-6.694-.648a5.722,5.722,0,0,1-.933-1.1l1.072-.7a4.217,4.217,0,0,0,.723.847Zm9.218-2.731-1.235-.324a4.4,4.4,0,0,0,.139-1.1,4.619,4.619,0,0,0-.032-.545l1.268-.16a5.814,5.814,0,0,1,.043.7A5.647,5.647,0,0,1,89.293,51.392ZM78.249,50.321c-.007-.118-.011-.235-.011-.356a5.741,5.741,0,0,1,.1-1.079l1.253.246a4.317,4.317,0,0,0-.078.833c0,.093,0,.185.007.274Zm9.093-2.945a4.432,4.432,0,0,0-.773-.8l.8-1a5.742,5.742,0,0,1,1,1.036Zm-6.786-.228-.972-.83a5.591,5.591,0,0,1,1.065-.965l.73,1.047A4.437,4.437,0,0,0,80.556,47.148Zm4-1.467a4.308,4.308,0,0,0-1.111-.036l-.121-1.275a5.7,5.7,0,0,1,1.435.05Z" transform="translate(-50.926 -44.347)" fill="#231f20"/>
      <g id="组_507" data-name="组 507" transform="translate(80.764 17.445)">
        <path id="路径_627" data-name="路径 627" d="M99.47,55.467H98.192V50.525H93.251V49.247h6.22Z" transform="translate(-93.251 -49.247)" fill="#231f20"/>
        <rect id="矩形_377" data-name="矩形 377" width="6.737" height="1.278" transform="translate(0.366 4.951) rotate(-45.002)" fill="#231f20"/>
      </g>
      <g id="组_508" data-name="组 508" transform="translate(80.125 4.025)">
        <path id="路径_628" data-name="路径 628" d="M99.291,51.7H98.013V46.756H93.071V45.478h6.22Z" transform="translate(-93.071 -45.478)" fill="#231f20"/>
        <rect id="矩形_378" data-name="矩形 378" width="6.737" height="1.278" transform="translate(0.366 4.951) rotate(-45.002)" fill="#231f20"/>
      </g>
      <rect id="矩形_379" data-name="矩形 379" width="3.823" height="1.278" transform="translate(49.556 34.874)" fill="#231f20"/>
      <g id="组_510" data-name="组 510" transform="translate(5.019 10.978)">
        <path id="路径_624-2" data-name="路径 624" d="M97.3,56.209l2.221-10.7-10.7,2.22L91.4,50.3l-4.8,4.8,3.331,3.331,4.8-4.8Z" transform="translate(-85.957 -44.87)" fill="#fff"/>
        <path id="路径_625-2" data-name="路径 625" d="M90.388,59.534h0a.63.63,0,0,1-.452-.189L86.6,56.017a.64.64,0,0,1,0-.9l4.351-4.347-2.126-2.126a.637.637,0,0,1,.324-1.075l10.7-2.222a.641.641,0,0,1,.758.755L98.389,56.8a.642.642,0,0,1-.445.481.635.635,0,0,1-.634-.16L95.188,55l-4.351,4.347A.628.628,0,0,1,90.388,59.534Zm-2.428-3.97,2.428,2.428,4.347-4.351a.64.64,0,0,1,.9,0l1.737,1.737,1.784-8.588-8.591,1.78,1.738,1.741a.632.632,0,0,1,0,.9Z" transform="translate(-86.416 -45.329)" fill="#020202"/>
      </g>
    </g>
    <ellipse id="椭圆_35" data-name="椭圆 35" cx="29.294" cy="28.167" rx="29.294" ry="28.167" transform="translate(419.542 1963.622)" fill="#eafbf9" opacity="0.996" style="mix-blend-mode: multiply;isolation: isolate"/>
    <ellipse id="椭圆_39" data-name="椭圆 39" cx="33.267" cy="32.628" rx="33.267" ry="32.628" transform="translate(219.738 1970.639)" fill="#eafbf9" opacity="0.996" style="mix-blend-mode: multiply;isolation: isolate"/>
    <ellipse id="椭圆_36" data-name="椭圆 36" cx="12.393" cy="11.83" rx="12.393" ry="11.83" transform="translate(484.889 2001.929)" fill="#eafbf9" opacity="0.996" style="mix-blend-mode: multiply;isolation: isolate"/>
    <path id="路径_629" data-name="路径 629" d="M124.353,155.462a1.955,1.955,0,1,1,1.956-1.955A1.957,1.957,0,0,1,124.353,155.462Zm0-2.9a.944.944,0,1,0,.945.944A.945.945,0,0,0,124.353,152.563Z" transform="translate(142.25 1817.422)" fill="#231f20"/>
    <g id="组_511" data-name="组 511" transform="translate(302.12 2020.09)">
      <rect id="矩形_380" data-name="矩形 380" width="3.75" height="3.75" transform="matrix(0.707, -0.707, 0.707, 0.707, 0.715, 3.366)" fill="#fff"/>
      <path id="路径_630" data-name="路径 630" d="M206.941,268.373l-3.366-3.367,3.366-3.366,3.366,3.366ZM205,265.006l1.937,1.938,1.936-1.938-1.936-1.937Z" transform="translate(-203.575 -261.64)" fill="#020202"/>
    </g>
    <rect id="矩形_381" data-name="矩形 381" width="3.75" height="3.75" transform="matrix(0.707, -0.707, 0.707, 0.707, 250.03, 1972.883)" fill="#020202"/>
    <path id="路径_632" data-name="路径 632" d="M44.648,273.792H34.679a.505.505,0,0,1,0-1.011h9.969a.505.505,0,0,1,0,1.011Z" transform="translate(199.348 1748.404)" fill="#231f20"/>
    <path id="路径_633" data-name="路径 633" d="M190.1,259.545h-7.754a.505.505,0,1,1,0-1.011H190.1a.505.505,0,1,1,0,1.011Z" transform="translate(126.307 1755.451)" fill="#231f20"/>
    <path id="路径_634" data-name="路径 634" d="M38.346,194.679H37.336v-1.011h1.011Zm-3.032,0H34.3v-1.011h1.011Zm-3.032,0H31.271v-1.011h1.011Zm-3.032,0H28.239v-1.011H29.25Zm-3.032,0H25.207v-1.011h1.011Zm-3.032,0H22.175v-1.011h1.011Z" transform="translate(203.016 1781.867)" fill="#231f20"/>
    <rect id="矩形_385" data-name="矩形 385" width="15.161" height="1.011" transform="translate(282.137 1967.963)" fill="#231f20"/>
    <g id="组_610" data-name="组 610" transform="translate(6 25)">
      <line id="直线_71" data-name="直线 71" x2="17" transform="translate(349.5 2036.5)" fill="none" stroke="#004e98" stroke-linecap="round" stroke-width="1.5"/>
      <line id="直线_72" data-name="直线 72" x2="2" transform="translate(345.5 2036.5)" fill="none" stroke="#004e98" stroke-linecap="round" stroke-width="1.5"/>
      <path id="多边形_1" data-name="多边形 1" d="M3,0,6,3H0Z" transform="translate(367 2033.5) rotate(90)" fill="#004e98" stroke="#004e98" stroke-linejoin="round" stroke-width="1"/>
    </g>
    <path id="矩形_808" data-name="矩形 808" d="M0,0H378a0,0,0,0,1,0,0V52a16,16,0,0,1-16,16H16A16,16,0,0,1,0,52V0A0,0,0,0,1,0,0Z" transform="translate(182 2130)" fill="rgba(54,212,194,0.1)"/>
    <g id="组_971" data-name="组 971" transform="translate(-23 172)">
      <text id="デジタルシフト" transform="translate(325 2001)" fill="#0995b5" font-size="20" font-family="NotoSansCJKjp-Bold, Noto Sans CJK JP" font-weight="700"><tspan x="0" y="0">デジタルシフト</tspan></text>
    </g>
  </g>
</svg>
